EB Garamond-Regular.ufo
<glyph name="exclam" format="1">
  <advance width="285"/>
  <unicode hex="0021"/>
  <note>
	exclam
  </note>
  <outline>
    <contour>
      <point x="168" y="205"/>
      <point x="174" y="222"/>
      <point x="176" y="244" type="curve" smooth="yes"/>
      <point x="188" y="357"/>
      <point x="206" y="535"/>
      <point x="206" y="598" type="curve" smooth="yes"/>
      <point x="206" y="625"/>
      <point x="188" y="649"/>
      <point x="161" y="649" type="curve" smooth="yes"/>
      <point x="134" y="649"/>
      <point x="114" y="625"/>
      <point x="114" y="598" type="curve" smooth="yes"/>
      <point x="114" y="535"/>
      <point x="128" y="358"/>
      <point x="140" y="244" type="curve" smooth="yes"/>
      <point x="143" y="215"/>
      <point x="148" y="205"/>
      <point x="158" y="205" type="curve" smooth="yes"/>
    </contour>
    <contour>
      <point x="193" y="-14"/>
      <point x="220" y="13"/>
      <point x="220" y="46" type="curve" smooth="yes"/>
      <point x="220" y="79"/>
      <point x="193" y="106"/>
      <point x="160" y="106" type="curve" smooth="yes"/>
      <point x="127" y="106"/>
      <point x="100" y="79"/>
      <point x="100" y="46" type="curve" smooth="yes"/>
      <point x="100" y="13"/>
      <point x="127" y="-14"/>
      <point x="160" y="-14" type="curve" smooth="yes"/>
    </contour>
  </outline>
</glyph>
<glyph name="two" format="1">
  <advance width="422"/>
  <unicode hex="0032"/>
  <note>
	two
  </note>
  <outline>
    <contour>
      <point x="365" y="-4"/>
      <point x="378" y="2"/>
      <point x="378" y="12" type="curve" smooth="yes"/>
      <point x="378" y="22"/>
      <point x="395" y="78"/>
      <point x="411" y="126" type="curve" smooth="yes"/>
      <point x="412" y="130"/>
      <point x="413" y="139"/>
      <point x="406" y="139" type="curve" smooth="yes"/>
      <point x="397" y="139"/>
      <point x="392" y="134"/>
      <point x="389" y="128" type="curve" smooth="yes"/>
      <point x="370" y="90"/>
      <point x="334" y="65"/>
      <point x="296" y="65" type="curve" smooth="yes"/>
      <point x="141" y="65" type="line" smooth="yes"/>
      <point x="135" y="65"/>
      <point x="126" y="69"/>
      <point x="132" y="73" type="curve" smooth="yes"/>
      <point x="142" y="80"/>
      <point x="223" y="155"/>
      <point x="253" y="191" type="curve" smooth="yes"/>
      <point x="277" y="220"/>
      <point x="294" y="258"/>
      <point x="294" y="290" type="curve" smooth="yes"/>
      <point x="294" y="353"/>
      <point x="254" y="413"/>
      <point x="190" y="413" type="curve" smooth="yes"/>
      <point x="72" y="413"/>
      <point x="25" y="313"/>
      <point x="25" y="304" type="curve" smooth="yes"/>
      <point x="25" y="298"/>
      <point x="26" y="290"/>
      <point x="32" y="290" type="curve" smooth="yes"/>
      <point x="38" y="290"/>
      <point x="41" y="293"/>
      <point x="45" y="297" type="curve"/>
      <point x="79" y="335"/>
      <point x="116" y="345"/>
      <point x="161" y="345" type="curve" smooth="yes"/>
      <point x="199" y="345"/>
      <point x="226" y="314"/>
      <point x="226" y="267" type="curve" smooth="yes"/>
      <point x="226" y="186"/>
      <point x="112" y="92"/>
      <point x="90" y="74" type="curve" smooth="yes"/>
      <point x="74" y="61"/>
      <point x="46" y="34"/>
      <point x="29" y="17" type="curve" smooth="yes"/>
      <point x="25" y="13"/>
      <point x="22" y="9"/>
      <point x="22" y="5" type="curve" smooth="yes"/>
      <point x="22" y="1"/>
      <point x="26" y="-3"/>
      <point x="29" y="-3" type="curve" smooth="yes"/>
      <point x="34" y="-3"/>
      <point x="128" y="0"/>
      <point x="192" y="0" type="curve" smooth="yes"/>
      <point x="259" y="0"/>
      <point x="349" y="-4"/>
      <point x="363" y="-4" type="curve" smooth="yes"/>
    </contour>
  </outline>
</glyph>
<glyph name="less" format="1">
  <advance width="590"/>
  <unicode hex="003C"/>
  <note>
	less
  </note>
  <outline>
    <contour>
      <point x="524" y="-6"/>
      <point x="537" y="-6"/>
      <point x="537" y="7" type="curve" smooth="yes"/>
      <point x="537" y="16"/>
      <point x="532" y="46"/>
      <point x="513" y="55" type="curve" smooth="yes"/>
      <point x="133" y="229" type="line"/>
      <point x="130" y="230"/>
      <point x="129" y="233"/>
      <point x="132" y="234" type="curve"/>
      <point x="505" y="408" type="line" smooth="yes"/>
      <point x="525" y="417"/>
      <point x="536" y="447"/>
      <point x="536" y="459" type="curve" smooth="yes"/>
      <point x="536" y="465"/>
      <point x="533" y="469"/>
      <point x="527" y="469" type="curve" smooth="yes"/>
      <point x="526" y="469"/>
      <point x="522" y="468"/>
      <point x="519" y="466" type="curve" smooth="yes"/>
      <point x="86" y="268" type="line" smooth="yes"/>
      <point x="66" y="259"/>
      <point x="53" y="231"/>
      <point x="53" y="222" type="curve" smooth="yes"/>
      <point x="53" y="216"/>
      <point x="77" y="203"/>
      <point x="94" y="195" type="curve" smooth="yes"/>
      <point x="517" y="-2" type="line" smooth="yes"/>
    </contour>
  </outline>
</glyph>
<glyph name="A" format="1">
  <advance width="692"/>
  <unicode hex="0041"/>
  <note>
	A
  </note>
  <outline>
    <contour>
      <point x="60" y="-5"/>
      <point x="103" y="1"/>
      <point x="147" y="1" type="curve" smooth="yes"/>
      <point x="184" y="1"/>
      <point x="220" y="-1"/>
      <point x="238" y="-1" type="curve" smooth="yes"/>
      <point x="255" y="-1"/>
      <point x="267" y="2"/>
      <point x="267" y="10" type="curve" smooth="yes"/>
      <point x="267" y="19"/>
      <point x="257" y="24"/>
      <point x="234" y="30" type="curve" smooth="yes"/>
      <point x="202" y="38"/>
      <point x="176" y="58"/>
      <point x="176" y="87" type="curve" smooth="yes"/>
      <point x="176" y="100"/>
      <point x="207" y="200"/>
      <point x="216" y="226" type="curve" smooth="yes"/>
      <point x="221" y="240"/>
      <point x="227" y="244"/>
      <point x="233" y="244" type="curve" smooth="yes"/>
      <point x="424" y="244" type="line" smooth="yes"/>
      <point x="442" y="244"/>
      <point x="448" y="243"/>
      <point x="451" y="233" type="curve" smooth="yes"/>
      <point x="466" y="183"/>
      <point x="489" y="105"/>
      <point x="489" y="76" type="curve" smooth="yes"/>
      <point x="489" y="54"/>
      <point x="472" y="38"/>
      <point x="428" y="31" type="curve" smooth="yes"/>
      <point x="410" y="28"/>
      <point x="395" y="21"/>
      <point x="395" y="12" type="curve" smooth="yes"/>
      <point x="395" y="4"/>
      <point x="407" y="0"/>
      <point x="424" y="0" type="curve" smooth="yes"/>
      <point x="448" y="0"/>
      <point x="490" y="1"/>
      <point x="529" y="1" type="curve" smooth="yes"/>
      <point x="574" y="1"/>
      <point x="640" y="-5"/>
      <point x="668" y="-5" type="curve" smooth="yes"/>
      <point x="685" y="-5"/>
      <point x="697" y="-3"/>
      <point x="697" y="5" type="curve" smooth="yes"/>
      <point x="697" y="14"/>
      <point x="687" y="24"/>
      <point x="664" y="28" type="curve" smooth="yes"/>
      <point x="624" y="35"/>
      <point x="591" y="48"/>
      <point x="563" y="128" type="curve" smooth="yes"/>
      <point x="530" y="223"/>
      <point x="449" y="459"/>
      <point x="385" y="662" type="curve" smooth="yes"/>
      <point x="382" y="670"/>
      <point x="381" y="682"/>
      <point x="377" y="685" type="curve"/>
      <point x="376" y="686"/>
      <point x="374" y="686"/>
      <point x="373" y="685" type="curve"/>
      <point x="369" y="679"/>
      <point x="366" y="659"/>
      <point x="354" y="651" type="curve" smooth="yes"/>
      <point x="342" y="643"/>
      <point x="330" y="640"/>
      <point x="318" y="636" type="curve"/>
      <point x="316" y="635"/>
      <point x="319" y="620"/>
      <point x="304" y="578" type="curve" smooth="yes"/>
      <point x="237" y="393"/>
      <point x="192" y="279"/>
      <point x="117" y="108" type="curve" smooth="yes"/>
      <point x="95" y="58"/>
      <point x="65" y="41"/>
      <point x="31" y="31" type="curve" smooth="yes"/>
      <point x="9" y="24"/>
      <point x="-2" y="17"/>
      <point x="-2" y="8" type="curve" smooth="yes"/>
      <point x="-2" y="0"/>
      <point x="10" y="-5"/>
      <point x="27" y="-5" type="curve" smooth="yes"/>
    </contour>
    <contour>
      <point x="249" y="287"/>
      <point x="241" y="287"/>
      <point x="241" y="294" type="curve" smooth="yes"/>
      <point x="241" y="296"/>
      <point x="242" y="299"/>
      <point x="243" y="302" type="curve"/>
      <point x="333" y="542" type="line" smooth="yes"/>
      <point x="337" y="553"/>
      <point x="339" y="559"/>
      <point x="341" y="559" type="curve" smooth="yes"/>
      <point x="344" y="559"/>
      <point x="346" y="553"/>
      <point x="350" y="541" type="curve" smooth="yes"/>
      <point x="429" y="302" type="line"/>
      <point x="430" y="298"/>
      <point x="431" y="294"/>
      <point x="431" y="292" type="curve" smooth="yes"/>
      <point x="431" y="287"/>
      <point x="427" y="287"/>
      <point x="417" y="287" type="curve" smooth="yes"/>
      <point x="262" y="287" type="line" smooth="yes"/>
    </contour>
    <contour>
      <point x="363" y="675" type="move" name="top.cap"/>
    </contour>
  </outline>
</glyph>
<glyph name="C" format="1">
  <advance width="640"/>
  <unicode hex="0043"/>
  <note>
	C
  </note>
  <outline>
    <contour>
      <point x="447" y="-15"/>
      <point x="518" y="-6"/>
      <point x="564" y="14" type="curve" smooth="yes"/>
      <point x="584" y="21"/>
      <point x="585" y="22"/>
      <point x="594" y="41" type="curve" smooth="yes"/>
      <point x="606" y="70"/>
      <point x="620" y="122"/>
      <point x="620" y="138" type="curve" smooth="yes"/>
      <point x="620" y="159"/>
      <point x="597" y="157"/>
      <point x="588" y="141" type="curve" smooth="yes"/>
      <point x="548" y="62"/>
      <point x="491" y="16"/>
      <point x="400" y="16" type="curve" smooth="yes"/>
      <point x="244" y="16"/>
      <point x="146" y="184"/>
      <point x="146" y="347" type="curve" smooth="yes"/>
      <point x="146" y="494"/>
      <point x="247" y="632"/>
      <point x="394" y="632" type="curve" smooth="yes"/>
      <point x="446" y="632"/>
      <point x="492" y="620"/>
      <point x="523" y="598" type="curve" smooth="yes"/>
      <point x="556" y="574"/>
      <point x="571" y="539"/>
      <point x="581" y="487" type="curve" smooth="yes"/>
      <point x="586" y="464"/>
      <point x="614" y="473"/>
      <point x="613" y="488" type="curve" smooth="yes"/>
      <point x="611" y="540"/>
      <point x="608" y="572"/>
      <point x="605" y="603" type="curve" smooth="yes"/>
      <point x="603" y="621"/>
      <point x="596" y="632"/>
      <point x="577" y="637" type="curve" smooth="yes"/>
      <point x="513" y="654"/>
      <point x="482" y="663"/>
      <point x="410" y="663" type="curve" smooth="yes"/>
      <point x="217" y="663"/>
      <point x="46" y="517"/>
      <point x="46" y="323" type="curve" smooth="yes"/>
      <point x="46" y="119"/>
      <point x="210" y="-15"/>
      <point x="386" y="-15" type="curve" smooth="yes"/>
    </contour>
  </outline>
</glyph>
<glyph name="G" format="1">
  <advance width="729"/>
  <unicode hex="0047"/>
  <note>
	G
  </note>
  <outline>
    <contour>
      <point x="519" y="-14"/>
      <point x="610" y="50"/>
      <point x="630" y="53" type="curve" smooth="yes"/>
      <point x="644" y="55"/>
      <point x="644" y="67"/>
      <point x="644" y="72" type="curve" smooth="yes"/>
      <point x="644" y="77"/>
      <point x="635" y="82"/>
      <point x="631" y="89" type="curve"/>
      <point x="628" y="95"/>
      <point x="625" y="98"/>
      <point x="625" y="105" type="curve" smooth="yes"/>
      <point x="625" y="132" type="line" smooth="yes"/>
      <point x="625" y="157"/>
      <point x="626" y="178"/>
      <point x="630" y="207" type="curve" smooth="yes"/>
      <point x="634" y="234"/>
      <point x="643" y="248"/>
      <point x="672" y="256" type="curve"/>
      <point x="677" y="257"/>
      <point x="693" y="265"/>
      <point x="693" y="274" type="curve" smooth="yes"/>
      <point x="693" y="287"/>
      <point x="677" y="290"/>
      <point x="672" y="290" type="curve" smooth="yes"/>
      <point x="636" y="290"/>
      <point x="618" y="286"/>
      <point x="583" y="286" type="curve" smooth="yes"/>
      <point x="528" y="286"/>
      <point x="506" y="290"/>
      <point x="457" y="290" type="curve" smooth="yes"/>
      <point x="452" y="290"/>
      <point x="437" y="283"/>
      <point x="437" y="273" type="curve" smooth="yes"/>
      <point x="437" y="263"/>
      <point x="452" y="256"/>
      <point x="457" y="256" type="curve" smooth="yes"/>
      <point x="477" y="256"/>
      <point x="538" y="247"/>
      <point x="555" y="225" type="curve" smooth="yes"/>
      <point x="559" y="220"/>
      <point x="560" y="209"/>
      <point x="560" y="195" type="curve" smooth="yes"/>
      <point x="560" y="177"/>
      <point x="558" y="154"/>
      <point x="558" y="137" type="curve" smooth="yes"/>
      <point x="558" y="102"/>
      <point x="543" y="75"/>
      <point x="528" y="60" type="curve" smooth="yes"/>
      <point x="516" y="48"/>
      <point x="483" y="23"/>
      <point x="406" y="23" type="curve" smooth="yes"/>
      <point x="273" y="23"/>
      <point x="144" y="134"/>
      <point x="144" y="324" type="curve" smooth="yes"/>
      <point x="144" y="482"/>
      <point x="249" y="625"/>
      <point x="404" y="625" type="curve" smooth="yes"/>
      <point x="499" y="625"/>
      <point x="550" y="588"/>
      <point x="563" y="572" type="curve" smooth="yes"/>
      <point x="579" y="553"/>
      <point x="586" y="540"/>
      <point x="594" y="519" type="curve"/>
      <point x="598" y="507"/>
      <point x="603" y="492"/>
      <point x="617" y="492" type="curve" smooth="yes"/>
      <point x="625" y="492"/>
      <point x="632" y="502"/>
      <point x="632" y="512" type="curve" smooth="yes"/>
      <point x="632" y="538"/>
      <point x="627" y="579"/>
      <point x="622" y="618" type="curve" smooth="yes"/>
      <point x="621" y="625"/>
      <point x="619" y="627"/>
      <point x="613" y="630" type="curve" smooth="yes"/>
      <point x="586" y="643"/>
      <point x="459" y="663"/>
      <point x="413" y="663" type="curve" smooth="yes"/>
      <point x="214" y="663"/>
      <point x="45" y="509"/>
      <point x="45" y="311" type="curve" smooth="yes"/>
      <point x="45" y="126"/>
      <point x="207" y="-14"/>
      <point x="392" y="-14" type="curve" smooth="yes"/>
    </contour>
    <contour>
      <point x="400" y="675" type="move" name="top.cap"/>
    </contour>
  </outline>
</glyph>
<glyph name="J" format="1">
  <advance width="300"/>
  <unicode hex="004A"/>
  <note>
	J
  </note>
  <outline>
    <contour>
      <point x="80" y="-200"/>
      <point x="114" y="-184"/>
      <point x="140" y="-157" type="curve" smooth="yes"/>
      <point x="192" y="-105"/>
      <point x="210" y="-8"/>
      <point x="210" y="107" type="curve" smooth="yes"/>
      <point x="210" y="551" type="line" smooth="yes"/>
      <point x="210" y="597"/>
      <point x="217" y="613"/>
      <point x="267" y="622" type="curve" smooth="yes"/>
      <point x="290" y="626"/>
      <point x="300" y="633"/>
      <point x="300" y="642" type="curve" smooth="yes"/>
      <point x="300" y="650"/>
      <point x="288" y="653"/>
      <point x="271" y="653" type="curve" smooth="yes"/>
      <point x="217" y="653"/>
      <point x="214" y="650"/>
      <point x="177" y="650" type="curve" smooth="yes"/>
      <point x="131" y="650"/>
      <point x="114" y="653"/>
      <point x="60" y="653" type="curve" smooth="yes"/>
      <point x="43" y="653"/>
      <point x="31" y="650"/>
      <point x="31" y="642" type="curve" smooth="yes"/>
      <point x="31" y="633"/>
      <point x="42" y="626"/>
      <point x="64" y="622" type="curve" smooth="yes"/>
      <point x="112" y="613"/>
      <point x="130" y="597"/>
      <point x="130" y="551" type="curve" smooth="yes"/>
      <point x="130" y="0" type="line" smooth="yes"/>
      <point x="130" y="-97"/>
      <point x="111" y="-158"/>
      <point x="64" y="-158" type="curve" smooth="yes"/>
      <point x="47" y="-158"/>
      <point x="34" y="-151"/>
      <point x="17" y="-129" type="curve" smooth="yes"/>
      <point x="3" y="-111"/>
      <point x="-13" y="-104"/>
      <point x="-30" y="-104" type="curve" smooth="yes"/>
      <point x="-51" y="-104"/>
      <point x="-69" y="-121"/>
      <point x="-69" y="-151" type="curve" smooth="yes"/>
      <point x="-69" y="-182"/>
      <point x="-34" y="-200"/>
      <point x="34" y="-200" type="curve" smooth="yes"/>
    </contour>
  </outline>
</glyph>
<glyph name="S" format="1">
  <advance width="465"/>
  <unicode hex="0053"/>
  <note>
	S
  </note>
  <outline>
    <contour>
      <point x="335" y="-16"/>
      <point x="422" y="61"/>
      <point x="422" y="180" type="curve" smooth="yes"/>
      <point x="422" y="280"/>
      <point x="347" y="327"/>
      <point x="277" y="370" type="curve" smooth="yes"/>
      <point x="202" y="416"/>
      <point x="137" y="456"/>
      <point x="137" y="516" type="curve" smooth="yes"/>
      <point x="137" y="600"/>
      <point x="192" y="630"/>
      <point x="252" y="630" type="curve" smooth="yes"/>
      <point x="309" y="630"/>
      <point x="344" y="591"/>
      <point x="372" y="521" type="curve" smooth="yes"/>
      <point x="375" y="513"/>
      <point x="388" y="507"/>
      <point x="400" y="507" type="curve" smooth="yes"/>
      <point x="408" y="507"/>
      <point x="415" y="510"/>
      <point x="415" y="518" type="curve" smooth="yes"/>
      <point x="415" y="550"/>
      <point x="403" y="589"/>
      <point x="395" y="617" type="curve" smooth="yes"/>
      <point x="392" y="627"/>
      <point x="384" y="638"/>
      <point x="374" y="642" type="curve" smooth="yes"/>
      <point x="352" y="651"/>
      <point x="317" y="664"/>
      <point x="269" y="664" type="curve" smooth="yes"/>
      <point x="128" y="664"/>
      <point x="60" y="583"/>
      <point x="60" y="482" type="curve" smooth="yes"/>
      <point x="60" y="385"/>
      <point x="147" y="340"/>
      <point x="225" y="291" type="curve" smooth="yes"/>
      <point x="296" y="247"/>
      <point x="338" y="221"/>
      <point x="338" y="139" type="curve" smooth="yes"/>
      <point x="338" y="65"/>
      <point x="287" y="17"/>
      <point x="218" y="17" type="curve" smooth="yes"/>
      <point x="161" y="17"/>
      <point x="102" y="57"/>
      <point x="76" y="160" type="curve" smooth="yes"/>
      <point x="74" y="168"/>
      <point x="67" y="171"/>
      <point x="60" y="171" type="curve" smooth="yes"/>
      <point x="49" y="171"/>
      <point x="40" y="166"/>
      <point x="40" y="157" type="curve"/>
      <point x="42" y="129"/>
      <point x="43" y="79"/>
      <point x="50" y="52" type="curve" smooth="yes"/>
      <point x="52" y="44"/>
      <point x="58" y="37"/>
      <point x="63" y="32" type="curve"/>
      <point x="100" y="1"/>
      <point x="148" y="-16"/>
      <point x="204" y="-16" type="curve" smooth="yes"/>
    </contour>
    <contour>
      <point x="239" y="675" type="move" name="top.cap"/>
    </contour>
  </outline>
</glyph>
<glyph name="V" format="1">
  <advance width="672"/>
  <unicode hex="0056"/>
  <note>
	V
  </note>
  <outline>
    <contour>
      <point x="322" y="-12"/>
      <point x="326" y="-9"/>
      <point x="328" y="-5" type="curve" smooth="yes"/>
      <point x="339" y="19"/>
      <point x="355" y="69"/>
      <point x="359" y="79" type="curve" smooth="yes"/>
      <point x="547" y="535" type="line" smooth="yes"/>
      <point x="562" y="571"/>
      <point x="596" y="611"/>
      <point x="645" y="622" type="curve" smooth="yes"/>
      <point x="668" y="627"/>
      <point x="678" y="633"/>
      <point x="678" y="642" type="curve" smooth="yes"/>
      <point x="678" y="650"/>
      <point x="666" y="653"/>
      <point x="649" y="653" type="curve" smooth="yes"/>
      <point x="623" y="653"/>
      <point x="574" y="650"/>
      <point x="535" y="650" type="curve" smooth="yes"/>
      <point x="497" y="650"/>
      <point x="462" y="651"/>
      <point x="436" y="651" type="curve" smooth="yes"/>
      <point x="419" y="651"/>
      <point x="407" y="648"/>
      <point x="407" y="640" type="curve" smooth="yes"/>
      <point x="407" y="631"/>
      <point x="426" y="624"/>
      <point x="440" y="620" type="curve" smooth="yes"/>
      <point x="464" y="613"/>
      <point x="507" y="595"/>
      <point x="507" y="579" type="curve" smooth="yes"/>
      <point x="507" y="575"/>
      <point x="501" y="551"/>
      <point x="499" y="547" type="curve"/>
      <point x="345" y="169" type="line" smooth="yes"/>
      <point x="344" y="166"/>
      <point x="343" y="165"/>
      <point x="340" y="165" type="curve" smooth="yes"/>
      <point x="337" y="165"/>
      <point x="335" y="166"/>
      <point x="334" y="168" type="curve" smooth="yes"/>
      <point x="195" y="533" type="line"/>
      <point x="192" y="542"/>
      <point x="186" y="572"/>
      <point x="186" y="580" type="curve" smooth="yes"/>
      <point x="186" y="598"/>
      <point x="219" y="615"/>
      <point x="249" y="621" type="curve" smooth="yes"/>
      <point x="272" y="625"/>
      <point x="282" y="632"/>
      <point x="282" y="641" type="curve" smooth="yes"/>
      <point x="282" y="649"/>
      <point x="270" y="652"/>
      <point x="253" y="652" type="curve" smooth="yes"/>
      <point x="233" y="652"/>
      <point x="191" y="650"/>
      <point x="151" y="650" type="curve" smooth="yes"/>
      <point x="105" y="650"/>
      <point x="60" y="653"/>
      <point x="29" y="653" type="curve" smooth="yes"/>
      <point x="12" y="653"/>
      <point x="0" y="650"/>
      <point x="0" y="642" type="curve" smooth="yes"/>
      <point x="0" y="633"/>
      <point x="11" y="627"/>
      <point x="33" y="620" type="curve" smooth="yes"/>
      <point x="67" y="610"/>
      <point x="89" y="584"/>
      <point x="103" y="547" type="curve" smooth="yes"/>
      <point x="286" y="56" type="line" smooth="yes"/>
      <point x="292" y="38"/>
      <point x="301" y="9"/>
      <point x="307" y="-5" type="curve" smooth="yes"/>
      <point x="309" y="-10"/>
      <point x="314" y="-12"/>
      <point x="318" y="-12" type="curve" smooth="yes"/>
    </contour>
  </outline>
</glyph>
<glyph name="W" format="1">
  <advance width="916"/>
  <unicode hex="0057"/>
  <note>
	W
  </note>
  <outline>
    <contour>
      <point x="343" y="-16"/>
      <point x="352" y="1"/>
      <point x="357" y="15" type="curve" smooth="yes"/>
      <point x="399" y="133"/>
      <point x="423" y="197"/>
      <point x="471" y="310" type="curve" smooth="yes"/>
      <point x="476" y="323"/>
      <point x="478" y="325"/>
      <point x="482" y="316" type="curve"/>
      <point x="529" y="199"/>
      <point x="552" y="126"/>
      <point x="605" y="7" type="curve" smooth="yes"/>
      <point x="609" y="-2"/>
      <point x="617" y="-12"/>
      <point x="622" y="-12" type="curve" smooth="yes"/>
      <point x="629" y="-12"/>
      <point x="636" y="5"/>
      <point x="638" y="11" type="curve" smooth="yes"/>
      <point x="815" y="534" type="line"/>
      <point x="826" y="563"/>
      <point x="848" y="611"/>
      <point x="897" y="622" type="curve" smooth="yes"/>
      <point x="920" y="627"/>
      <point x="930" y="633"/>
      <point x="930" y="642" type="curve" smooth="yes"/>
      <point x="930" y="650"/>
      <point x="918" y="653"/>
      <point x="901" y="653" type="curve" smooth="yes"/>
      <point x="876" y="653"/>
      <point x="844" y="650"/>
      <point x="811" y="650" type="curve" smooth="yes"/>
      <point x="785" y="650"/>
      <point x="765" y="651"/>
      <point x="739" y="651" type="curve" smooth="yes"/>
      <point x="722" y="651"/>
      <point x="710" y="648"/>
      <point x="710" y="640" type="curve" smooth="yes"/>
      <point x="710" y="631"/>
      <point x="729" y="624"/>
      <point x="743" y="620" type="curve" smooth="yes"/>
      <point x="765" y="614"/>
      <point x="773" y="597"/>
      <point x="773" y="577" type="curve" smooth="yes"/>
      <point x="773" y="566"/>
      <point x="771" y="553"/>
      <point x="767" y="541" type="curve"/>
      <point x="722" y="388"/>
      <point x="678" y="242"/>
      <point x="645" y="154" type="curve"/>
      <point x="641" y="145"/>
      <point x="637" y="141"/>
      <point x="634" y="148" type="curve" smooth="yes"/>
      <point x="531" y="413" type="line"/>
      <point x="528" y="420"/>
      <point x="533" y="441"/>
      <point x="537" y="451" type="curve" smooth="yes"/>
      <point x="553" y="494"/>
      <point x="579" y="555"/>
      <point x="590" y="574" type="curve" smooth="yes"/>
      <point x="607" y="602"/>
      <point x="615" y="612"/>
      <point x="658" y="622" type="curve" smooth="yes"/>
      <point x="681" y="627"/>
      <point x="691" y="633"/>
      <point x="691" y="642" type="curve" smooth="yes"/>
      <point x="691" y="650"/>
      <point x="679" y="653"/>
      <point x="662" y="653" type="curve" smooth="yes"/>
      <point x="638" y="653"/>
      <point x="626" y="650"/>
      <point x="603" y="650" type="curve" smooth="yes"/>
      <point x="584" y="650"/>
      <point x="580" y="652"/>
      <point x="551" y="652" type="curve" smooth="yes"/>
      <point x="534" y="652"/>
      <point x="522" y="649"/>
      <point x="522" y="641" type="curve" smooth="yes"/>
      <point x="522" y="624"/>
      <point x="559" y="622"/>
      <point x="559" y="598" type="curve" smooth="yes"/>
      <point x="559" y="596"/>
      <point x="559" y="594"/>
      <point x="558" y="591" type="curve"/>
      <point x="553" y="574"/>
      <point x="534" y="514"/>
      <point x="518" y="478" type="curve" smooth="yes"/>
      <point x="510" y="460"/>
      <point x="507" y="462"/>
      <point x="500" y="478" type="curve" smooth="yes"/>
      <point x="491" y="497"/>
      <point x="459" y="579"/>
      <point x="455" y="591" type="curve" smooth="yes"/>
      <point x="454" y="594"/>
      <point x="453" y="596"/>
      <point x="453" y="599" type="curve" smooth="yes"/>
      <point x="453" y="622"/>
      <point x="494" y="624"/>
      <point x="494" y="641" type="curve" smooth="yes"/>
      <point x="494" y="649"/>
      <point x="482" y="652"/>
      <point x="465" y="652" type="curve" smooth="yes"/>
      <point x="445" y="652"/>
      <point x="418" y="650"/>
      <point x="388" y="650" type="curve" smooth="yes"/>
      <point x="352" y="650"/>
      <point x="325" y="653"/>
      <point x="294" y="653" type="curve" smooth="yes"/>
      <point x="277" y="653"/>
      <point x="265" y="650"/>
      <point x="265" y="642" type="curve" smooth="yes"/>
      <point x="265" y="633"/>
      <point x="276" y="627"/>
      <point x="298" y="620" type="curve" smooth="yes"/>
      <point x="332" y="610"/>
      <point x="376" y="581"/>
      <point x="393" y="538" type="curve" smooth="yes"/>
      <point x="450" y="396" type="line" smooth="yes"/>
      <point x="455" y="383"/>
      <point x="458" y="375"/>
      <point x="458" y="367" type="curve" smooth="yes"/>
      <point x="458" y="361"/>
      <point x="456" y="354"/>
      <point x="452" y="344" type="curve" smooth="yes"/>
      <point x="374" y="151" type="line"/>
      <point x="370" y="140"/>
      <point x="366" y="137"/>
      <point x="359" y="152" type="curve" smooth="yes"/>
      <point x="292" y="303"/>
      <point x="256" y="389"/>
      <point x="195" y="545" type="curve"/>
      <point x="195" y="545"/>
      <point x="187" y="567"/>
      <point x="187" y="588" type="curve" smooth="yes"/>
      <point x="187" y="603"/>
      <point x="191" y="617"/>
      <point x="207" y="621" type="curve" smooth="yes"/>
      <point x="230" y="627"/>
      <point x="240" y="632"/>
      <point x="240" y="641" type="curve" smooth="yes"/>
      <point x="240" y="649"/>
      <point x="228" y="652"/>
      <point x="211" y="652" type="curve" smooth="yes"/>
      <point x="191" y="652"/>
      <point x="155" y="650"/>
      <point x="118" y="650" type="curve" smooth="yes"/>
      <point x="84" y="650"/>
      <point x="60" y="653"/>
      <point x="29" y="653" type="curve" smooth="yes"/>
      <point x="12" y="653"/>
      <point x="0" y="650"/>
      <point x="0" y="642" type="curve" smooth="yes"/>
      <point x="0" y="633"/>
      <point x="11" y="627"/>
      <point x="33" y="620" type="curve" smooth="yes"/>
      <point x="67" y="610"/>
      <point x="89" y="588"/>
      <point x="105" y="554" type="curve"/>
      <point x="321" y="12" type="line" smooth="yes"/>
      <point x="326" y="-1"/>
      <point x="332" y="-16"/>
      <point x="335" y="-16" type="curve" smooth="yes"/>
    </contour>
    <contour>
      <point x="480" y="675" type="move" name="top.cap"/>
    </contour>
  </outline>
</glyph>
<glyph name="backslash" format="1">
  <advance width="399"/>
  <unicode hex="005C"/>
  <note>
	backslash
  </note>
  <outline>
    <contour>
      <point x="375" y="-62"/>
      <point x="382" y="-55"/>
      <point x="378" y="-47" type="curve" smooth="yes"/>
      <point x="81" y="648" type="line" smooth="yes"/>
      <point x="74" y="663"/>
      <point x="59" y="665"/>
      <point x="42" y="665" type="curve" smooth="yes"/>
      <point x="29" y="665"/>
      <point x="25" y="657"/>
      <point x="29" y="648" type="curve" smooth="yes"/>
      <point x="326" y="-47" type="line" smooth="yes"/>
      <point x="332" y="-61"/>
      <point x="347" y="-62"/>
      <point x="362" y="-62" type="curve" smooth="yes"/>
    </contour>
  </outline>
</glyph>
<glyph name="a" format="1">
  <advance width="399"/>
  <unicode hex="0061"/>
  <note>
	a
  </note>
  <outline>
    <contour>
      <point x="179" y="-14"/>
      <point x="214" y="15"/>
      <point x="242" y="38" type="curve"/>
      <point x="245" y="38" type="line"/>
      <point x="260" y="9"/>
      <point x="281" y="-14"/>
      <point x="318" y="-14" type="curve" smooth="yes"/>
      <point x="344" y="-14"/>
      <point x="371" y="6"/>
      <point x="387" y="21" type="curve" smooth="yes"/>
      <point x="395" y="29"/>
      <point x="398" y="34"/>
      <point x="398" y="37" type="curve" smooth="yes"/>
      <point x="398" y="43"/>
      <point x="392" y="48"/>
      <point x="387" y="48" type="curve" smooth="yes"/>
      <point x="385" y="48"/>
      <point x="383" y="47"/>
      <point x="382" y="46" type="curve"/>
      <point x="371" y="36"/>
      <point x="360" y="32"/>
      <point x="342" y="32" type="curve" smooth="yes"/>
      <point x="321" y="32"/>
      <point x="305" y="56"/>
      <point x="306" y="94" type="curve" smooth="yes"/>
      <point x="311" y="325" type="line" smooth="yes"/>
      <point x="312" y="371"/>
      <point x="281" y="414"/>
      <point x="229" y="414" type="curve" smooth="yes"/>
      <point x="176" y="414"/>
      <point x="111" y="371"/>
      <point x="80" y="343" type="curve" smooth="yes"/>
      <point x="55" y="321"/>
      <point x="40" y="295"/>
      <point x="40" y="274" type="curve" smooth="yes"/>
      <point x="40" y="268"/>
      <point x="45" y="265"/>
      <point x="51" y="265" type="curve" smooth="yes"/>
      <point x="64" y="265"/>
      <point x="117" y="286"/>
      <point x="117" y="300" type="curve" smooth="yes"/>
      <point x="117" y="305"/>
      <point x="116" y="309"/>
      <point x="116" y="314" type="curve" smooth="yes"/>
      <point x="116" y="326"/>
      <point x="119" y="334"/>
      <point x="126" y="341" type="curve" smooth="yes"/>
      <point x="138" y="353"/>
      <point x="161" y="365"/>
      <point x="181" y="365" type="curve" smooth="yes"/>
      <point x="219" y="365"/>
      <point x="241" y="336"/>
      <point x="240" y="301" type="curve" smooth="yes"/>
      <point x="238" y="237" type="line" smooth="yes"/>
      <point x="237" y="210"/>
      <point x="236" y="208"/>
      <point x="210" y="197" type="curve" smooth="yes"/>
      <point x="108" y="155" type="line" smooth="yes"/>
      <point x="59" y="135"/>
      <point x="35" y="107"/>
      <point x="35" y="65" type="curve" smooth="yes"/>
      <point x="35" y="26"/>
      <point x="80" y="-14"/>
      <point x="121" y="-14" type="curve" smooth="yes"/>
    </contour>
    <contour>
      <point x="140" y="32"/>
      <point x="115" y="52"/>
      <point x="115" y="87" type="curve" smooth="yes"/>
      <point x="115" y="110"/>
      <point x="138" y="138"/>
      <point x="209" y="164" type="curve" smooth="yes"/>
      <point x="220" y="168"/>
      <point x="226" y="169"/>
      <point x="229" y="169" type="curve" smooth="yes"/>
      <point x="237" y="169"/>
      <point x="239" y="163"/>
      <point x="238" y="148" type="curve" smooth="yes"/>
      <point x="236" y="99" type="line" smooth="yes"/>
      <point x="235" y="74"/>
      <point x="230" y="65"/>
      <point x="223" y="58" type="curve" smooth="yes"/>
      <point x="208" y="43"/>
      <point x="190" y="32"/>
      <point x="164" y="32" type="curve" smooth="yes"/>
    </contour>
  </outline>
</glyph>
<glyph name="e" format="1">
  <advance width="390"/>
  <unicode hex="0065"/>
  <note>
	e
  </note>
  <outline>
    <contour>
      <point x="259" y="-14"/>
      <point x="313" y="14"/>
      <point x="339" y="47" type="curve" smooth="yes"/>
      <point x="350" y="61"/>
      <point x="357" y="75"/>
      <point x="357" y="89" type="curve" smooth="yes"/>
      <point x="357" y="94"/>
      <point x="355" y="98"/>
      <point x="350" y="98" type="curve" smooth="yes"/>
      <point x="347" y="98"/>
      <point x="343" y="96"/>
      <point x="339" y="91" type="curve" smooth="yes"/>
      <point x="313" y="57"/>
      <point x="268" y="46"/>
      <point x="243" y="46" type="curve" smooth="yes"/>
      <point x="153" y="46"/>
      <point x="92" y="130"/>
      <point x="92" y="220" type="curve" smooth="yes"/>
      <point x="92" y="254"/>
      <point x="101" y="257"/>
      <point x="117" y="257" type="curve" smooth="yes"/>
      <point x="325" y="257" type="line" smooth="yes"/>
      <point x="351" y="257"/>
      <point x="360" y="272"/>
      <point x="360" y="302" type="curve" smooth="yes"/>
      <point x="360" y="376"/>
      <point x="306" y="414"/>
      <point x="229" y="414" type="curve" smooth="yes"/>
      <point x="116" y="414"/>
      <point x="30" y="316"/>
      <point x="30" y="203" type="curve" smooth="yes"/>
      <point x="30" y="70"/>
      <point x="107" y="-14"/>
      <point x="198" y="-14" type="curve" smooth="yes"/>
    </contour>
    <contour>
      <point x="116" y="288"/>
      <point x="111" y="295"/>
      <point x="111" y="303" type="curve" smooth="yes"/>
      <point x="111" y="329"/>
      <point x="157" y="383"/>
      <point x="213" y="383" type="curve" smooth="yes"/>
      <point x="252" y="383"/>
      <point x="295" y="361"/>
      <point x="295" y="321" type="curve" smooth="yes"/>
      <point x="295" y="304"/>
      <point x="292" y="294"/>
      <point x="285" y="293" type="curve" smooth="yes"/>
      <point x="263" y="290"/>
      <point x="241" y="288"/>
      <point x="212" y="288" type="curve" smooth="yes"/>
      <point x="130" y="288" type="line" smooth="yes"/>
    </contour>
  </outline>
</glyph>
<glyph name="g" format="1">
  <advance width="435"/>
  <unicode hex="0067"/>
  <note>
	g
  </note>
  <outline>
    <contour>
      <point x="296" y="-290"/>
      <point x="418" y="-187"/>
      <point x="418" y="-77" type="curve" smooth="yes"/>
      <point x="418" y="2"/>
      <point x="322" y="19"/>
      <point x="236" y="24" type="curve" smooth="yes"/>
      <point x="166" y="28"/>
      <point x="106" y="36"/>
      <point x="106" y="69" type="curve" smooth="yes"/>
      <point x="106" y="82"/>
      <point x="136" y="107"/>
      <point x="154" y="124" type="curve"/>
      <point x="124" y="137" type="line"/>
      <point x="105" y="106"/>
      <point x="75" y="90"/>
      <point x="63" y="81" type="curve" smooth="yes"/>
      <point x="49" y="70"/>
      <point x="40" y="59"/>
      <point x="40" y="44" type="curve" smooth="yes"/>
      <point x="40" y="-25"/>
      <point x="125" y="-31"/>
      <point x="207" y="-37" type="curve" smooth="yes"/>
      <point x="295" y="-43"/>
      <point x="357" y="-58"/>
      <point x="357" y="-109" type="curve" smooth="yes"/>
      <point x="357" y="-192"/>
      <point x="287" y="-250"/>
      <point x="209" y="-250" type="curve" smooth="yes"/>
      <point x="130" y="-250"/>
      <point x="86" y="-200"/>
      <point x="86" y="-134" type="curve" smooth="yes"/>
      <point x="86" y="-85"/>
      <point x="138" y="-53"/>
      <point x="167" y="-28" type="curve"/>
      <point x="126" y="-23" type="line"/>
      <point x="106" y="-56"/>
      <point x="80" y="-70"/>
      <point x="58" y="-88" type="curve" smooth="yes"/>
      <point x="43" y="-100"/>
      <point x="11" y="-129"/>
      <point x="11" y="-176" type="curve" smooth="yes"/>
      <point x="11" y="-264"/>
      <point x="111" y="-290"/>
      <point x="195" y="-290" type="curve" smooth="yes"/>
    </contour>
    <contour>
      <point x="150" y="141"/>
      <point x="111" y="207"/>
      <point x="111" y="270" type="curve" smooth="yes"/>
      <point x="111" y="318"/>
      <point x="143" y="386"/>
      <point x="200" y="386" type="curve" smooth="yes"/>
      <point x="256" y="386"/>
      <point x="295" y="325"/>
      <point x="295" y="265" type="curve" smooth="yes"/>
      <point x="295" y="200"/>
      <point x="257" y="141"/>
      <point x="207" y="141" type="curve" smooth="yes"/>
    </contour>
    <contour>
      <point x="286" y="106"/>
      <point x="360" y="192"/>
      <point x="360" y="295" type="curve" smooth="yes"/>
      <point x="360" y="310"/>
      <point x="360" y="330"/>
      <point x="364" y="341" type="curve"/>
      <point x="378" y="343"/>
      <point x="369" y="349"/>
      <point x="426" y="349" type="curve" smooth="yes"/>
      <point x="432" y="349"/>
      <point x="435" y="357"/>
      <point x="435" y="366" type="curve" smooth="yes"/>
      <point x="435" y="375"/>
      <point x="433" y="388"/>
      <point x="426" y="388" type="curve" smooth="yes"/>
      <point x="416" y="388"/>
      <point x="389" y="385"/>
      <point x="373" y="385" type="curve" smooth="yes"/>
      <point x="353" y="385"/>
      <point x="340" y="385"/>
      <point x="320" y="389" type="curve" smooth="yes"/>
      <point x="278" y="397"/>
      <point x="258" y="416"/>
      <point x="213" y="416" type="curve" smooth="yes"/>
      <point x="122" y="416"/>
      <point x="39" y="351"/>
      <point x="39" y="258" type="curve" smooth="yes"/>
      <point x="39" y="176"/>
      <point x="119" y="106"/>
      <point x="197" y="106" type="curve" smooth="yes"/>
    </contour>
    <contour>
      <point x="204" y="440" type="move" name="top"/>
    </contour>
  </outline>
</glyph>
<glyph name="h" format="1">
  <advance width="515"/>
  <unicode hex="0068"/>
  <note>
	h
  </note>
  <outline>
    <contour>
      <point x="79" y="-3"/>
      <point x="85" y="2"/>
      <point x="120" y="2" type="curve" smooth="yes"/>
      <point x="155" y="2"/>
      <point x="156" y="-3"/>
      <point x="196" y="-3" type="curve" smooth="yes"/>
      <point x="211" y="-3"/>
      <point x="216" y="0"/>
      <point x="216" y="8" type="curve" smooth="yes"/>
      <point x="216" y="16"/>
      <point x="208" y="20"/>
      <point x="194" y="24" type="curve" smooth="yes"/>
      <point x="174" y="30"/>
      <point x="156" y="38"/>
      <point x="155" y="65" type="curve" smooth="yes"/>
      <point x="155" y="268" type="line" smooth="yes"/>
      <point x="155" y="309"/>
      <point x="161" y="323"/>
      <point x="182" y="340" type="curve" smooth="yes"/>
      <point x="201" y="355"/>
      <point x="240" y="362"/>
      <point x="265" y="362" type="curve" smooth="yes"/>
      <point x="308" y="362"/>
      <point x="358" y="322"/>
      <point x="358" y="272" type="curve" smooth="yes"/>
      <point x="358" y="68" type="line" smooth="yes"/>
      <point x="358" y="41"/>
      <point x="339" y="31"/>
      <point x="319" y="24" type="curve" smooth="yes"/>
      <point x="304" y="19"/>
      <point x="296" y="17"/>
      <point x="296" y="8" type="curve" smooth="yes"/>
      <point x="296" y="0"/>
      <point x="302" y="-3"/>
      <point x="316" y="-3" type="curve" smooth="yes"/>
      <point x="356" y="-3"/>
      <point x="359" y="2"/>
      <point x="394" y="2" type="curve" smooth="yes"/>
      <point x="429" y="2"/>
      <point x="432" y="-3"/>
      <point x="472" y="-3" type="curve" smooth="yes"/>
      <point x="486" y="-3"/>
      <point x="492" y="0"/>
      <point x="492" y="8" type="curve" smooth="yes"/>
      <point x="492" y="16"/>
      <point x="483" y="20"/>
      <point x="469" y="24" type="curve" smooth="yes"/>
      <point x="449" y="30"/>
      <point x="428" y="41"/>
      <point x="428" y="68" type="curve" smooth="yes"/>
      <point x="428" y="278" type="line" smooth="yes"/>
      <point x="428" y="356"/>
      <point x="379" y="414"/>
      <point x="314" y="414" type="curve" smooth="yes"/>
      <point x="251" y="414"/>
      <point x="193" y="374"/>
      <point x="162" y="351" type="curve"/>
      <point x="157" y="360"/>
      <point x="155" y="367"/>
      <point x="155" y="388" type="curve" smooth="yes"/>
      <point x="155" y="562" type="line" smooth="yes"/>
      <point x="155" y="669"/>
      <point x="164" y="686"/>
      <point x="164" y="698" type="curve" smooth="yes"/>
      <point x="164" y="702"/>
      <point x="161" y="705"/>
      <point x="157" y="705" type="curve" smooth="yes"/>
      <point x="155" y="705"/>
      <point x="153" y="704"/>
      <point x="151" y="703" type="curve" smooth="yes"/>
      <point x="118" y="689"/>
      <point x="68" y="673"/>
      <point x="40" y="664" type="curve" smooth="yes"/>
      <point x="34" y="662"/>
      <point x="32" y="658"/>
      <point x="32" y="652" type="curve" smooth="yes"/>
      <point x="32" y="644"/>
      <point x="35" y="639"/>
      <point x="41" y="638" type="curve" smooth="yes"/>
      <point x="75" y="632"/>
      <point x="85" y="602"/>
      <point x="85" y="566" type="curve" smooth="yes"/>
      <point x="85" y="65" type="line" smooth="yes"/>
      <point x="84" y="38"/>
      <point x="62" y="30"/>
      <point x="42" y="24" type="curve" smooth="yes"/>
      <point x="25" y="19"/>
      <point x="19" y="16"/>
      <point x="19" y="8" type="curve" smooth="yes"/>
      <point x="19" y="0"/>
      <point x="27" y="-3"/>
      <point x="39" y="-3" type="curve" smooth="yes"/>
    </contour>
  </outline>
</glyph>
<glyph name="i" format="1">
  <advance width="245"/>
  <unicode hex="0069"/>
  <note>
	i
  </note>
  <outline>
    <contour>
      <point x="83" y="-3"/>
      <point x="90" y="2"/>
      <point x="125" y="2" type="curve" smooth="yes"/>
      <point x="160" y="2"/>
      <point x="168" y="-3"/>
      <point x="206" y="-3" type="curve" smooth="yes"/>
      <point x="219" y="-3"/>
      <point x="226" y="0"/>
      <point x="226" y="8" type="curve" smooth="yes"/>
      <point x="226" y="18"/>
      <point x="214" y="21"/>
      <point x="203" y="24" type="curve" smooth="yes"/>
      <point x="176" y="31"/>
      <point x="160" y="39"/>
      <point x="160" y="62" type="curve" smooth="yes"/>
      <point x="160" y="294" type="line" smooth="yes"/>
      <point x="160" y="339"/>
      <point x="169" y="413"/>
      <point x="169" y="429" type="curve" smooth="yes"/>
      <point x="169" y="432"/>
      <point x="167" y="434"/>
      <point x="163" y="434" type="curve" smooth="yes"/>
      <point x="159" y="434"/>
      <point x="154" y="431"/>
      <point x="149" y="427" type="curve" smooth="yes"/>
      <point x="132" y="413"/>
      <point x="97" y="389"/>
      <point x="44" y="377" type="curve" smooth="yes"/>
      <point x="38" y="376"/>
      <point x="35" y="372"/>
      <point x="35" y="365" type="curve" smooth="yes"/>
      <point x="35" y="357"/>
      <point x="38" y="353"/>
      <point x="45" y="352" type="curve" smooth="yes"/>
      <point x="79" y="347"/>
      <point x="90" y="315"/>
      <point x="90" y="279" type="curve" smooth="yes"/>
      <point x="90" y="62" type="line" smooth="yes"/>
      <point x="90" y="38"/>
      <point x="75" y="31"/>
      <point x="47" y="24" type="curve" smooth="yes"/>
      <point x="36" y="21"/>
      <point x="24" y="18"/>
      <point x="24" y="8" type="curve" smooth="yes"/>
      <point x="24" y="0"/>
      <point x="32" y="-3"/>
      <point x="44" y="-3" type="curve" smooth="yes"/>
    </contour>
    <contour>
      <point x="145" y="515"/>
      <point x="167" y="537"/>
      <point x="167" y="565" type="curve" smooth="yes"/>
      <point x="167" y="594"/>
      <point x="145" y="616"/>
      <point x="116" y="616" type="curve" smooth="yes"/>
      <point x="88" y="616"/>
      <point x="66" y="594"/>
      <point x="66" y="565" type="curve" smooth="yes"/>
      <point x="66" y="537"/>
      <point x="88" y="515"/>
      <point x="116" y="515" type="curve" smooth="yes"/>
    </contour>
  </outline>
</glyph>
<glyph name="j" format="1">
  <advance width="212"/>
  <unicode hex="006A"/>
  <note>
	j
  </note>
  <outline>
    <contour>
      <point x="26" y="-287"/>
      <point x="89" y="-220"/>
      <point x="114" y="-152" type="curve" smooth="yes"/>
      <point x="143" y="-72"/>
      <point x="144" y="29"/>
      <point x="144" y="91" type="curve" smooth="yes"/>
      <point x="144" y="275" type="line" smooth="yes"/>
      <point x="144" y="320"/>
      <point x="147" y="383"/>
      <point x="151" y="424" type="curve"/>
      <point x="151" y="431"/>
      <point x="148" y="434"/>
      <point x="144" y="434" type="curve" smooth="yes"/>
      <point x="140" y="434"/>
      <point x="137" y="432"/>
      <point x="130" y="427" type="curve" smooth="yes"/>
      <point x="111" y="414"/>
      <point x="75" y="389"/>
      <point x="26" y="377" type="curve" smooth="yes"/>
      <point x="21" y="376"/>
      <point x="17" y="372"/>
      <point x="17" y="365" type="curve" smooth="yes"/>
      <point x="17" y="357"/>
      <point x="20" y="354"/>
      <point x="27" y="352" type="curve" smooth="yes"/>
      <point x="61" y="343"/>
      <point x="71" y="315"/>
      <point x="71" y="279" type="curve" smooth="yes"/>
      <point x="71" y="69" type="line" smooth="yes"/>
      <point x="71" y="0"/>
      <point x="71" y="-136"/>
      <point x="42" y="-197" type="curve" smooth="yes"/>
      <point x="23" y="-237"/>
      <point x="0" y="-254"/>
      <point x="-24" y="-260" type="curve" smooth="yes"/>
      <point x="-31" y="-263"/>
      <point x="-35" y="-267"/>
      <point x="-35" y="-274" type="curve" smooth="yes"/>
      <point x="-35" y="-282"/>
      <point x="-28" y="-287"/>
      <point x="-14" y="-287" type="curve" smooth="yes"/>
    </contour>
    <contour>
      <point x="130" y="514"/>
      <point x="152" y="536"/>
      <point x="152" y="564" type="curve" smooth="yes"/>
      <point x="152" y="593"/>
      <point x="130" y="615"/>
      <point x="101" y="615" type="curve" smooth="yes"/>
      <point x="73" y="615"/>
      <point x="51" y="593"/>
      <point x="51" y="564" type="curve" smooth="yes"/>
      <point x="51" y="536"/>
      <point x="73" y="514"/>
      <point x="101" y="514" type="curve" smooth="yes"/>
    </contour>
  </outline>
</glyph>
<glyph name="k" format="1">
  <advance width="469"/>
  <unicode hex="006B"/>
  <note>
	k
  </note>
  <outline>
    <contour>
      <point x="81" y="-3"/>
      <point x="85" y="2"/>
      <point x="120" y="2" type="curve" smooth="yes"/>
      <point x="155" y="2"/>
      <point x="151" y="-3"/>
      <point x="190" y="-3" type="curve" smooth="yes"/>
      <point x="195" y="-3"/>
      <point x="213" y="-2"/>
      <point x="213" y="8" type="curve" smooth="yes"/>
      <point x="213" y="18"/>
      <point x="201" y="20"/>
      <point x="190" y="24" type="curve" smooth="yes"/>
      <point x="170" y="30"/>
      <point x="155" y="38"/>
      <point x="155" y="65" type="curve" smooth="yes"/>
      <point x="154" y="88"/>
      <point x="154" y="112"/>
      <point x="154" y="135" type="curve" smooth="yes"/>
      <point x="154" y="158"/>
      <point x="154" y="180"/>
      <point x="155" y="199" type="curve"/>
      <point x="155" y="204"/>
      <point x="157" y="206"/>
      <point x="160" y="206" type="curve" smooth="yes"/>
      <point x="164" y="206"/>
      <point x="166" y="204"/>
      <point x="170" y="199" type="curve" smooth="yes"/>
      <point x="291" y="62" type="line"/>
      <point x="295" y="57"/>
      <point x="298" y="52"/>
      <point x="298" y="48" type="curve" smooth="yes"/>
      <point x="298" y="36"/>
      <point x="286" y="30"/>
      <point x="271" y="25" type="curve" smooth="yes"/>
      <point x="262" y="22"/>
      <point x="254" y="17"/>
      <point x="254" y="9" type="curve" smooth="yes"/>
      <point x="254" y="4"/>
      <point x="258" y="0"/>
      <point x="272" y="0" type="curve" smooth="yes"/>
      <point x="340" y="0"/>
      <point x="407" y="-3"/>
      <point x="459" y="-3" type="curve" smooth="yes"/>
      <point x="471" y="-3"/>
      <point x="479" y="-1"/>
      <point x="479" y="8" type="curve" smooth="yes"/>
      <point x="479" y="18"/>
      <point x="463" y="21"/>
      <point x="449" y="26" type="curve" smooth="yes"/>
      <point x="429" y="33"/>
      <point x="396" y="51"/>
      <point x="374" y="72" type="curve" smooth="yes"/>
      <point x="353" y="91"/>
      <point x="278" y="166"/>
      <point x="227" y="230" type="curve" smooth="yes"/>
      <point x="225" y="232"/>
      <point x="224" y="235"/>
      <point x="224" y="237" type="curve" smooth="yes"/>
      <point x="224" y="240"/>
      <point x="226" y="243"/>
      <point x="230" y="247" type="curve" smooth="yes"/>
      <point x="278" y="289"/>
      <point x="345" y="345"/>
      <point x="358" y="353" type="curve" smooth="yes"/>
      <point x="376" y="364"/>
      <point x="399" y="377"/>
      <point x="424" y="384" type="curve" smooth="yes"/>
      <point x="438" y="388"/>
      <point x="449" y="394"/>
      <point x="449" y="402" type="curve" smooth="yes"/>
      <point x="449" y="408"/>
      <point x="444" y="412"/>
      <point x="435" y="412" type="curve" smooth="yes"/>
      <point x="416" y="412"/>
      <point x="375" y="400"/>
      <point x="344" y="400" type="curve" smooth="yes"/>
      <point x="295" y="400" type="line" smooth="yes"/>
      <point x="281" y="400"/>
      <point x="273" y="395"/>
      <point x="273" y="388" type="curve" smooth="yes"/>
      <point x="273" y="382"/>
      <point x="276" y="380"/>
      <point x="285" y="378" type="curve" smooth="yes"/>
      <point x="297" y="375"/>
      <point x="311" y="370"/>
      <point x="311" y="363" type="curve" smooth="yes"/>
      <point x="311" y="360"/>
      <point x="309" y="356"/>
      <point x="302" y="348" type="curve" smooth="yes"/>
      <point x="289" y="333"/>
      <point x="250" y="292"/>
      <point x="196" y="245" type="curve" smooth="yes"/>
      <point x="181" y="232"/>
      <point x="168" y="225"/>
      <point x="160" y="225" type="curve" smooth="yes"/>
      <point x="157" y="225"/>
      <point x="155" y="228"/>
      <point x="155" y="234" type="curve" smooth="yes"/>
      <point x="155" y="562" type="line" smooth="yes"/>
      <point x="155" y="647"/>
      <point x="164" y="682"/>
      <point x="164" y="696" type="curve" smooth="yes"/>
      <point x="164" y="702"/>
      <point x="162" y="705"/>
      <point x="158" y="705" type="curve" smooth="yes"/>
      <point x="155" y="705"/>
      <point x="153" y="704"/>
      <point x="149" y="702" type="curve" smooth="yes"/>
      <point x="119" y="689"/>
      <point x="90" y="676"/>
      <point x="39" y="664" type="curve" smooth="yes"/>
      <point x="34" y="663"/>
      <point x="31" y="658"/>
      <point x="31" y="652" type="curve" smooth="yes"/>
      <point x="31" y="646"/>
      <point x="34" y="640"/>
      <point x="40" y="639" type="curve" smooth="yes"/>
      <point x="73" y="631"/>
      <point x="85" y="613"/>
      <point x="85" y="566" type="curve" smooth="yes"/>
      <point x="85" y="65" type="line" smooth="yes"/>
      <point x="85" y="38"/>
      <point x="62" y="30"/>
      <point x="42" y="24" type="curve" smooth="yes"/>
      <point x="31" y="20"/>
      <point x="19" y="18"/>
      <point x="19" y="8" type="curve" smooth="yes"/>
      <point x="19" y="0"/>
      <point x="27" y="-3"/>
      <point x="42" y="-3" type="curve" smooth="yes"/>
    </contour>
    <contour>
      <point x="234" y="-30" type="move" name="bottom"/>
    </contour>
  </outline>
</glyph>
<glyph name="l" format="1">
  <advance width="240"/>
  <unicode hex="006C"/>
  <note>
	l
  </note>
  <outline>
    <contour>
      <point x="78" y="-3"/>
      <point x="85" y="2"/>
      <point x="120" y="2" type="curve" smooth="yes"/>
      <point x="155" y="2"/>
      <point x="162" y="-3"/>
      <point x="201" y="-3" type="curve" smooth="yes"/>
      <point x="208" y="-3"/>
      <point x="221" y="-2"/>
      <point x="221" y="6" type="curve" smooth="yes"/>
      <point x="221" y="16"/>
      <point x="209" y="20"/>
      <point x="198" y="24" type="curve"/>
      <point x="178" y="30"/>
      <point x="155" y="35"/>
      <point x="155" y="62" type="curve" smooth="yes"/>
      <point x="155" y="562" type="line" smooth="yes"/>
      <point x="155" y="652"/>
      <point x="162" y="686"/>
      <point x="162" y="698" type="curve" smooth="yes"/>
      <point x="162" y="701"/>
      <point x="160" y="705"/>
      <point x="157" y="705" type="curve" smooth="yes"/>
      <point x="155" y="705"/>
      <point x="153" y="704"/>
      <point x="151" y="703" type="curve" smooth="yes"/>
      <point x="119" y="691"/>
      <point x="89" y="676"/>
      <point x="38" y="664" type="curve" smooth="yes"/>
      <point x="34" y="663"/>
      <point x="31" y="658"/>
      <point x="31" y="652" type="curve" smooth="yes"/>
      <point x="31" y="646"/>
      <point x="34" y="640"/>
      <point x="39" y="639" type="curve" smooth="yes"/>
      <point x="72" y="632"/>
      <point x="85" y="605"/>
      <point x="85" y="566" type="curve" smooth="yes"/>
      <point x="85" y="62" type="line" smooth="yes"/>
      <point x="85" y="35"/>
      <point x="62" y="30"/>
      <point x="42" y="24" type="curve"/>
      <point x="31" y="20"/>
      <point x="19" y="16"/>
      <point x="19" y="6" type="curve" smooth="yes"/>
      <point x="19" y="-2"/>
      <point x="32" y="-3"/>
      <point x="39" y="-3" type="curve" smooth="yes"/>
    </contour>
    <contour>
      <point x="121" y="-30" type="move" name="bottom"/>
    </contour>
  </outline>
</glyph>
<glyph name="m" format="1">
  <advance width="778"/>
  <unicode hex="006D"/>
  <note>
	m
  </note>
  <outline>
    <contour>
      <point x="84" y="-3"/>
      <point x="90" y="2"/>
      <point x="125" y="2" type="curve" smooth="yes"/>
      <point x="160" y="2"/>
      <point x="166" y="-3"/>
      <point x="206" y="-3" type="curve" smooth="yes"/>
      <point x="218" y="-3"/>
      <point x="226" y="0"/>
      <point x="226" y="8" type="curve" smooth="yes"/>
      <point x="226" y="18"/>
      <point x="214" y="20"/>
      <point x="203" y="24" type="curve" smooth="yes"/>
      <point x="183" y="30"/>
      <point x="160" y="35"/>
      <point x="160" y="62" type="curve" smooth="yes"/>
      <point x="160" y="268" type="line" smooth="yes"/>
      <point x="160" y="302"/>
      <point x="168" y="326"/>
      <point x="187" y="340" type="curve" smooth="yes"/>
      <point x="212" y="360"/>
      <point x="240" y="367"/>
      <point x="274" y="367" type="curve" smooth="yes"/>
      <point x="317" y="367"/>
      <point x="354" y="320"/>
      <point x="354" y="272" type="curve" smooth="yes"/>
      <point x="354" y="62" type="line" smooth="yes"/>
      <point x="354" y="35"/>
      <point x="330" y="30"/>
      <point x="310" y="24" type="curve" smooth="yes"/>
      <point x="299" y="20"/>
      <point x="287" y="18"/>
      <point x="287" y="8" type="curve" smooth="yes"/>
      <point x="287" y="0"/>
      <point x="296" y="-3"/>
      <point x="307" y="-3" type="curve" smooth="yes"/>
      <point x="347" y="-3"/>
      <point x="355" y="2"/>
      <point x="390" y="2" type="curve" smooth="yes"/>
      <point x="425" y="2"/>
      <point x="432" y="-3"/>
      <point x="472" y="-3" type="curve" smooth="yes"/>
      <point x="485" y="-3"/>
      <point x="492" y="0"/>
      <point x="492" y="8" type="curve" smooth="yes"/>
      <point x="492" y="17"/>
      <point x="482" y="21"/>
      <point x="469" y="24" type="curve" smooth="yes"/>
      <point x="449" y="29"/>
      <point x="424" y="35"/>
      <point x="424" y="62" type="curve" smooth="yes"/>
      <point x="424" y="268" type="line" smooth="yes"/>
      <point x="424" y="303"/>
      <point x="434" y="326"/>
      <point x="452" y="340" type="curve" smooth="yes"/>
      <point x="477" y="360"/>
      <point x="505" y="367"/>
      <point x="539" y="367" type="curve" smooth="yes"/>
      <point x="582" y="367"/>
      <point x="619" y="320"/>
      <point x="619" y="272" type="curve" smooth="yes"/>
      <point x="619" y="62" type="line" smooth="yes"/>
      <point x="619" y="35"/>
      <point x="597" y="29"/>
      <point x="576" y="24" type="curve" smooth="yes"/>
      <point x="563" y="21"/>
      <point x="553" y="18"/>
      <point x="553" y="8" type="curve" smooth="yes"/>
      <point x="553" y="0"/>
      <point x="561" y="-3"/>
      <point x="573" y="-3" type="curve" smooth="yes"/>
      <point x="613" y="-3"/>
      <point x="621" y="2"/>
      <point x="656" y="2" type="curve" smooth="yes"/>
      <point x="691" y="2"/>
      <point x="695" y="-3"/>
      <point x="735" y="-3" type="curve" smooth="yes"/>
      <point x="750" y="-3"/>
      <point x="755" y="0"/>
      <point x="755" y="8" type="curve" smooth="yes"/>
      <point x="755" y="17"/>
      <point x="745" y="20"/>
      <point x="732" y="24" type="curve" smooth="yes"/>
      <point x="712" y="30"/>
      <point x="689" y="35"/>
      <point x="689" y="62" type="curve" smooth="yes"/>
      <point x="689" y="275" type="line" smooth="yes"/>
      <point x="689" y="345"/>
      <point x="654" y="414"/>
      <point x="589" y="414" type="curve" smooth="yes"/>
      <point x="524" y="414"/>
      <point x="469" y="383"/>
      <point x="426" y="345" type="curve"/>
      <point x="423" y="345" type="line"/>
      <point x="402" y="396"/>
      <point x="371" y="414"/>
      <point x="323" y="414" type="curve" smooth="yes"/>
      <point x="246" y="414"/>
      <point x="197" y="376"/>
      <point x="167" y="347" type="curve"/>
      <point x="165" y="347" type="line"/>
      <point x="164" y="348"/>
      <point x="163" y="353"/>
      <point x="163" y="359" type="curve" smooth="yes"/>
      <point x="163" y="378"/>
      <point x="168" y="414"/>
      <point x="168" y="423" type="curve" smooth="yes"/>
      <point x="168" y="427"/>
      <point x="165" y="430"/>
      <point x="162" y="430" type="curve" smooth="yes"/>
      <point x="158" y="430"/>
      <point x="155" y="427"/>
      <point x="153" y="426" type="curve" smooth="yes"/>
      <point x="117" y="403"/>
      <point x="105" y="387"/>
      <point x="51" y="374" type="curve" smooth="yes"/>
      <point x="46" y="373"/>
      <point x="43" y="370"/>
      <point x="43" y="362" type="curve" smooth="yes"/>
      <point x="43" y="354"/>
      <point x="46" y="350"/>
      <point x="52" y="349" type="curve" smooth="yes"/>
      <point x="86" y="343"/>
      <point x="90" y="313"/>
      <point x="90" y="277" type="curve" smooth="yes"/>
      <point x="90" y="62" type="line" smooth="yes"/>
      <point x="90" y="35"/>
      <point x="66" y="30"/>
      <point x="47" y="24" type="curve" smooth="yes"/>
      <point x="34" y="20"/>
      <point x="24" y="17"/>
      <point x="24" y="8" type="curve" smooth="yes"/>
      <point x="24" y="-1"/>
      <point x="33" y="-3"/>
      <point x="44" y="-3" type="curve" smooth="yes"/>
    </contour>
  </outline>
</glyph>
<glyph name="n" format="1">
  <advance width="528"/>
  <unicode hex="006E"/>
  <note>
	n
  </note>
  <outline>
    <contour>
      <point x="84" y="-3"/>
      <point x="90" y="2"/>
      <point x="125" y="2" type="curve" smooth="yes"/>
      <point x="160" y="2"/>
      <point x="166" y="-3"/>
      <point x="206" y="-3" type="curve" smooth="yes"/>
      <point x="219" y="-3"/>
      <point x="226" y="0"/>
      <point x="226" y="8" type="curve" smooth="yes"/>
      <point x="226" y="16"/>
      <point x="219" y="20"/>
      <point x="203" y="24" type="curve" smooth="yes"/>
      <point x="183" y="29"/>
      <point x="160" y="35"/>
      <point x="160" y="62" type="curve" smooth="yes"/>
      <point x="160" y="268" type="line" smooth="yes"/>
      <point x="160" y="309"/>
      <point x="175" y="331"/>
      <point x="187" y="340" type="curve" smooth="yes"/>
      <point x="212" y="360"/>
      <point x="245" y="366"/>
      <point x="279" y="366" type="curve" smooth="yes"/>
      <point x="333" y="365"/>
      <point x="369" y="330"/>
      <point x="369" y="272" type="curve" smooth="yes"/>
      <point x="369" y="62" type="line" smooth="yes"/>
      <point x="369" y="35"/>
      <point x="346" y="30"/>
      <point x="326" y="24" type="curve" smooth="yes"/>
      <point x="315" y="20"/>
      <point x="303" y="16"/>
      <point x="303" y="6" type="curve" smooth="yes"/>
      <point x="303" y="-2"/>
      <point x="316" y="-3"/>
      <point x="323" y="-3" type="curve" smooth="yes"/>
      <point x="363" y="-3"/>
      <point x="370" y="2"/>
      <point x="405" y="2" type="curve" smooth="yes"/>
      <point x="440" y="2"/>
      <point x="445" y="-3"/>
      <point x="485" y="-3" type="curve" smooth="yes"/>
      <point x="493" y="-3"/>
      <point x="505" y="-2"/>
      <point x="505" y="6" type="curve" smooth="yes"/>
      <point x="505" y="16"/>
      <point x="493" y="20"/>
      <point x="482" y="24" type="curve"/>
      <point x="462" y="30"/>
      <point x="439" y="35"/>
      <point x="439" y="62" type="curve" smooth="yes"/>
      <point x="439" y="275" type="line" smooth="yes"/>
      <point x="439" y="353"/>
      <point x="391" y="414"/>
      <point x="326" y="414" type="curve" smooth="yes"/>
      <point x="263" y="414"/>
      <point x="212" y="392"/>
      <point x="165" y="347" type="curve"/>
      <point x="164" y="348"/>
      <point x="163" y="353"/>
      <point x="163" y="359" type="curve" smooth="yes"/>
      <point x="163" y="378"/>
      <point x="168" y="414"/>
      <point x="168" y="423" type="curve" smooth="yes"/>
      <point x="168" y="427"/>
      <point x="166" y="430"/>
      <point x="163" y="430" type="curve" smooth="yes"/>
      <point x="159" y="430"/>
      <point x="156" y="428"/>
      <point x="152" y="425" type="curve" smooth="yes"/>
      <point x="124" y="404"/>
      <point x="98" y="386"/>
      <point x="52" y="374" type="curve" smooth="yes"/>
      <point x="46" y="373"/>
      <point x="43" y="369"/>
      <point x="43" y="362" type="curve" smooth="yes"/>
      <point x="43" y="354"/>
      <point x="47" y="351"/>
      <point x="53" y="349" type="curve" smooth="yes"/>
      <point x="87" y="340"/>
      <point x="90" y="313"/>
      <point x="90" y="277" type="curve" smooth="yes"/>
      <point x="90" y="62" type="line" smooth="yes"/>
      <point x="90" y="35"/>
      <point x="67" y="29"/>
      <point x="47" y="24" type="curve" smooth="yes"/>
      <point x="32" y="20"/>
      <point x="24" y="18"/>
      <point x="24" y="8" type="curve" smooth="yes"/>
      <point x="24" y="0"/>
      <point x="32" y="-3"/>
      <point x="44" y="-3" type="curve" smooth="yes"/>
    </contour>
    <contour>
      <point x="271" y="440" type="move" name="top"/>
    </contour>
    <contour>
      <point x="266" y="-30" type="move" name="bottom"/>
    </contour>
  </outline>
</glyph>
<glyph name="s" format="1">
  <advance width="323"/>
  <unicode hex="0073"/>
  <note>
	s
  </note>
  <outline>
    <contour>
      <point x="217" y="-14"/>
      <point x="291" y="29"/>
      <point x="291" y="115" type="curve" smooth="yes"/>
      <point x="291" y="180"/>
      <point x="241" y="209"/>
      <point x="194" y="238" type="curve" smooth="yes"/>
      <point x="153" y="263"/>
      <point x="115" y="283"/>
      <point x="115" y="318" type="curve" smooth="yes"/>
      <point x="115" y="365"/>
      <point x="145" y="386"/>
      <point x="178" y="386" type="curve" smooth="yes"/>
      <point x="216" y="386"/>
      <point x="240" y="362"/>
      <point x="258" y="318" type="curve"/>
      <point x="260" y="313"/>
      <point x="269" y="309"/>
      <point x="277" y="309" type="curve" smooth="yes"/>
      <point x="282" y="309"/>
      <point x="287" y="311"/>
      <point x="287" y="316" type="curve" smooth="yes"/>
      <point x="287" y="344"/>
      <point x="278" y="380"/>
      <point x="268" y="395" type="curve"/>
      <point x="255" y="404"/>
      <point x="229" y="414"/>
      <point x="189" y="414" type="curve" smooth="yes"/>
      <point x="91" y="414"/>
      <point x="55" y="354"/>
      <point x="55" y="299" type="curve" smooth="yes"/>
      <point x="55" y="235"/>
      <point x="102" y="204"/>
      <point x="146" y="174" type="curve" smooth="yes"/>
      <point x="186" y="147"/>
      <point x="223" y="134"/>
      <point x="223" y="85" type="curve" smooth="yes"/>
      <point x="223" y="42"/>
      <point x="192" y="13"/>
      <point x="153" y="13" type="curve" smooth="yes"/>
      <point x="114" y="13"/>
      <point x="71" y="38"/>
      <point x="54" y="104" type="curve"/>
      <point x="53" y="109"/>
      <point x="47" y="111"/>
      <point x="42" y="111" type="curve" smooth="yes"/>
      <point x="35" y="111"/>
      <point x="29" y="108"/>
      <point x="29" y="102" type="curve"/>
      <point x="30" y="79"/>
      <point x="33" y="36"/>
      <point x="40" y="22" type="curve"/>
      <point x="65" y="-1"/>
      <point x="103" y="-14"/>
      <point x="144" y="-14" type="curve" smooth="yes"/>
    </contour>
  </outline>
</glyph>
<glyph name="t" format="1">
  <advance width="314"/>
  <unicode hex="0074"/>
  <note>
	t
  </note>
  <outline>
    <contour>
      <point x="250" y="-14"/>
      <point x="306" y="36"/>
      <point x="306" y="47" type="curve" smooth="yes"/>
      <point x="306" y="54"/>
      <point x="304" y="61"/>
      <point x="299" y="61" type="curve" smooth="yes"/>
      <point x="298" y="61"/>
      <point x="296" y="60"/>
      <point x="295" y="59" type="curve" smooth="yes"/>
      <point x="278" y="47"/>
      <point x="260" y="41"/>
      <point x="221" y="41" type="curve" smooth="yes"/>
      <point x="178" y="41"/>
      <point x="155" y="73"/>
      <point x="155" y="127" type="curve" smooth="yes"/>
      <point x="155" y="324" type="line" smooth="yes"/>
      <point x="155" y="351"/>
      <point x="161" y="352"/>
      <point x="195" y="352" type="curve" smooth="yes"/>
      <point x="294" y="352" type="line" smooth="yes"/>
      <point x="299" y="352"/>
      <point x="304" y="366"/>
      <point x="304" y="378" type="curve" smooth="yes"/>
      <point x="304" y="390"/>
      <point x="299" y="400"/>
      <point x="294" y="400" type="curve" smooth="yes"/>
      <point x="180" y="400" type="line" smooth="yes"/>
      <point x="163" y="400"/>
      <point x="153" y="404"/>
      <point x="156" y="419" type="curve" smooth="yes"/>
      <point x="163" y="458" type="line"/>
      <point x="164" y="467"/>
      <point x="156" y="469"/>
      <point x="150" y="469" type="curve" smooth="yes"/>
      <point x="143" y="469"/>
      <point x="139" y="464"/>
      <point x="133" y="457" type="curve" smooth="yes"/>
      <point x="115" y="435"/>
      <point x="80" y="390"/>
      <point x="40" y="379" type="curve"/>
      <point x="38" y="378"/>
      <point x="35" y="375"/>
      <point x="35" y="372" type="curve" smooth="yes"/>
      <point x="35" y="362"/>
      <point x="40" y="352"/>
      <point x="47" y="352" type="curve" smooth="yes"/>
      <point x="53" y="352" type="line"/>
      <point x="79" y="352"/>
      <point x="85" y="348"/>
      <point x="85" y="337" type="curve" smooth="yes"/>
      <point x="85" y="105" type="line" smooth="yes"/>
      <point x="85" y="26"/>
      <point x="124" y="-14"/>
      <point x="189" y="-14" type="curve" smooth="yes"/>
    </contour>
  </outline>
</glyph>
<glyph name="u" format="1">
  <advance width="527"/>
  <unicode hex="0075"/>
  <note>
	u
  </note>
  <outline>
    <contour>
      <point x="372" y="-19"/>
      <point x="382" y="-15"/>
      <point x="386" y="-13" type="curve"/>
      <point x="415" y="-1"/>
      <point x="451" y="14"/>
      <point x="503" y="21" type="curve" smooth="yes"/>
      <point x="511" y="22"/>
      <point x="517" y="24"/>
      <point x="517" y="35" type="curve" smooth="yes"/>
      <point x="517" y="47"/>
      <point x="509" y="48"/>
      <point x="502" y="48" type="curve" smooth="yes"/>
      <point x="492" y="48"/>
      <point x="466" y="45"/>
      <point x="456" y="45" type="curve" smooth="yes"/>
      <point x="446" y="45"/>
      <point x="438" y="59"/>
      <point x="438" y="95" type="curve" smooth="yes"/>
      <point x="438" y="326" type="line" smooth="yes"/>
      <point x="438" y="342"/>
      <point x="443" y="388"/>
      <point x="445" y="395" type="curve" smooth="yes"/>
      <point x="446" y="399"/>
      <point x="447" y="402"/>
      <point x="447" y="404" type="curve" smooth="yes"/>
      <point x="447" y="411"/>
      <point x="441" y="415"/>
      <point x="434" y="415" type="curve" smooth="yes"/>
      <point x="431" y="415"/>
      <point x="427" y="414"/>
      <point x="424" y="413" type="curve"/>
      <point x="388" y="403"/>
      <point x="362" y="398"/>
      <point x="301" y="397" type="curve" smooth="yes"/>
      <point x="290" y="397"/>
      <point x="280" y="394"/>
      <point x="280" y="382" type="curve" smooth="yes"/>
      <point x="280" y="368"/>
      <point x="289" y="365"/>
      <point x="301" y="365" type="curve" smooth="yes"/>
      <point x="321" y="365"/>
      <point x="368" y="356"/>
      <point x="368" y="315" type="curve" smooth="yes"/>
      <point x="368" y="132" type="line" smooth="yes"/>
      <point x="368" y="91"/>
      <point x="338" y="68"/>
      <point x="323" y="57" type="curve" smooth="yes"/>
      <point x="298" y="38"/>
      <point x="273" y="37"/>
      <point x="239" y="37" type="curve" smooth="yes"/>
      <point x="196" y="37"/>
      <point x="155" y="80"/>
      <point x="155" y="128" type="curve" smooth="yes"/>
      <point x="155" y="323" type="line" smooth="yes"/>
      <point x="155" y="353"/>
      <point x="157" y="369"/>
      <point x="161" y="400" type="curve" smooth="yes"/>
      <point x="162" y="411"/>
      <point x="157" y="414"/>
      <point x="151" y="414" type="curve" smooth="yes"/>
      <point x="148" y="414"/>
      <point x="147" y="414"/>
      <point x="143" y="413" type="curve" smooth="yes"/>
      <point x="106" y="404"/>
      <point x="89" y="400"/>
      <point x="44" y="397" type="curve" smooth="yes"/>
      <point x="36" y="396"/>
      <point x="29" y="393"/>
      <point x="29" y="381" type="curve" smooth="yes"/>
      <point x="29" y="370"/>
      <point x="35" y="367"/>
      <point x="42" y="365" type="curve"/>
      <point x="72" y="353"/>
      <point x="85" y="337"/>
      <point x="85" y="308" type="curve" smooth="yes"/>
      <point x="85" y="105" type="line" smooth="yes"/>
      <point x="85" y="27"/>
      <point x="134" y="-14"/>
      <point x="199" y="-14" type="curve" smooth="yes"/>
      <point x="261" y="-14"/>
      <point x="312" y="6"/>
      <point x="364" y="57" type="curve"/>
      <point x="364" y="55"/>
      <point x="364" y="53"/>
      <point x="364" y="51" type="curve" smooth="yes"/>
      <point x="364" y="34"/>
      <point x="359" y="2"/>
      <point x="359" y="-11" type="curve" smooth="yes"/>
      <point x="359" y="-16"/>
      <point x="361" y="-19"/>
      <point x="366" y="-19" type="curve" smooth="yes"/>
    </contour>
    <contour>
      <point x="252" y="440" type="move" name="top"/>
    </contour>
  </outline>
</glyph>
<glyph name="v" format="1">
  <advance width="438"/>
  <unicode hex="0076"/>
  <note>
	v
  </note>
  <outline>
    <contour>
      <point x="218" y="-22" type="line"/>
      <point x="225" y="-13"/>
      <point x="243" y="23"/>
      <point x="243" y="23" type="curve" smooth="yes"/>
      <point x="243" y="23"/>
      <point x="275" y="112"/>
      <point x="280" y="123" type="curve" smooth="yes"/>
      <point x="358" y="311" type="line" smooth="yes"/>
      <point x="372" y="344"/>
      <point x="400" y="372"/>
      <point x="420" y="378" type="curve"/>
      <point x="431" y="382"/>
      <point x="443" y="386"/>
      <point x="443" y="396" type="curve" smooth="yes"/>
      <point x="443" y="404"/>
      <point x="430" y="405"/>
      <point x="423" y="405" type="curve" smooth="yes"/>
      <point x="404" y="405"/>
      <point x="399" y="400"/>
      <point x="364" y="400" type="curve" smooth="yes"/>
      <point x="329" y="400"/>
      <point x="306" y="405"/>
      <point x="291" y="405" type="curve" smooth="yes"/>
      <point x="284" y="405"/>
      <point x="271" y="404"/>
      <point x="271" y="396" type="curve" smooth="yes"/>
      <point x="271" y="386"/>
      <point x="283" y="382"/>
      <point x="294" y="378" type="curve"/>
      <point x="308" y="374"/>
      <point x="319" y="356"/>
      <point x="319" y="331" type="curve" smooth="yes"/>
      <point x="319" y="320"/>
      <point x="317" y="308"/>
      <point x="312" y="295" type="curve" smooth="yes"/>
      <point x="236" y="100" type="line"/>
      <point x="235" y="99"/>
      <point x="234" y="99"/>
      <point x="233" y="100" type="curve"/>
      <point x="154" y="310" type="line" smooth="yes"/>
      <point x="151" y="318"/>
      <point x="150" y="328"/>
      <point x="150" y="337" type="curve" smooth="yes"/>
      <point x="150" y="356"/>
      <point x="156" y="374"/>
      <point x="170" y="378" type="curve"/>
      <point x="181" y="382"/>
      <point x="193" y="386"/>
      <point x="193" y="396" type="curve" smooth="yes"/>
      <point x="193" y="404"/>
      <point x="180" y="405"/>
      <point x="173" y="405" type="curve" smooth="yes"/>
      <point x="134" y="405"/>
      <point x="133" y="400"/>
      <point x="98" y="400" type="curve" smooth="yes"/>
      <point x="63" y="400"/>
      <point x="64" y="405"/>
      <point x="25" y="405" type="curve" smooth="yes"/>
      <point x="18" y="405"/>
      <point x="5" y="404"/>
      <point x="5" y="396" type="curve" smooth="yes"/>
      <point x="5" y="386"/>
      <point x="17" y="382"/>
      <point x="28" y="378" type="curve"/>
      <point x="48" y="372"/>
      <point x="64" y="353"/>
      <point x="74" y="329" type="curve" smooth="yes"/>
      <point x="196" y="17" type="line"/>
      <point x="199" y="8"/>
      <point x="211" y="-22"/>
      <point x="216" y="-22" type="curve"/>
    </contour>
  </outline>
</glyph>
<glyph name="w" format="1">
  <advance width="685"/>
  <unicode hex="0077"/>
  <note>
	w
  </note>
  <outline>
    <contour>
      <point x="229" y="-23"/>
      <point x="232" y="-20"/>
      <point x="234" y="-16" type="curve"/>
      <point x="343" y="241" type="line" smooth="yes"/>
      <point x="346" y="248"/>
      <point x="348" y="251"/>
      <point x="350" y="251" type="curve" smooth="yes"/>
      <point x="352" y="250"/>
      <point x="354" y="247"/>
      <point x="356" y="242" type="curve" smooth="yes"/>
      <point x="460" y="-16" type="line"/>
      <point x="462" y="-20"/>
      <point x="465" y="-23"/>
      <point x="468" y="-23" type="curve" smooth="yes"/>
      <point x="472" y="-23"/>
      <point x="475" y="-20"/>
      <point x="477" y="-16" type="curve"/>
      <point x="614" y="312" type="line" smooth="yes"/>
      <point x="627" y="342"/>
      <point x="647" y="372"/>
      <point x="667" y="378" type="curve"/>
      <point x="678" y="382"/>
      <point x="690" y="386"/>
      <point x="690" y="396" type="curve" smooth="yes"/>
      <point x="690" y="404"/>
      <point x="678" y="405"/>
      <point x="670" y="405" type="curve" smooth="yes"/>
      <point x="648" y="405"/>
      <point x="649" y="400"/>
      <point x="612" y="400" type="curve" smooth="yes"/>
      <point x="576" y="400"/>
      <point x="566" y="405"/>
      <point x="537" y="405" type="curve" smooth="yes"/>
      <point x="530" y="405"/>
      <point x="517" y="404"/>
      <point x="517" y="396" type="curve" smooth="yes"/>
      <point x="517" y="386"/>
      <point x="529" y="382"/>
      <point x="540" y="378" type="curve" smooth="yes"/>
      <point x="555" y="373"/>
      <point x="575" y="358"/>
      <point x="575" y="334" type="curve" smooth="yes"/>
      <point x="575" y="325"/>
      <point x="573" y="306"/>
      <point x="568" y="295" type="curve" smooth="yes"/>
      <point x="492" y="118" type="line" smooth="yes"/>
      <point x="489" y="111"/>
      <point x="487" y="108"/>
      <point x="484" y="108" type="curve" smooth="yes"/>
      <point x="482" y="108"/>
      <point x="479" y="112"/>
      <point x="476" y="119" type="curve" smooth="yes"/>
      <point x="401" y="312" type="line" smooth="yes"/>
      <point x="396" y="324"/>
      <point x="394" y="334"/>
      <point x="394" y="342" type="curve" smooth="yes"/>
      <point x="394" y="366"/>
      <point x="413" y="373"/>
      <point x="428" y="378" type="curve" smooth="yes"/>
      <point x="439" y="382"/>
      <point x="451" y="386"/>
      <point x="451" y="396" type="curve" smooth="yes"/>
      <point x="451" y="404"/>
      <point x="438" y="405"/>
      <point x="431" y="405" type="curve" smooth="yes"/>
      <point x="409" y="405"/>
      <point x="384" y="400"/>
      <point x="347" y="400" type="curve" smooth="yes"/>
      <point x="310" y="400"/>
      <point x="290" y="405"/>
      <point x="272" y="405" type="curve" smooth="yes"/>
      <point x="264" y="405"/>
      <point x="252" y="404"/>
      <point x="252" y="396" type="curve" smooth="yes"/>
      <point x="252" y="386"/>
      <point x="264" y="382"/>
      <point x="275" y="378" type="curve" smooth="yes"/>
      <point x="298" y="369"/>
      <point x="326" y="350"/>
      <point x="326" y="321" type="curve" smooth="yes"/>
      <point x="326" y="306"/>
      <point x="325" y="290"/>
      <point x="318" y="273" type="curve" smooth="yes"/>
      <point x="250" y="111" type="line" smooth="yes"/>
      <point x="249" y="108"/>
      <point x="247" y="107"/>
      <point x="245" y="107" type="curve" smooth="yes"/>
      <point x="243" y="107"/>
      <point x="241" y="108"/>
      <point x="240" y="111" type="curve" smooth="yes"/>
      <point x="162" y="312" type="line" smooth="yes"/>
      <point x="159" y="320"/>
      <point x="157" y="329"/>
      <point x="157" y="338" type="curve" smooth="yes"/>
      <point x="157" y="357"/>
      <point x="164" y="374"/>
      <point x="178" y="378" type="curve"/>
      <point x="189" y="382"/>
      <point x="201" y="386"/>
      <point x="201" y="396" type="curve" smooth="yes"/>
      <point x="201" y="404"/>
      <point x="186" y="405"/>
      <point x="181" y="405" type="curve" smooth="yes"/>
      <point x="153" y="405"/>
      <point x="126" y="400"/>
      <point x="98" y="400" type="curve" smooth="yes"/>
      <point x="72" y="400"/>
      <point x="50" y="405"/>
      <point x="25" y="405" type="curve" smooth="yes"/>
      <point x="18" y="405"/>
      <point x="5" y="404"/>
      <point x="5" y="396" type="curve" smooth="yes"/>
      <point x="5" y="386"/>
      <point x="17" y="382"/>
      <point x="28" y="378" type="curve"/>
      <point x="48" y="372"/>
      <point x="70" y="355"/>
      <point x="80" y="329" type="curve" smooth="yes"/>
      <point x="219" y="-16" type="line"/>
      <point x="220" y="-20"/>
      <point x="223" y="-23"/>
      <point x="226" y="-23" type="curve" smooth="yes"/>
    </contour>
  </outline>
</glyph>
<glyph name="x" format="1">
  <advance width="430"/>
  <unicode hex="0078"/>
  <note>
	x
  </note>
  <outline>
    <contour>
      <point x="48" y="-4"/>
      <point x="60" y="1"/>
      <point x="97" y="1" type="curve" smooth="yes"/>
      <point x="113" y="1"/>
      <point x="139" y="-1"/>
      <point x="150" y="-1" type="curve" smooth="yes"/>
      <point x="155" y="-1"/>
      <point x="173" y="-2"/>
      <point x="173" y="8" type="curve" smooth="yes"/>
      <point x="173" y="18"/>
      <point x="161" y="22"/>
      <point x="150" y="26" type="curve"/>
      <point x="140" y="29"/>
      <point x="136" y="39"/>
      <point x="136" y="48" type="curve" smooth="yes"/>
      <point x="136" y="56"/>
      <point x="139" y="64"/>
      <point x="141" y="67" type="curve" smooth="yes"/>
      <point x="207" y="166" type="line" smooth="yes"/>
      <point x="208" y="167"/>
      <point x="212" y="167"/>
      <point x="213" y="166" type="curve" smooth="yes"/>
      <point x="272" y="70" type="line" smooth="yes"/>
      <point x="276" y="63"/>
      <point x="278" y="57"/>
      <point x="278" y="52" type="curve" smooth="yes"/>
      <point x="278" y="38"/>
      <point x="264" y="32"/>
      <point x="250" y="28" type="curve" smooth="yes"/>
      <point x="234" y="24"/>
      <point x="225" y="20"/>
      <point x="225" y="8" type="curve" smooth="yes"/>
      <point x="225" y="3"/>
      <point x="231" y="-2"/>
      <point x="248" y="-2" type="curve" smooth="yes"/>
      <point x="271" y="-2"/>
      <point x="297" y="0"/>
      <point x="321" y="0" type="curve" smooth="yes"/>
      <point x="371" y="0"/>
      <point x="364" y="-4"/>
      <point x="405" y="-4" type="curve" smooth="yes"/>
      <point x="413" y="-4"/>
      <point x="425" y="-3"/>
      <point x="425" y="5" type="curve" smooth="yes"/>
      <point x="425" y="16"/>
      <point x="413" y="20"/>
      <point x="402" y="23" type="curve" smooth="yes"/>
      <point x="382" y="29"/>
      <point x="369" y="39"/>
      <point x="353" y="65" type="curve" smooth="yes"/>
      <point x="256" y="223" type="line" smooth="yes"/>
      <point x="252" y="228"/>
      <point x="253" y="233"/>
      <point x="255" y="236" type="curve" smooth="yes"/>
      <point x="318" y="331" type="line" smooth="yes"/>
      <point x="337" y="358"/>
      <point x="369" y="372"/>
      <point x="389" y="378" type="curve"/>
      <point x="400" y="382"/>
      <point x="412" y="386"/>
      <point x="412" y="396" type="curve" smooth="yes"/>
      <point x="412" y="404"/>
      <point x="400" y="405"/>
      <point x="392" y="405" type="curve" smooth="yes"/>
      <point x="375" y="405"/>
      <point x="366" y="400"/>
      <point x="329" y="400" type="curve" smooth="yes"/>
      <point x="313" y="400"/>
      <point x="289" y="403"/>
      <point x="279" y="403" type="curve" smooth="yes"/>
      <point x="274" y="403"/>
      <point x="256" y="404"/>
      <point x="256" y="394" type="curve" smooth="yes"/>
      <point x="256" y="384"/>
      <point x="268" y="380"/>
      <point x="279" y="376" type="curve"/>
      <point x="289" y="373"/>
      <point x="292" y="367"/>
      <point x="292" y="360" type="curve" smooth="yes"/>
      <point x="292" y="353"/>
      <point x="289" y="345"/>
      <point x="284" y="338" type="curve"/>
      <point x="233" y="261" type="line" smooth="yes"/>
      <point x="230" y="257"/>
      <point x="227" y="256"/>
      <point x="224" y="261" type="curve" smooth="yes"/>
      <point x="178" y="330" type="line"/>
      <point x="170" y="343"/>
      <point x="165" y="355"/>
      <point x="165" y="362" type="curve" smooth="yes"/>
      <point x="165" y="382"/>
      <point x="204" y="376"/>
      <point x="204" y="393" type="curve" smooth="yes"/>
      <point x="204" y="403"/>
      <point x="186" y="402"/>
      <point x="181" y="402" type="curve" smooth="yes"/>
      <point x="158" y="402"/>
      <point x="154" y="400"/>
      <point x="130" y="400" type="curve" smooth="yes"/>
      <point x="81" y="400"/>
      <point x="90" y="404"/>
      <point x="51" y="404" type="curve" smooth="yes"/>
      <point x="46" y="404"/>
      <point x="28" y="405"/>
      <point x="28" y="395" type="curve" smooth="yes"/>
      <point x="28" y="384"/>
      <point x="40" y="380"/>
      <point x="51" y="377" type="curve" smooth="yes"/>
      <point x="71" y="371"/>
      <point x="81" y="361"/>
      <point x="97" y="335" type="curve" smooth="yes"/>
      <point x="179" y="210" type="line" smooth="yes"/>
      <point x="184" y="202"/>
      <point x="186" y="198"/>
      <point x="177" y="187" type="curve"/>
      <point x="100" y="80" type="line" smooth="yes"/>
      <point x="72" y="41"/>
      <point x="53" y="29"/>
      <point x="33" y="23" type="curve" smooth="yes"/>
      <point x="22" y="20"/>
      <point x="10" y="16"/>
      <point x="10" y="5" type="curve" smooth="yes"/>
      <point x="10" y="-3"/>
      <point x="22" y="-4"/>
      <point x="30" y="-4" type="curve" smooth="yes"/>
    </contour>
    <contour>
      <point x="237" y="440" type="move" name="top"/>
    </contour>
  </outline>
</glyph>
<glyph name="y" format="1">
  <advance width="438"/>
  <unicode hex="0079"/>
  <note>
	y
  </note>
  <outline>
    <contour>
      <point x="93" y="-285"/>
      <point x="117" y="-271"/>
      <point x="129" y="-244" type="curve" smooth="yes"/>
      <point x="170" y="-148"/>
      <point x="221" y="-22"/>
      <point x="225" y="-13" type="curve" smooth="yes"/>
      <point x="361" y="311" type="line" smooth="yes"/>
      <point x="374" y="343"/>
      <point x="400" y="372"/>
      <point x="420" y="378" type="curve"/>
      <point x="431" y="382"/>
      <point x="443" y="386"/>
      <point x="443" y="396" type="curve" smooth="yes"/>
      <point x="443" y="404"/>
      <point x="430" y="405"/>
      <point x="423" y="405" type="curve" smooth="yes"/>
      <point x="401" y="405"/>
      <point x="401" y="400"/>
      <point x="364" y="400" type="curve" smooth="yes"/>
      <point x="327" y="400"/>
      <point x="311" y="405"/>
      <point x="293" y="405" type="curve" smooth="yes"/>
      <point x="286" y="405"/>
      <point x="273" y="402"/>
      <point x="273" y="394" type="curve" smooth="yes"/>
      <point x="273" y="384"/>
      <point x="291" y="375"/>
      <point x="302" y="370" type="curve" smooth="yes"/>
      <point x="314" y="365"/>
      <point x="322" y="357"/>
      <point x="322" y="332" type="curve" smooth="yes"/>
      <point x="322" y="322"/>
      <point x="318" y="304"/>
      <point x="314" y="295" type="curve"/>
      <point x="245" y="112" type="line" smooth="yes"/>
      <point x="244" y="109"/>
      <point x="242" y="106"/>
      <point x="240" y="106" type="curve" smooth="yes"/>
      <point x="237" y="106"/>
      <point x="235" y="109"/>
      <point x="234" y="112" type="curve" smooth="yes"/>
      <point x="153" y="312" type="line" smooth="yes"/>
      <point x="150" y="319"/>
      <point x="145" y="332"/>
      <point x="145" y="340" type="curve" smooth="yes"/>
      <point x="145" y="359"/>
      <point x="151" y="368"/>
      <point x="165" y="372" type="curve" smooth="yes"/>
      <point x="176" y="375"/>
      <point x="194" y="384"/>
      <point x="194" y="394" type="curve" smooth="yes"/>
      <point x="194" y="402"/>
      <point x="182" y="405"/>
      <point x="174" y="405" type="curve" smooth="yes"/>
      <point x="134" y="405"/>
      <point x="133" y="400"/>
      <point x="98" y="400" type="curve" smooth="yes"/>
      <point x="63" y="400"/>
      <point x="65" y="405"/>
      <point x="25" y="405" type="curve" smooth="yes"/>
      <point x="18" y="405"/>
      <point x="5" y="404"/>
      <point x="5" y="396" type="curve" smooth="yes"/>
      <point x="5" y="386"/>
      <point x="17" y="382"/>
      <point x="28" y="378" type="curve"/>
      <point x="48" y="372"/>
      <point x="63" y="353"/>
      <point x="73" y="329" type="curve" smooth="yes"/>
      <point x="189" y="36" type="line" smooth="yes"/>
      <point x="192" y="28"/>
      <point x="193" y="18"/>
      <point x="193" y="7" type="curve" smooth="yes"/>
      <point x="193" y="-2"/>
      <point x="192" y="-10"/>
      <point x="190" y="-16" type="curve"/>
      <point x="161" y="-93"/>
      <point x="120" y="-178"/>
      <point x="99" y="-214" type="curve" smooth="yes"/>
      <point x="94" y="-222"/>
      <point x="88" y="-225"/>
      <point x="80" y="-225" type="curve" smooth="yes"/>
      <point x="69" y="-225"/>
      <point x="55" y="-219"/>
      <point x="40" y="-219" type="curve" smooth="yes"/>
      <point x="20" y="-219"/>
      <point x="13" y="-233"/>
      <point x="13" y="-249" type="curve" smooth="yes"/>
      <point x="13" y="-271"/>
      <point x="40" y="-285"/>
      <point x="64" y="-285" type="curve" smooth="yes"/>
    </contour>
    <contour>
      <point x="242" y="440" type="move" name="top"/>
    </contour>
  </outline>
</glyph>
<glyph name="sterling" format="1">
  <advance width="490"/>
  <unicode hex="00A3"/>
  <note>
	sterling
  </note>
  <outline>
    <contour>
      <point x="333" y="313" type="line" smooth="yes"/>
      <point x="348" y="313"/>
      <point x="364" y="332"/>
      <point x="364" y="339" type="curve" smooth="yes"/>
      <point x="364" y="344"/>
      <point x="358" y="351"/>
      <point x="351" y="351" type="curve" smooth="yes"/>
      <point x="55" y="331" type="line" smooth="yes"/>
      <point x="42" y="330"/>
      <point x="31" y="314"/>
      <point x="31" y="305" type="curve" smooth="yes"/>
      <point x="31" y="299"/>
      <point x="38" y="293"/>
      <point x="45" y="293" type="curve" smooth="yes"/>
    </contour>
    <component base="L.script"/>
  </outline>
</glyph>
<glyph name="dieresis" format="1">
  <advance width="317"/>
  <unicode hex="00A8"/>
  <note>
	dieresis
  </note>
  <outline>
    <contour>
      <point x="45" y="593"/>
      <point x="20" y="568"/>
      <point x="20" y="543" type="curve" smooth="yes"/>
      <point x="20" y="518"/>
      <point x="45" y="493"/>
      <point x="70" y="493" type="curve" smooth="yes"/>
      <point x="95" y="493"/>
      <point x="120" y="518"/>
      <point x="120" y="543" type="curve" smooth="yes"/>
      <point x="120" y="568"/>
      <point x="95" y="593"/>
      <point x="70" y="593" type="curve" smooth="yes"/>
    </contour>
    <contour>
      <point x="222" y="593"/>
      <point x="197" y="568"/>
      <point x="197" y="543" type="curve" smooth="yes"/>
      <point x="197" y="518"/>
      <point x="222" y="493"/>
      <point x="247" y="493" type="curve" smooth="yes"/>
      <point x="272" y="493"/>
      <point x="297" y="518"/>
      <point x="297" y="543" type="curve" smooth="yes"/>
      <point x="297" y="568"/>
      <point x="272" y="593"/>
      <point x="247" y="593" type="curve" smooth="yes"/>
    </contour>
    <contour>
      <point x="159" y="440" type="move" name="_top"/>
    </contour>
  </outline>
</glyph>
<glyph name="ordfeminine" format="1">
  <advance width="270"/>
  <unicode hex="00AA"/>
  <note>
	ordfeminine
  </note>
  <outline>
    <contour>
      <point x="49" y="196" type="line" smooth="yes"/>
      <point x="36" y="196"/>
      <point x="25" y="182"/>
      <point x="25" y="173" type="curve" smooth="yes"/>
      <point x="25" y="167"/>
      <point x="32" y="161"/>
      <point x="39" y="161" type="curve" smooth="yes"/>
      <point x="237" y="161" type="line" smooth="yes"/>
      <point x="252" y="161"/>
      <point x="261" y="169"/>
      <point x="268" y="182" type="curve"/>
      <point x="268" y="183"/>
      <point x="269" y="184"/>
      <point x="269" y="185" type="curve" smooth="yes"/>
      <point x="269" y="191"/>
      <point x="261" y="196"/>
      <point x="255" y="196" type="curve" smooth="yes"/>
    </contour>
    <component base="a.ordn" yOffset="-7"/>
  </outline>
</glyph>
<glyph name="macron" format="1">
  <advance width="300"/>
  <unicode hex="00AF"/>
  <note>
	macron
  </note>
  <outline>
    <contour>
      <point x="54" y="556" type="line" smooth="yes"/>
      <point x="35" y="556"/>
      <point x="30" y="522"/>
      <point x="30" y="513" type="curve" smooth="yes"/>
      <point x="30" y="507"/>
      <point x="37" y="501"/>
      <point x="44" y="501" type="curve" smooth="yes"/>
      <point x="239" y="501" type="line" smooth="yes"/>
      <point x="260" y="501"/>
      <point x="270" y="522"/>
      <point x="270" y="544" type="curve" smooth="yes"/>
      <point x="270" y="550"/>
      <point x="263" y="556"/>
      <point x="257" y="556" type="curve" smooth="yes"/>
    </contour>
    <contour>
      <point x="150" y="440" type="move" name="_top"/>
    </contour>
  </outline>
</glyph>
<glyph name="AE" format="1">
  <advance width="866"/>
  <unicode hex="00C6"/>
  <note>
	AE
  </note>
  <outline>
    <contour>
      <point x="57" y="-5"/>
      <point x="105" y="1"/>
      <point x="150" y="1" type="curve" smooth="yes"/>
      <point x="186" y="1"/>
      <point x="221" y="-1"/>
      <point x="239" y="-1" type="curve" smooth="yes"/>
      <point x="256" y="-1"/>
      <point x="268" y="2"/>
      <point x="268" y="10" type="curve" smooth="yes"/>
      <point x="268" y="19"/>
      <point x="258" y="24"/>
      <point x="235" y="30" type="curve" smooth="yes"/>
      <point x="206" y="37"/>
      <point x="170" y="50"/>
      <point x="170" y="82" type="curve" smooth="yes"/>
      <point x="170" y="91"/>
      <point x="173" y="101"/>
      <point x="179" y="112" type="curve" smooth="yes"/>
      <point x="211" y="174"/>
      <point x="235" y="217"/>
      <point x="261" y="262" type="curve" smooth="yes"/>
      <point x="268" y="275"/>
      <point x="276" y="285"/>
      <point x="291" y="285" type="curve" smooth="yes"/>
      <point x="432" y="285" type="line" smooth="yes"/>
      <point x="452" y="285"/>
      <point x="454" y="277"/>
      <point x="454" y="267" type="curve" smooth="yes"/>
      <point x="454" y="96" type="line" smooth="yes"/>
      <point x="454" y="50"/>
      <point x="430" y="33"/>
      <point x="381" y="24" type="curve" smooth="yes"/>
      <point x="358" y="20"/>
      <point x="348" y="15"/>
      <point x="348" y="6" type="curve" smooth="yes"/>
      <point x="348" y="-2"/>
      <point x="360" y="-5"/>
      <point x="377" y="-5" type="curve" smooth="yes"/>
      <point x="431" y="-5"/>
      <point x="447" y="1"/>
      <point x="492" y="1" type="curve" smooth="yes"/>
      <point x="606" y="1"/>
      <point x="702" y="-5"/>
      <point x="816" y="-5" type="curve" smooth="yes"/>
      <point x="826" y="-5"/>
      <point x="828" y="4"/>
      <point x="830" y="12" type="curve" smooth="yes"/>
      <point x="838" y="43"/>
      <point x="847" y="77"/>
      <point x="847" y="115" type="curve" smooth="yes"/>
      <point x="847" y="121"/>
      <point x="841" y="125"/>
      <point x="834" y="126" type="curve" smooth="yes"/>
      <point x="827" y="127"/>
      <point x="824" y="124"/>
      <point x="820" y="116" type="curve" smooth="yes"/>
      <point x="812" y="99"/>
      <point x="796" y="67"/>
      <point x="778" y="53" type="curve" smooth="yes"/>
      <point x="765" y="43"/>
      <point x="707" y="35"/>
      <point x="702" y="35" type="curve" smooth="yes"/>
      <point x="598" y="35" type="line" smooth="yes"/>
      <point x="553" y="35"/>
      <point x="533" y="73"/>
      <point x="533" y="111" type="curve" smooth="yes"/>
      <point x="533" y="264" type="line" smooth="yes"/>
      <point x="533" y="280"/>
      <point x="544" y="287"/>
      <point x="556" y="287" type="curve" smooth="yes"/>
      <point x="595" y="287"/>
      <point x="617" y="287"/>
      <point x="659" y="285" type="curve" smooth="yes"/>
      <point x="675" y="284"/>
      <point x="696" y="277"/>
      <point x="706" y="246" type="curve" smooth="yes"/>
      <point x="708" y="239"/>
      <point x="716" y="223"/>
      <point x="729" y="223" type="curve" smooth="yes"/>
      <point x="737" y="223"/>
      <point x="738" y="231"/>
      <point x="738" y="240" type="curve"/>
      <point x="736" y="269"/>
      <point x="735" y="290"/>
      <point x="735" y="313" type="curve" smooth="yes"/>
      <point x="735" y="331"/>
      <point x="736" y="349"/>
      <point x="738" y="372" type="curve" smooth="yes"/>
      <point x="739" y="381"/>
      <point x="730" y="388"/>
      <point x="725" y="388" type="curve" smooth="yes"/>
      <point x="712" y="388"/>
      <point x="708" y="363"/>
      <point x="690" y="347" type="curve" smooth="yes"/>
      <point x="678" y="336"/>
      <point x="665" y="335"/>
      <point x="646" y="334" type="curve" smooth="yes"/>
      <point x="622" y="333"/>
      <point x="592" y="332"/>
      <point x="550" y="332" type="curve" smooth="yes"/>
      <point x="540" y="332"/>
      <point x="533" y="343"/>
      <point x="533" y="354" type="curve" smooth="yes"/>
      <point x="533" y="592" type="line" smooth="yes"/>
      <point x="533" y="610"/>
      <point x="557" y="618"/>
      <point x="568" y="618" type="curve" smooth="yes"/>
      <point x="699" y="618" type="line" smooth="yes"/>
      <point x="724" y="618"/>
      <point x="747" y="612"/>
      <point x="766" y="591" type="curve" smooth="yes"/>
      <point x="775" y="581"/>
      <point x="782" y="564"/>
      <point x="789" y="542" type="curve" smooth="yes"/>
      <point x="791" y="535"/>
      <point x="793" y="532"/>
      <point x="800" y="532" type="curve" smooth="yes"/>
      <point x="806" y="532"/>
      <point x="814" y="535"/>
      <point x="814" y="541" type="curve"/>
      <point x="813" y="576"/>
      <point x="809" y="606"/>
      <point x="802" y="644" type="curve"/>
      <point x="801" y="651"/>
      <point x="791" y="653"/>
      <point x="784" y="653" type="curve" smooth="yes"/>
      <point x="733" y="653"/>
      <point x="584" y="648"/>
      <point x="475" y="648" type="curve" smooth="yes"/>
      <point x="407" y="648"/>
      <point x="342" y="651"/>
      <point x="300" y="651" type="curve" smooth="yes"/>
      <point x="294" y="651"/>
      <point x="290" y="645"/>
      <point x="290" y="639" type="curve" smooth="yes"/>
      <point x="290" y="634"/>
      <point x="293" y="629"/>
      <point x="300" y="626" type="curve"/>
      <point x="388" y="611" type="line"/>
      <point x="401" y="610"/>
      <point x="410" y="602"/>
      <point x="405" y="594" type="curve" smooth="yes"/>
      <point x="132" y="126" type="line" smooth="yes"/>
      <point x="104" y="78"/>
      <point x="62" y="38"/>
      <point x="28" y="28" type="curve" smooth="yes"/>
      <point x="6" y="21"/>
      <point x="-5" y="15"/>
      <point x="-5" y="6" type="curve" smooth="yes"/>
      <point x="-5" y="-2"/>
      <point x="7" y="-5"/>
      <point x="24" y="-5" type="curve" smooth="yes"/>
    </contour>
    <contour>
      <point x="303" y="328"/>
      <point x="298" y="329"/>
      <point x="298" y="333" type="curve" smooth="yes"/>
      <point x="298" y="335"/>
      <point x="299" y="338"/>
      <point x="302" y="343" type="curve" smooth="yes"/>
      <point x="438" y="581" type="line" smooth="yes"/>
      <point x="451" y="604"/>
      <point x="454" y="604"/>
      <point x="454" y="580" type="curve" smooth="yes"/>
      <point x="454" y="343" type="line" smooth="yes"/>
      <point x="454" y="328"/>
      <point x="453" y="328"/>
      <point x="438" y="328" type="curve" smooth="yes"/>
      <point x="314" y="328" type="line" smooth="yes"/>
    </contour>
    <contour>
      <point x="543" y="675" type="move" name="top.cap"/>
    </contour>
  </outline>
</glyph>
<glyph name="Eth" format="1">
  <advance width="754"/>
  <unicode hex="00D0"/>
  <note>
	Eth
  </note>
  <outline>
    <contour>
      <point x="359" y="317" type="line"/>
      <point x="374" y="317"/>
      <point x="383" y="326"/>
      <point x="390" y="339" type="curve"/>
      <point x="390" y="340"/>
      <point x="391" y="341"/>
      <point x="391" y="342" type="curve" smooth="yes"/>
      <point x="391" y="348"/>
      <point x="383" y="353"/>
      <point x="377" y="353" type="curve"/>
      <point x="70" y="353" type="line"/>
      <point x="58" y="353"/>
      <point x="46" y="344"/>
      <point x="46" y="335" type="curve" smooth="yes"/>
      <point x="46" y="329"/>
      <point x="51" y="317"/>
      <point x="60" y="317" type="curve"/>
    </contour>
    <component base="D"/>
  </outline>
</glyph>
<glyph name="ae" format="1">
  <advance width="544"/>
  <unicode hex="00E6"/>
  <note>
	ae
  </note>
  <outline>
    <contour>
      <point x="189" y="-13"/>
      <point x="220" y="22"/>
      <point x="236" y="34" type="curve"/>
      <point x="239" y="37"/>
      <point x="242" y="38"/>
      <point x="244" y="38" type="curve" smooth="yes"/>
      <point x="246" y="38"/>
      <point x="254" y="29"/>
      <point x="257" y="26" type="curve"/>
      <point x="288" y="0"/>
      <point x="327" y="-14"/>
      <point x="366" y="-14" type="curve" smooth="yes"/>
      <point x="442" y="-14"/>
      <point x="485" y="19"/>
      <point x="529" y="83" type="curve"/>
      <point x="530" y="84"/>
      <point x="530" y="86"/>
      <point x="530" y="87" type="curve" smooth="yes"/>
      <point x="530" y="93"/>
      <point x="524" y="98"/>
      <point x="517" y="98" type="curve" smooth="yes"/>
      <point x="514" y="98"/>
      <point x="511" y="97"/>
      <point x="508" y="94" type="curve"/>
      <point x="476" y="57"/>
      <point x="437" y="46"/>
      <point x="397" y="46" type="curve" smooth="yes"/>
      <point x="353" y="46"/>
      <point x="309" y="63"/>
      <point x="309" y="129" type="curve" smooth="yes"/>
      <point x="309" y="185" type="line" smooth="yes"/>
      <point x="309" y="190"/>
      <point x="314" y="200"/>
      <point x="320" y="203" type="curve"/>
      <point x="354" y="218"/>
      <point x="491" y="277"/>
      <point x="504" y="284" type="curve" smooth="yes"/>
      <point x="518" y="291"/>
      <point x="528" y="296"/>
      <point x="528" y="318" type="curve" smooth="yes"/>
      <point x="528" y="383"/>
      <point x="463" y="413"/>
      <point x="411" y="413" type="curve" smooth="yes"/>
      <point x="378" y="413"/>
      <point x="328" y="397"/>
      <point x="304" y="380" type="curve" smooth="yes"/>
      <point x="301" y="378"/>
      <point x="298" y="376"/>
      <point x="297" y="376" type="curve" smooth="yes"/>
      <point x="295" y="376"/>
      <point x="294" y="378"/>
      <point x="292" y="381" type="curve"/>
      <point x="284" y="395"/>
      <point x="249" y="414"/>
      <point x="229" y="414" type="curve" smooth="yes"/>
      <point x="176" y="414"/>
      <point x="111" y="370"/>
      <point x="80" y="342" type="curve" smooth="yes"/>
      <point x="55" y="320"/>
      <point x="40" y="294"/>
      <point x="40" y="273" type="curve" smooth="yes"/>
      <point x="40" y="270"/>
      <point x="42" y="264"/>
      <point x="48" y="264" type="curve" smooth="yes"/>
      <point x="61" y="264"/>
      <point x="117" y="285"/>
      <point x="117" y="299" type="curve" smooth="yes"/>
      <point x="117" y="304"/>
      <point x="116" y="308"/>
      <point x="116" y="313" type="curve" smooth="yes"/>
      <point x="116" y="320"/>
      <point x="117" y="327"/>
      <point x="120" y="332" type="curve" smooth="yes"/>
      <point x="128" y="346"/>
      <point x="157" y="365"/>
      <point x="181" y="365" type="curve" smooth="yes"/>
      <point x="218" y="365"/>
      <point x="241" y="334"/>
      <point x="241" y="299" type="curve" smooth="yes"/>
      <point x="241" y="233" type="line" smooth="yes"/>
      <point x="241" y="217"/>
      <point x="238" y="214"/>
      <point x="212" y="202" type="curve" smooth="yes"/>
      <point x="108" y="155" type="line" smooth="yes"/>
      <point x="59" y="133"/>
      <point x="35" y="107"/>
      <point x="35" y="65" type="curve" smooth="yes"/>
      <point x="35" y="26"/>
      <point x="80" y="-14"/>
      <point x="121" y="-14" type="curve" smooth="yes"/>
    </contour>
    <contour>
      <point x="145" y="32"/>
      <point x="115" y="49"/>
      <point x="115" y="87" type="curve"/>
      <point x="117" y="130"/>
      <point x="184" y="160"/>
      <point x="217" y="169" type="curve" smooth="yes"/>
      <point x="224" y="171"/>
      <point x="229" y="172"/>
      <point x="232" y="172" type="curve" smooth="yes"/>
      <point x="240" y="172"/>
      <point x="240" y="164"/>
      <point x="240" y="148" type="curve" smooth="yes"/>
      <point x="240" y="96" type="line" smooth="yes"/>
      <point x="240" y="71"/>
      <point x="233" y="65"/>
      <point x="226" y="59" type="curve" smooth="yes"/>
      <point x="210" y="45"/>
      <point x="190" y="32"/>
      <point x="164" y="32" type="curve" smooth="yes"/>
    </contour>
    <contour>
      <point x="320" y="242"/>
      <point x="310" y="244"/>
      <point x="310" y="254" type="curve" smooth="yes"/>
      <point x="310" y="321" type="line" smooth="yes"/>
      <point x="311" y="356"/>
      <point x="368" y="378"/>
      <point x="385" y="378" type="curve" smooth="yes"/>
      <point x="428" y="378"/>
      <point x="459" y="344"/>
      <point x="459" y="306" type="curve" smooth="yes"/>
      <point x="459" y="300"/>
      <point x="458" y="294"/>
      <point x="452" y="292" type="curve"/>
      <point x="433" y="284"/>
      <point x="374" y="264"/>
      <point x="325" y="244" type="curve" smooth="yes"/>
    </contour>
    <contour>
      <point x="300" y="440" type="move" name="top"/>
    </contour>
  </outline>
</glyph>
<glyph name="oslash" format="1">
  <advance width="485"/>
  <unicode hex="00F8"/>
  <note>
	oslash
  </note>
  <outline>
    <contour>
      <point x="53" y="-15"/>
      <point x="55" y="-14"/>
      <point x="57" y="-12" type="curve"/>
      <point x="452" y="374" type="line"/>
      <point x="459" y="380"/>
      <point x="463" y="391"/>
      <point x="463" y="400" type="curve" smooth="yes"/>
      <point x="463" y="408"/>
      <point x="459" y="415"/>
      <point x="449" y="415" type="curve" smooth="yes"/>
      <point x="445" y="415"/>
      <point x="441" y="414"/>
      <point x="438" y="411" type="curve"/>
      <point x="36" y="25" type="line"/>
      <point x="30" y="20"/>
      <point x="26" y="12"/>
      <point x="26" y="5" type="curve" smooth="yes"/>
      <point x="26" y="-4"/>
      <point x="38" y="-15"/>
      <point x="50" y="-15" type="curve" smooth="yes"/>
    </contour>
    <component base="o"/>
  </outline>
</glyph>
<glyph name="uni0123" format="1">
  <advance width="435"/>
  <unicode hex="0123"/>
  <note>
	uni0123
  </note>
  <outline>
    <contour>
      <point x="195" y="547"/>
      <point x="183" y="571"/>
      <point x="183" y="592" type="curve" smooth="yes"/>
      <point x="183" y="626"/>
      <point x="217" y="659"/>
      <point x="261" y="668" type="curve" smooth="yes"/>
      <point x="270" y="670"/>
      <point x="275" y="675"/>
      <point x="275" y="679" type="curve" smooth="yes"/>
      <point x="275" y="684"/>
      <point x="269" y="689"/>
      <point x="257" y="689" type="curve" smooth="yes"/>
      <point x="205" y="689"/>
      <point x="131" y="630"/>
      <point x="131" y="566" type="curve" smooth="yes"/>
      <point x="131" y="510"/>
      <point x="166" y="469"/>
      <point x="214" y="469" type="curve" smooth="yes"/>
      <point x="243" y="469"/>
      <point x="261" y="489"/>
      <point x="261" y="505" type="curve" smooth="yes"/>
      <point x="261" y="527"/>
      <point x="243" y="547"/>
      <point x="214" y="547" type="curve" smooth="yes"/>
    </contour>
    <contour>
      <point x="360" y="310"/>
      <point x="360" y="330"/>
      <point x="364" y="341" type="curve"/>
      <point x="378" y="343"/>
      <point x="369" y="349"/>
      <point x="426" y="349" type="curve" smooth="yes"/>
      <point x="432" y="349"/>
      <point x="435" y="357"/>
      <point x="435" y="366" type="curve" smooth="yes"/>
      <point x="435" y="375"/>
      <point x="433" y="388"/>
      <point x="426" y="388" type="curve" smooth="yes"/>
      <point x="416" y="388"/>
      <point x="389" y="385"/>
      <point x="373" y="385" type="curve" smooth="yes"/>
      <point x="353" y="385"/>
      <point x="340" y="385"/>
      <point x="320" y="389" type="curve" smooth="yes"/>
      <point x="278" y="397"/>
      <point x="258" y="416"/>
      <point x="213" y="416" type="curve" smooth="yes"/>
      <point x="122" y="416"/>
      <point x="39" y="351"/>
      <point x="39" y="258" type="curve" smooth="yes"/>
      <point x="39" y="183"/>
      <point x="109" y="130"/>
      <point x="122" y="127" type="curve"/>
      <point x="107" y="104"/>
      <point x="82" y="95"/>
      <point x="63" y="81" type="curve" smooth="yes"/>
      <point x="49" y="70"/>
      <point x="40" y="59"/>
      <point x="40" y="44" type="curve" smooth="yes"/>
      <point x="40" y="-3"/>
      <point x="96" y="-24"/>
      <point x="130" y="-31" type="curve"/>
      <point x="115" y="-55"/>
      <point x="88" y="-72"/>
      <point x="60" y="-90" type="curve"/>
      <point x="43" y="-100"/>
      <point x="11" y="-129"/>
      <point x="11" y="-176" type="curve" smooth="yes"/>
      <point x="11" y="-264"/>
      <point x="111" y="-290"/>
      <point x="195" y="-290" type="curve" smooth="yes"/>
      <point x="296" y="-290"/>
      <point x="418" y="-187"/>
      <point x="418" y="-77" type="curve" smooth="yes"/>
      <point x="418" y="7"/>
      <point x="322" y="16"/>
      <point x="195" y="28" type="curve" smooth="yes"/>
      <point x="163" y="31"/>
      <point x="99" y="41"/>
      <point x="99" y="69" type="curve" smooth="yes"/>
      <point x="99" y="82"/>
      <point x="122" y="102"/>
      <point x="143" y="118" type="curve"/>
      <point x="159" y="109"/>
      <point x="187" y="106"/>
      <point x="197" y="106" type="curve" smooth="yes"/>
      <point x="286" y="106"/>
      <point x="360" y="192"/>
      <point x="360" y="295" type="curve" smooth="yes"/>
    </contour>
    <contour>
      <point x="256" y="386"/>
      <point x="295" y="325"/>
      <point x="295" y="265" type="curve" smooth="yes"/>
      <point x="295" y="200"/>
      <point x="257" y="141"/>
      <point x="207" y="141" type="curve" smooth="yes"/>
      <point x="150" y="141"/>
      <point x="111" y="207"/>
      <point x="111" y="270" type="curve" smooth="yes"/>
      <point x="111" y="318"/>
      <point x="143" y="386"/>
      <point x="200" y="386" type="curve" smooth="yes"/>
    </contour>
    <contour>
      <point x="82" y="-118"/>
      <point x="89" y="-100"/>
      <point x="106" y="-80" type="curve"/>
      <point x="119" y="-67"/>
      <point x="144" y="-42"/>
      <point x="156" y="-34" type="curve"/>
      <point x="162" y="-32"/>
      <point x="172" y="-34"/>
      <point x="179" y="-34" type="curve"/>
      <point x="202" y="-35"/>
      <point x="252" y="-39"/>
      <point x="277" y="-44" type="curve" smooth="yes"/>
      <point x="310" y="-51"/>
      <point x="357" y="-72"/>
      <point x="357" y="-109" type="curve" smooth="yes"/>
      <point x="357" y="-192"/>
      <point x="287" y="-250"/>
      <point x="209" y="-250" type="curve" smooth="yes"/>
      <point x="130" y="-250"/>
      <point x="82" y="-200"/>
      <point x="82" y="-134" type="curve" smooth="yes"/>
    </contour>
  </outline>
</glyph>
<glyph name="lslash" format="1">
  <advance width="280"/>
  <unicode hex="0142"/>
  <note>
	lslash
  </note>
  <outline>
    <contour>
      <point x="133" y="337" type="line"/>
      <point x="149" y="341" type="line"/>
      <point x="232" y="385" type="line" smooth="yes"/>
      <point x="241" y="390"/>
      <point x="250" y="398"/>
      <point x="250" y="405" type="curve" smooth="yes"/>
      <point x="250" y="420"/>
      <point x="245" y="425"/>
      <point x="239" y="425" type="curve" smooth="yes"/>
      <point x="237" y="425"/>
      <point x="234" y="424"/>
      <point x="232" y="423" type="curve" smooth="yes"/>
      <point x="139" y="374" type="line"/>
      <point x="123" y="370" type="line"/>
      <point x="43" y="327" type="line"/>
      <point x="38" y="324"/>
      <point x="30" y="318"/>
      <point x="30" y="309" type="curve" smooth="yes"/>
      <point x="30" y="301"/>
      <point x="42" y="289"/>
      <point x="50" y="293" type="curve" smooth="yes"/>
    </contour>
    <component base="l" xOffset="19"/>
  </outline>
</glyph>
<glyph name="OE" format="1">
  <advance width="933"/>
  <unicode hex="0152"/>
  <note>
	OE
  </note>
  <outline>
    <contour>
      <point x="456" y="-14"/>
      <point x="521" y="7"/>
      <point x="573" y="43" type="curve"/>
      <point x="528" y="92" type="line"/>
      <point x="528" y="36"/>
      <point x="477" y="26"/>
      <point x="391" y="26" type="curve" smooth="yes"/>
      <point x="230" y="26"/>
      <point x="143" y="156"/>
      <point x="143" y="345" type="curve" smooth="yes"/>
      <point x="143" y="514"/>
      <point x="220" y="623"/>
      <point x="370" y="623" type="curve" smooth="yes"/>
      <point x="447" y="623"/>
      <point x="528" y="613"/>
      <point x="528" y="527" type="curve"/>
      <point x="573" y="609" type="line"/>
      <point x="519" y="644"/>
      <point x="454" y="664"/>
      <point x="386" y="664" type="curve" smooth="yes"/>
      <point x="164" y="664"/>
      <point x="45" y="495"/>
      <point x="45" y="315" type="curve" smooth="yes"/>
      <point x="45" y="118"/>
      <point x="201" y="-14"/>
      <point x="377" y="-14" type="curve" smooth="yes"/>
    </contour>
    <component base="E" xOffset="398"/>
    <contour>
      <point x="382" y="675" type="move" name="top.cap"/>
    </contour>
    <contour>
      <point x="372" y="-30" type="move" name="bottom.cap"/>
    </contour>
  </outline>
</glyph>
<glyph name="uni0186" format="1">
  <advance width="639"/>
  <unicode hex="0186"/>
  <note>
	uni0186
  </note>
  <outline>
    <contour>
      <point x="478" y="-12"/>
      <point x="594" y="155"/>
      <point x="594" y="335" type="curve" smooth="yes"/>
      <point x="594" y="532"/>
      <point x="440" y="664"/>
      <point x="266" y="664" type="curve" smooth="yes"/>
      <point x="202" y="664"/>
      <point x="155" y="640"/>
      <point x="121" y="626" type="curve" smooth="yes"/>
      <point x="108" y="621"/>
      <point x="97" y="617"/>
      <point x="87" y="615" type="curve" smooth="yes"/>
      <point x="78" y="613"/>
      <point x="71" y="609"/>
      <point x="69" y="605" type="curve" smooth="yes"/>
      <point x="65" y="599"/>
      <point x="61" y="590"/>
      <point x="57" y="579" type="curve" smooth="yes"/>
      <point x="46" y="549"/>
      <point x="35" y="507"/>
      <point x="35" y="493" type="curve" smooth="yes"/>
      <point x="35" y="484"/>
      <point x="38" y="475"/>
      <point x="46" y="475" type="curve" smooth="yes"/>
      <point x="59" y="475"/>
      <point x="64" y="485"/>
      <point x="69" y="494" type="curve" smooth="yes"/>
      <point x="116" y="586"/>
      <point x="166" y="625"/>
      <point x="251" y="625" type="curve" smooth="yes"/>
      <point x="399" y="625"/>
      <point x="497" y="495"/>
      <point x="497" y="305" type="curve" smooth="yes"/>
      <point x="497" y="134"/>
      <point x="421" y="23"/>
      <point x="268" y="23" type="curve" smooth="yes"/>
      <point x="182" y="23"/>
      <point x="92" y="91"/>
      <point x="65" y="189" type="curve" smooth="yes"/>
      <point x="62" y="199"/>
      <point x="57" y="206"/>
      <point x="53" y="206" type="curve" smooth="yes"/>
      <point x="42" y="206"/>
      <point x="32" y="189"/>
      <point x="32" y="177" type="curve" smooth="yes"/>
      <point x="32" y="141"/>
      <point x="39" y="88"/>
      <point x="50" y="65" type="curve" smooth="yes"/>
      <point x="54" y="56"/>
      <point x="60" y="48"/>
      <point x="71" y="42" type="curve" smooth="yes"/>
      <point x="115" y="16"/>
      <point x="169" y="-12"/>
      <point x="255" y="-12" type="curve" smooth="yes"/>
    </contour>
  </outline>
</glyph>
<glyph name="uni0187" format="1">
  <advance width="660"/>
  <unicode hex="0187"/>
  <note>
	uni0187
  </note>
  <outline>
    <contour>
      <point x="429" y="-15"/>
      <point x="503" y="-11"/>
      <point x="537" y="5" type="curve" smooth="yes"/>
      <point x="561" y="16"/>
      <point x="581" y="18"/>
      <point x="586" y="26" type="curve" smooth="yes"/>
      <point x="599" y="46"/>
      <point x="620" y="122"/>
      <point x="620" y="142" type="curve" smooth="yes"/>
      <point x="620" y="157"/>
      <point x="595" y="155"/>
      <point x="587" y="141" type="curve" smooth="yes"/>
      <point x="561" y="90"/>
      <point x="512" y="16"/>
      <point x="400" y="16" type="curve" smooth="yes"/>
      <point x="244" y="16"/>
      <point x="146" y="184"/>
      <point x="146" y="347" type="curve" smooth="yes"/>
      <point x="146" y="494"/>
      <point x="247" y="632"/>
      <point x="394" y="632" type="curve" smooth="yes"/>
      <point x="486" y="632"/>
      <point x="531" y="591"/>
      <point x="541" y="581" type="curve"/>
      <point x="553" y="570"/>
      <point x="574" y="539"/>
      <point x="581" y="489" type="curve" smooth="yes"/>
      <point x="583" y="476"/>
      <point x="613" y="478"/>
      <point x="613" y="494" type="curve" smooth="yes"/>
      <point x="613" y="546"/>
      <point x="608" y="576"/>
      <point x="607" y="603" type="curve" smooth="yes"/>
      <point x="607" y="607"/>
      <point x="606" y="625"/>
      <point x="607" y="634" type="curve" smooth="yes"/>
      <point x="608" y="640"/>
      <point x="610" y="650"/>
      <point x="615" y="657" type="curve" smooth="yes"/>
      <point x="624" y="670"/>
      <point x="629" y="683"/>
      <point x="651" y="683" type="curve" smooth="yes"/>
      <point x="700" y="683"/>
      <point x="696" y="645"/>
      <point x="723" y="645" type="curve" smooth="yes"/>
      <point x="742" y="645"/>
      <point x="760" y="655"/>
      <point x="760" y="677" type="curve" smooth="yes"/>
      <point x="760" y="702"/>
      <point x="720" y="725"/>
      <point x="681" y="725" type="curve" smooth="yes"/>
      <point x="639" y="725"/>
      <point x="593" y="704"/>
      <point x="577" y="649" type="curve" smooth="yes"/>
      <point x="574" y="640"/>
      <point x="571" y="639"/>
      <point x="566" y="639" type="curve" smooth="yes"/>
      <point x="537" y="639"/>
      <point x="507" y="663"/>
      <point x="410" y="663" type="curve" smooth="yes"/>
      <point x="216" y="663"/>
      <point x="46" y="517"/>
      <point x="46" y="323" type="curve" smooth="yes"/>
      <point x="46" y="141"/>
      <point x="187" y="-15"/>
      <point x="369" y="-15" type="curve" smooth="yes"/>
    </contour>
  </outline>
</glyph>
<glyph name="uni018A" format="1">
  <advance width="769"/>
  <unicode hex="018A"/>
  <note>
	uni018A
  </note>
  <outline>
    <contour>
      <point x="608" y="-7"/>
      <point x="734" y="135"/>
      <point x="734" y="353" type="curve" smooth="yes"/>
      <point x="734" y="556"/>
      <point x="615" y="656"/>
      <point x="354" y="656" type="curve" smooth="yes"/>
      <point x="115" y="656"/>
      <point x="0" y="627"/>
      <point x="0" y="537" type="curve" smooth="yes"/>
      <point x="0" y="500"/>
      <point x="27" y="459"/>
      <point x="54" y="459" type="curve" smooth="yes"/>
      <point x="70" y="459"/>
      <point x="100" y="478"/>
      <point x="100" y="502" type="curve" smooth="yes"/>
      <point x="100" y="525"/>
      <point x="66" y="524"/>
      <point x="66" y="557" type="curve" smooth="yes"/>
      <point x="66" y="582"/>
      <point x="112" y="613"/>
      <point x="142" y="613" type="curve" smooth="yes"/>
      <point x="172" y="613"/>
      <point x="175" y="597"/>
      <point x="175" y="550" type="curve" smooth="yes"/>
      <point x="175" y="99" type="line" smooth="yes"/>
      <point x="175" y="51"/>
      <point x="158" y="33"/>
      <point x="108" y="24" type="curve" smooth="yes"/>
      <point x="85" y="20"/>
      <point x="75" y="15"/>
      <point x="75" y="6" type="curve" smooth="yes"/>
      <point x="75" y="-2"/>
      <point x="87" y="-5"/>
      <point x="104" y="-5" type="curve" smooth="yes"/>
      <point x="157" y="-5"/>
      <point x="169" y="0"/>
      <point x="209" y="0" type="curve" smooth="yes"/>
      <point x="288" y="0"/>
      <point x="397" y="-7"/>
      <point x="417" y="-7" type="curve" smooth="yes"/>
    </contour>
    <contour>
      <point x="408" y="28"/>
      <point x="317" y="29"/>
      <point x="291" y="44" type="curve" smooth="yes"/>
      <point x="268" y="58"/>
      <point x="256" y="80"/>
      <point x="256" y="121" type="curve" smooth="yes"/>
      <point x="256" y="551" type="line" smooth="yes"/>
      <point x="256" y="611"/>
      <point x="267" y="624"/>
      <point x="343" y="624" type="curve" smooth="yes"/>
      <point x="567" y="624"/>
      <point x="639" y="496"/>
      <point x="639" y="323" type="curve" smooth="yes"/>
      <point x="639" y="154"/>
      <point x="581" y="28"/>
      <point x="433" y="28" type="curve" smooth="yes"/>
    </contour>
  </outline>
</glyph>
<glyph name="uni0196" format="1">
  <advance width="349"/>
  <unicode hex="0196"/>
  <note>
	uni0196
  </note>
  <outline>
    <contour>
      <point x="299" y="-11"/>
      <point x="342" y="22"/>
      <point x="357" y="43" type="curve" smooth="yes"/>
      <point x="362" y="49"/>
      <point x="364" y="54"/>
      <point x="364" y="64" type="curve" smooth="yes"/>
      <point x="364" y="79"/>
      <point x="358" y="84"/>
      <point x="350" y="84" type="curve" smooth="yes"/>
      <point x="345" y="84"/>
      <point x="340" y="81"/>
      <point x="336" y="77" type="curve" smooth="yes"/>
      <point x="319" y="61"/>
      <point x="292" y="36"/>
      <point x="263" y="36" type="curve" smooth="yes"/>
      <point x="216" y="36"/>
      <point x="199" y="76"/>
      <point x="199" y="179" type="curve" smooth="yes"/>
      <point x="199" y="550" type="line" smooth="yes"/>
      <point x="199" y="597"/>
      <point x="220" y="613"/>
      <point x="270" y="622" type="curve" smooth="yes"/>
      <point x="293" y="626"/>
      <point x="303" y="633"/>
      <point x="303" y="642" type="curve" smooth="yes"/>
      <point x="303" y="650"/>
      <point x="291" y="653"/>
      <point x="274" y="653" type="curve" smooth="yes"/>
      <point x="220" y="653"/>
      <point x="208" y="650"/>
      <point x="165" y="650" type="curve" smooth="yes"/>
      <point x="119" y="650"/>
      <point x="102" y="653"/>
      <point x="48" y="653" type="curve" smooth="yes"/>
      <point x="31" y="653"/>
      <point x="19" y="650"/>
      <point x="19" y="642" type="curve" smooth="yes"/>
      <point x="19" y="633"/>
      <point x="29" y="626"/>
      <point x="52" y="622" type="curve" smooth="yes"/>
      <point x="102" y="613"/>
      <point x="119" y="597"/>
      <point x="119" y="550" type="curve" smooth="yes"/>
      <point x="119" y="120" type="line" smooth="yes"/>
      <point x="119" y="42"/>
      <point x="158" y="-11"/>
      <point x="236" y="-11" type="curve" smooth="yes"/>
    </contour>
  </outline>
</glyph>
<glyph name="Ohorn" format="1">
  <advance width="763"/>
  <unicode hex="01A0"/>
  <note>
	Ohorn
  </note>
  <outline>
    <contour>
      <point x="535" y="625"/>
      <point x="621" y="495"/>
      <point x="621" y="305" type="curve" smooth="yes"/>
      <point x="621" y="134"/>
      <point x="545" y="25"/>
      <point x="395" y="25" type="curve" smooth="yes"/>
      <point x="247" y="25"/>
      <point x="142" y="179"/>
      <point x="142" y="350" type="curve" smooth="yes"/>
      <point x="142" y="490"/>
      <point x="227" y="625"/>
      <point x="375" y="625" type="curve" smooth="yes"/>
    </contour>
    <contour>
      <point x="702" y="547"/>
      <point x="777" y="584"/>
      <point x="777" y="661" type="curve" smooth="yes"/>
      <point x="777" y="684"/>
      <point x="757" y="721"/>
      <point x="739" y="721" type="curve" smooth="yes"/>
      <point x="717" y="721"/>
      <point x="679" y="688"/>
      <point x="679" y="663" type="curve" smooth="yes"/>
      <point x="679" y="630"/>
      <point x="721" y="647"/>
      <point x="721" y="615" type="curve" smooth="yes"/>
      <point x="721" y="601"/>
      <point x="695" y="589"/>
      <point x="670" y="589" type="curve" smooth="yes"/>
      <point x="662" y="589"/>
      <point x="636" y="596"/>
      <point x="629" y="598" type="curve"/>
      <point x="587" y="608"/>
      <point x="523" y="664"/>
      <point x="382" y="664" type="curve" smooth="yes"/>
      <point x="163" y="664"/>
      <point x="45" y="500"/>
      <point x="45" y="320" type="curve" smooth="yes"/>
      <point x="45" y="130"/>
      <point x="205" y="-14"/>
      <point x="382" y="-14" type="curve" smooth="yes"/>
      <point x="601" y="-14"/>
      <point x="718" y="155"/>
      <point x="718" y="335" type="curve" smooth="yes"/>
      <point x="718" y="421"/>
      <point x="694" y="474"/>
      <point x="654" y="534" type="curve"/>
      <point x="651" y="539"/>
      <point x="653" y="547"/>
      <point x="667" y="547" type="curve" smooth="yes"/>
    </contour>
    <component base="O"/>
  </outline>
</glyph>
<glyph name="uni01A4" format="1">
  <advance width="601"/>
  <unicode hex="01A4"/>
  <note>
	uni01A4
  </note>
  <outline>
    <contour>
      <point x="150" y="-5"/>
      <point x="175" y="2"/>
      <point x="226" y="2" type="curve" smooth="yes"/>
      <point x="264" y="2"/>
      <point x="270" y="-5"/>
      <point x="324" y="-5" type="curve" smooth="yes"/>
      <point x="341" y="-5"/>
      <point x="353" y="-2"/>
      <point x="353" y="6" type="curve" smooth="yes"/>
      <point x="353" y="15"/>
      <point x="343" y="20"/>
      <point x="320" y="24" type="curve" smooth="yes"/>
      <point x="270" y="33"/>
      <point x="253" y="63"/>
      <point x="253" y="111" type="curve" smooth="yes"/>
      <point x="253" y="586" type="line" smooth="yes"/>
      <point x="253" y="616"/>
      <point x="279" y="625"/>
      <point x="317" y="625" type="curve" smooth="yes"/>
      <point x="392" y="625"/>
      <point x="492" y="577"/>
      <point x="492" y="467" type="curve" smooth="yes"/>
      <point x="492" y="357"/>
      <point x="441" y="279"/>
      <point x="337" y="279" type="curve" smooth="yes"/>
      <point x="328" y="279"/>
      <point x="321" y="279"/>
      <point x="315" y="280" type="curve" smooth="yes"/>
      <point x="308" y="280"/>
      <point x="301" y="275"/>
      <point x="301" y="269" type="curve" smooth="yes"/>
      <point x="301" y="257"/>
      <point x="335" y="254"/>
      <point x="351" y="254" type="curve" smooth="yes"/>
      <point x="500" y="254"/>
      <point x="580" y="346"/>
      <point x="580" y="484" type="curve" smooth="yes"/>
      <point x="580" y="619"/>
      <point x="447" y="657"/>
      <point x="275" y="657" type="curve" smooth="yes"/>
      <point x="140" y="657"/>
      <point x="5" y="622"/>
      <point x="5" y="532" type="curve" smooth="yes"/>
      <point x="5" y="495"/>
      <point x="32" y="459"/>
      <point x="59" y="459" type="curve" smooth="yes"/>
      <point x="75" y="459"/>
      <point x="105" y="478"/>
      <point x="105" y="502" type="curve" smooth="yes"/>
      <point x="105" y="525"/>
      <point x="71" y="524"/>
      <point x="71" y="557" type="curve" smooth="yes"/>
      <point x="71" y="582"/>
      <point x="109" y="613"/>
      <point x="139" y="613" type="curve" smooth="yes"/>
      <point x="169" y="613"/>
      <point x="173" y="597"/>
      <point x="173" y="548" type="curve" smooth="yes"/>
      <point x="173" y="100" type="line" smooth="yes"/>
      <point x="173" y="51"/>
      <point x="150" y="33"/>
      <point x="100" y="24" type="curve" smooth="yes"/>
      <point x="77" y="20"/>
      <point x="67" y="15"/>
      <point x="67" y="6" type="curve" smooth="yes"/>
      <point x="67" y="-2"/>
      <point x="79" y="-5"/>
      <point x="96" y="-5" type="curve" smooth="yes"/>
    </contour>
  </outline>
</glyph>
<glyph name="uni01AB" format="1">
  <advance width="314"/>
  <unicode hex="01AB"/>
  <note>
	uni01AB
  </note>
  <outline>
    <contour>
      <point x="196" y="-288"/>
      <point x="255" y="-259"/>
      <point x="284" y="-173" type="curve" smooth="yes"/>
      <point x="299" y="-129"/>
      <point x="306" y="-21"/>
      <point x="306" y="41" type="curve"/>
      <point x="306" y="47" type="line"/>
      <point x="306" y="53"/>
      <point x="304" y="61"/>
      <point x="300" y="61" type="curve" smooth="yes"/>
      <point x="297" y="61"/>
      <point x="295" y="60"/>
      <point x="292" y="58" type="curve" smooth="yes"/>
      <point x="280" y="48"/>
      <point x="260" y="41"/>
      <point x="221" y="41" type="curve" smooth="yes"/>
      <point x="190" y="41"/>
      <point x="155" y="61"/>
      <point x="155" y="135" type="curve" smooth="yes"/>
      <point x="155" y="324" type="line" smooth="yes"/>
      <point x="155" y="351"/>
      <point x="161" y="352"/>
      <point x="195" y="352" type="curve" smooth="yes"/>
      <point x="294" y="352" type="line" smooth="yes"/>
      <point x="299" y="352"/>
      <point x="304" y="364"/>
      <point x="304" y="376" type="curve" smooth="yes"/>
      <point x="304" y="388"/>
      <point x="299" y="400"/>
      <point x="294" y="400" type="curve" smooth="yes"/>
      <point x="180" y="400" type="line" smooth="yes"/>
      <point x="167" y="400"/>
      <point x="156" y="405"/>
      <point x="156" y="414" type="curve"/>
      <point x="158" y="458" type="line"/>
      <point x="158" y="467"/>
      <point x="150" y="468"/>
      <point x="144" y="468" type="curve" smooth="yes"/>
      <point x="140" y="468"/>
      <point x="131" y="456"/>
      <point x="117" y="440" type="curve" smooth="yes"/>
      <point x="98" y="417"/>
      <point x="71" y="388"/>
      <point x="40" y="379" type="curve"/>
      <point x="38" y="378"/>
      <point x="35" y="375"/>
      <point x="35" y="372" type="curve" smooth="yes"/>
      <point x="35" y="365"/>
      <point x="43" y="352"/>
      <point x="47" y="352" type="curve"/>
      <point x="57" y="352" type="line" smooth="yes"/>
      <point x="72" y="352"/>
      <point x="85" y="348"/>
      <point x="85" y="337" type="curve" smooth="yes"/>
      <point x="85" y="105" type="line" smooth="yes"/>
      <point x="85" y="22"/>
      <point x="127" y="-14"/>
      <point x="189" y="-14" type="curve" smooth="yes"/>
      <point x="204" y="-14"/>
      <point x="219" y="-11"/>
      <point x="233" y="-6" type="curve"/>
      <point x="234" y="-57" type="line" smooth="yes"/>
      <point x="236" y="-146"/>
      <point x="226" y="-251"/>
      <point x="157" y="-251" type="curve" smooth="yes"/>
      <point x="134" y="-251"/>
      <point x="121" y="-234"/>
      <point x="110" y="-218" type="curve" smooth="yes"/>
      <point x="101" y="-205"/>
      <point x="93" y="-193"/>
      <point x="82" y="-193" type="curve" smooth="yes"/>
      <point x="60" y="-193"/>
      <point x="44" y="-219"/>
      <point x="44" y="-249" type="curve" smooth="yes"/>
      <point x="44" y="-272"/>
      <point x="102" y="-288"/>
      <point x="142" y="-288" type="curve" smooth="yes"/>
    </contour>
  </outline>
</glyph>
<glyph name="uni01AD" format="1">
  <advance width="307"/>
  <unicode hex="01AD"/>
  <note>
	uni01AD
  </note>
  <outline>
    <contour>
      <point x="250" y="-14"/>
      <point x="306" y="36"/>
      <point x="306" y="47" type="curve" smooth="yes"/>
      <point x="306" y="54"/>
      <point x="304" y="61"/>
      <point x="299" y="61" type="curve" smooth="yes"/>
      <point x="298" y="61"/>
      <point x="296" y="60"/>
      <point x="295" y="59" type="curve" smooth="yes"/>
      <point x="278" y="47"/>
      <point x="260" y="41"/>
      <point x="221" y="41" type="curve" smooth="yes"/>
      <point x="178" y="41"/>
      <point x="155" y="73"/>
      <point x="155" y="127" type="curve"/>
      <point x="155" y="324" type="line" smooth="yes"/>
      <point x="155" y="351"/>
      <point x="161" y="352"/>
      <point x="195" y="352" type="curve" smooth="yes"/>
      <point x="294" y="352" type="line" smooth="yes"/>
      <point x="299" y="352"/>
      <point x="302" y="364"/>
      <point x="302" y="376" type="curve" smooth="yes"/>
      <point x="302" y="388"/>
      <point x="299" y="400"/>
      <point x="294" y="400" type="curve" smooth="yes"/>
      <point x="180" y="400" type="line" smooth="yes"/>
      <point x="167" y="400"/>
      <point x="155" y="405"/>
      <point x="155" y="414" type="curve" smooth="yes"/>
      <point x="155" y="508" type="line"/>
      <point x="155" y="617"/>
      <point x="193" y="676"/>
      <point x="236" y="676" type="curve" smooth="yes"/>
      <point x="285" y="676"/>
      <point x="288" y="622"/>
      <point x="315" y="622" type="curve" smooth="yes"/>
      <point x="334" y="622"/>
      <point x="352" y="645"/>
      <point x="352" y="667" type="curve" smooth="yes"/>
      <point x="352" y="673"/>
      <point x="350" y="679"/>
      <point x="344" y="686" type="curve" smooth="yes"/>
      <point x="331" y="702"/>
      <point x="300" y="706"/>
      <point x="267" y="706" type="curve" smooth="yes"/>
      <point x="178" y="706"/>
      <point x="85" y="624"/>
      <point x="85" y="465" type="curve" smooth="yes"/>
      <point x="85" y="402" type="line"/>
      <point x="65" y="392"/>
      <point x="56" y="384"/>
      <point x="26" y="376" type="curve"/>
      <point x="24" y="375"/>
      <point x="19" y="373"/>
      <point x="19" y="370" type="curve" smooth="yes"/>
      <point x="19" y="363"/>
      <point x="29" y="353"/>
      <point x="33" y="352" type="curve"/>
      <point x="54" y="350"/>
      <point x="72" y="350"/>
      <point x="85" y="350" type="curve"/>
      <point x="85" y="105" type="line"/>
      <point x="85" y="26"/>
      <point x="124" y="-14"/>
      <point x="189" y="-14" type="curve" smooth="yes"/>
    </contour>
  </outline>
</glyph>
<glyph name="uhorn" format="1">
  <advance width="561"/>
  <unicode hex="01B0"/>
  <note>
	uhorn
  </note>
  <outline>
    <contour>
      <point x="368" y="-19"/>
      <point x="382" y="-15"/>
      <point x="386" y="-13" type="curve"/>
      <point x="415" y="-1"/>
      <point x="451" y="14"/>
      <point x="503" y="21" type="curve"/>
      <point x="508" y="21"/>
      <point x="517" y="24"/>
      <point x="517" y="35" type="curve" smooth="yes"/>
      <point x="517" y="47"/>
      <point x="507" y="49"/>
      <point x="502" y="48" type="curve" smooth="yes"/>
      <point x="492" y="46"/>
      <point x="466" y="45"/>
      <point x="456" y="45" type="curve" smooth="yes"/>
      <point x="440" y="45"/>
      <point x="438" y="73"/>
      <point x="438" y="114" type="curve" smooth="yes"/>
      <point x="438" y="326" type="line" smooth="yes"/>
      <point x="438" y="351"/>
      <point x="434" y="376"/>
      <point x="447" y="378" type="curve" smooth="yes"/>
      <point x="525" y="392"/>
      <point x="561" y="423"/>
      <point x="561" y="483" type="curve" smooth="yes"/>
      <point x="561" y="508"/>
      <point x="546" y="534"/>
      <point x="521" y="534" type="curve" smooth="yes"/>
      <point x="496" y="534"/>
      <point x="466" y="526"/>
      <point x="466" y="501" type="curve" smooth="yes"/>
      <point x="466" y="488"/>
      <point x="475" y="477"/>
      <point x="488" y="475" type="curve" smooth="yes"/>
      <point x="501" y="473"/>
      <point x="511" y="460"/>
      <point x="511" y="446" type="curve" smooth="yes"/>
      <point x="511" y="422"/>
      <point x="418" y="402"/>
      <point x="303" y="397" type="curve" smooth="yes"/>
      <point x="290" y="396"/>
      <point x="280" y="392"/>
      <point x="280" y="382" type="curve" smooth="yes"/>
      <point x="280" y="368"/>
      <point x="298" y="365"/>
      <point x="303" y="365" type="curve"/>
      <point x="323" y="364"/>
      <point x="368" y="356"/>
      <point x="368" y="315" type="curve" smooth="yes"/>
      <point x="368" y="132" type="line" smooth="yes"/>
      <point x="368" y="91"/>
      <point x="338" y="68"/>
      <point x="323" y="57" type="curve" smooth="yes"/>
      <point x="298" y="38"/>
      <point x="273" y="37"/>
      <point x="239" y="37" type="curve" smooth="yes"/>
      <point x="196" y="37"/>
      <point x="155" y="80"/>
      <point x="155" y="128" type="curve" smooth="yes"/>
      <point x="155" y="323" type="line" smooth="yes"/>
      <point x="155" y="353"/>
      <point x="157" y="369"/>
      <point x="161" y="400" type="curve" smooth="yes"/>
      <point x="162" y="410"/>
      <point x="157" y="415"/>
      <point x="147" y="414" type="curve"/>
      <point x="140" y="412"/>
      <point x="131" y="409"/>
      <point x="122" y="407" type="curve" smooth="yes"/>
      <point x="96" y="401"/>
      <point x="89" y="399"/>
      <point x="44" y="397" type="curve"/>
      <point x="39" y="396"/>
      <point x="29" y="393"/>
      <point x="29" y="380" type="curve" smooth="yes"/>
      <point x="29" y="370"/>
      <point x="39" y="366"/>
      <point x="42" y="365" type="curve"/>
      <point x="72" y="353"/>
      <point x="85" y="337"/>
      <point x="85" y="308" type="curve" smooth="yes"/>
      <point x="85" y="105" type="line" smooth="yes"/>
      <point x="85" y="27"/>
      <point x="134" y="-14"/>
      <point x="199" y="-14" type="curve" smooth="yes"/>
      <point x="261" y="-14"/>
      <point x="312" y="6"/>
      <point x="364" y="57" type="curve"/>
      <point x="364" y="51" type="line" smooth="yes"/>
      <point x="364" y="34"/>
      <point x="359" y="-2"/>
      <point x="359" y="-15" type="curve" smooth="yes"/>
      <point x="359" y="-18"/>
      <point x="358" y="-19"/>
      <point x="362" y="-19" type="curve" smooth="yes"/>
    </contour>
    <contour>
      <point x="252" y="440" type="move" name="top"/>
    </contour>
    <contour>
      <point x="257" y="-30" type="move" name="bottom"/>
    </contour>
  </outline>
</glyph>
<glyph name="uni01B2" format="1">
  <advance width="731"/>
  <unicode hex="01B2"/>
  <note>
	uni01B2
  </note>
  <outline>
    <contour>
      <point x="542" y="-14"/>
      <point x="686" y="178"/>
      <point x="686" y="386" type="curve" smooth="yes"/>
      <point x="686" y="529"/>
      <point x="608" y="664"/>
      <point x="492" y="664" type="curve" smooth="yes"/>
      <point x="466" y="664"/>
      <point x="430" y="666"/>
      <point x="418" y="667" type="curve" smooth="yes"/>
      <point x="403" y="668"/>
      <point x="383" y="608"/>
      <point x="384" y="594" type="curve"/>
      <point x="384" y="588"/>
      <point x="387" y="580"/>
      <point x="389" y="580" type="curve" smooth="yes"/>
      <point x="417" y="580"/>
      <point x="412" y="625"/>
      <point x="472" y="625" type="curve" smooth="yes"/>
      <point x="592" y="625"/>
      <point x="595" y="458"/>
      <point x="595" y="336" type="curve" smooth="yes"/>
      <point x="595" y="199"/>
      <point x="506" y="36"/>
      <point x="357" y="36" type="curve" smooth="yes"/>
      <point x="254" y="36"/>
      <point x="183" y="124"/>
      <point x="183" y="253" type="curve" smooth="yes"/>
      <point x="183" y="549" type="line" smooth="yes"/>
      <point x="183" y="589"/>
      <point x="209" y="616"/>
      <point x="225" y="621" type="curve" smooth="yes"/>
      <point x="247" y="628"/>
      <point x="258" y="632"/>
      <point x="258" y="641" type="curve" smooth="yes"/>
      <point x="258" y="649"/>
      <point x="246" y="652"/>
      <point x="229" y="652" type="curve" smooth="yes"/>
      <point x="208" y="652"/>
      <point x="180" y="650"/>
      <point x="149" y="650" type="curve" smooth="yes"/>
      <point x="112" y="650"/>
      <point x="83" y="653"/>
      <point x="53" y="653" type="curve" smooth="yes"/>
      <point x="36" y="653"/>
      <point x="24" y="650"/>
      <point x="24" y="642" type="curve" smooth="yes"/>
      <point x="24" y="633"/>
      <point x="34" y="626"/>
      <point x="57" y="620" type="curve" smooth="yes"/>
      <point x="79" y="614"/>
      <point x="103" y="595"/>
      <point x="103" y="547" type="curve" smooth="yes"/>
      <point x="103" y="222" type="line" smooth="yes"/>
      <point x="103" y="118"/>
      <point x="173" y="-14"/>
      <point x="334" y="-14" type="curve" smooth="yes"/>
    </contour>
  </outline>
</glyph>
<glyph name="uni01BB" format="1">
  <advance width="485"/>
  <unicode hex="01BB"/>
  <note>
	uni01BB
  </note>
  <outline>
    <contour>
      <point x="424" y="-3"/>
      <point x="431" y="-1"/>
      <point x="435" y="21" type="curve" smooth="yes"/>
      <point x="445" y="80"/>
      <point x="440" y="48"/>
      <point x="464" y="115" type="curve" smooth="yes"/>
      <point x="465" y="118"/>
      <point x="465" y="122"/>
      <point x="465" y="125" type="curve" smooth="yes"/>
      <point x="465" y="130"/>
      <point x="464" y="134"/>
      <point x="460" y="133" type="curve" smooth="yes"/>
      <point x="447" y="130"/>
      <point x="438" y="119"/>
      <point x="433" y="111" type="curve" smooth="yes"/>
      <point x="408" y="71"/>
      <point x="395" y="67"/>
      <point x="338" y="64" type="curve" smooth="yes"/>
      <point x="302" y="62"/>
      <point x="262" y="61"/>
      <point x="224" y="61" type="curve" smooth="yes"/>
      <point x="187" y="61"/>
      <point x="160" y="62"/>
      <point x="138" y="64" type="curve" smooth="yes"/>
      <point x="130" y="65"/>
      <point x="116" y="70"/>
      <point x="125" y="76" type="curve" smooth="yes"/>
      <point x="134" y="82"/>
      <point x="283" y="258"/>
      <point x="336" y="321" type="curve" smooth="yes"/>
      <point x="372" y="365"/>
      <point x="409" y="444"/>
      <point x="409" y="492" type="curve" smooth="yes"/>
      <point x="409" y="587"/>
      <point x="350" y="664"/>
      <point x="254" y="664" type="curve" smooth="yes"/>
      <point x="139" y="664"/>
      <point x="66" y="554"/>
      <point x="56" y="527" type="curve" smooth="yes"/>
      <point x="53" y="518"/>
      <point x="63" y="502"/>
      <point x="69" y="502" type="curve" smooth="yes"/>
      <point x="75" y="502"/>
      <point x="82" y="509"/>
      <point x="86" y="516" type="curve"/>
      <point x="97" y="539"/>
      <point x="157" y="602"/>
      <point x="224" y="602" type="curve" smooth="yes"/>
      <point x="281" y="602"/>
      <point x="323" y="546"/>
      <point x="323" y="476" type="curve" smooth="yes"/>
      <point x="323" y="388"/>
      <point x="279" y="309"/>
      <point x="209" y="236" type="curve"/>
      <point x="34" y="28" type="line" smooth="yes"/>
      <point x="29" y="22"/>
      <point x="26" y="15"/>
      <point x="26" y="9" type="curve" smooth="yes"/>
      <point x="26" y="3"/>
      <point x="29" y="-2"/>
      <point x="34" y="-2" type="curve"/>
      <point x="130" y="3"/>
      <point x="183" y="3"/>
      <point x="278" y="3" type="curve" smooth="yes"/>
      <point x="330" y="3"/>
      <point x="316" y="3"/>
      <point x="412" y="-3" type="curve"/>
    </contour>
    <contour>
      <point x="418" y="270" type="line" smooth="yes"/>
      <point x="429" y="270"/>
      <point x="450" y="280"/>
      <point x="450" y="295" type="curve" smooth="yes"/>
      <point x="450" y="301"/>
      <point x="442" y="306"/>
      <point x="436" y="306" type="curve" smooth="yes"/>
      <point x="109" y="306" type="line" smooth="yes"/>
      <point x="97" y="306"/>
      <point x="85" y="297"/>
      <point x="85" y="288" type="curve" smooth="yes"/>
      <point x="85" y="282"/>
      <point x="90" y="270"/>
      <point x="99" y="270" type="curve" smooth="yes"/>
    </contour>
  </outline>
</glyph>
<glyph name="uni01C3" format="1">
  <advance width="270"/>
  <unicode hex="01C3"/>
  <note>
	uni01C3
  </note>
  <outline>
    <contour>
      <point x="104" y="535"/>
      <point x="118" y="358"/>
      <point x="130" y="244" type="curve" smooth="yes"/>
      <point x="133" y="215"/>
      <point x="138" y="205"/>
      <point x="148" y="205" type="curve" smooth="yes"/>
      <point x="158" y="205"/>
      <point x="164" y="222"/>
      <point x="166" y="244" type="curve" smooth="yes"/>
      <point x="178" y="357"/>
      <point x="196" y="535"/>
      <point x="196" y="598" type="curve" smooth="yes"/>
      <point x="196" y="625"/>
      <point x="178" y="649"/>
      <point x="151" y="649" type="curve" smooth="yes"/>
      <point x="124" y="649"/>
      <point x="104" y="625"/>
      <point x="104" y="598" type="curve" smooth="yes"/>
    </contour>
    <contour>
      <point x="117" y="106"/>
      <point x="90" y="79"/>
      <point x="90" y="46" type="curve" smooth="yes"/>
      <point x="90" y="13"/>
      <point x="117" y="-14"/>
      <point x="150" y="-14" type="curve" smooth="yes"/>
      <point x="183" y="-14"/>
      <point x="210" y="13"/>
      <point x="210" y="46" type="curve" smooth="yes"/>
      <point x="210" y="79"/>
      <point x="183" y="106"/>
      <point x="150" y="106" type="curve" smooth="yes"/>
    </contour>
  </outline>
</glyph>
<glyph name="uni01DD" format="1">
  <advance width="388"/>
  <unicode hex="01DD"/>
  <note>
	uni01DD
  </note>
  <outline>
    <contour>
      <point x="266" y="64"/>
      <point x="236" y="17"/>
      <point x="187" y="17" type="curve" smooth="yes"/>
      <point x="139" y="17"/>
      <point x="102" y="59"/>
      <point x="102" y="91" type="curve" smooth="yes"/>
      <point x="102" y="98"/>
      <point x="103" y="141"/>
      <point x="114" y="143" type="curve" smooth="yes"/>
      <point x="135" y="147"/>
      <point x="158" y="148"/>
      <point x="187" y="148" type="curve" smooth="yes"/>
      <point x="277" y="148" type="line" smooth="yes"/>
      <point x="289" y="148"/>
      <point x="286" y="135"/>
      <point x="284" y="120" type="curve" smooth="yes"/>
      <point x="282" y="107"/>
      <point x="276" y="92"/>
      <point x="274" y="86" type="curve" smooth="yes"/>
    </contour>
    <contour>
      <point x="21" y="52"/>
      <point x="74" y="-14"/>
      <point x="176" y="-14" type="curve" smooth="yes"/>
      <point x="286" y="-14"/>
      <point x="368" y="102"/>
      <point x="368" y="220" type="curve" smooth="yes"/>
      <point x="368" y="323"/>
      <point x="296" y="414"/>
      <point x="195" y="414" type="curve" smooth="yes"/>
      <point x="99" y="414"/>
      <point x="33" y="348"/>
      <point x="33" y="323" type="curve" smooth="yes"/>
      <point x="33" y="314"/>
      <point x="38" y="307"/>
      <point x="45" y="307" type="curve" smooth="yes"/>
      <point x="48" y="307"/>
      <point x="51" y="309"/>
      <point x="54" y="312" type="curve"/>
      <point x="80" y="346"/>
      <point x="125" y="362"/>
      <point x="167" y="362" type="curve" smooth="yes"/>
      <point x="242" y="362"/>
      <point x="291" y="296"/>
      <point x="291" y="216" type="curve" smooth="yes"/>
      <point x="291" y="182"/>
      <point x="289" y="179"/>
      <point x="273" y="179" type="curve" smooth="yes"/>
      <point x="118" y="179" type="line" smooth="yes"/>
      <point x="69" y="179"/>
      <point x="21" y="171"/>
      <point x="21" y="101" type="curve" smooth="yes"/>
    </contour>
  </outline>
</glyph>
<glyph name="uni01EB" format="1">
  <advance width="495"/>
  <unicode hex="01EB"/>
  <note>
	uni01EB
  </note>
  <outline>
    <contour>
      <point x="344" y="-287"/>
      <point x="388" y="-226"/>
      <point x="388" y="-207" type="curve" smooth="yes"/>
      <point x="388" y="-201"/>
      <point x="384" y="-200"/>
      <point x="380" y="-200" type="curve" smooth="yes"/>
      <point x="375" y="-200"/>
      <point x="356" y="-221"/>
      <point x="321" y="-221" type="curve" smooth="yes"/>
      <point x="287" y="-221"/>
      <point x="261" y="-196"/>
      <point x="261" y="-152" type="curve" smooth="yes"/>
      <point x="261" y="-43"/>
      <point x="351" y="18"/>
      <point x="351" y="18" type="curve" smooth="yes"/>
      <point x="325" y="18" type="line" smooth="yes"/>
      <point x="325" y="18"/>
      <point x="187" y="-72"/>
      <point x="187" y="-179" type="curve" smooth="yes"/>
      <point x="187" y="-253"/>
      <point x="230" y="-287"/>
      <point x="288" y="-287" type="curve" smooth="yes"/>
    </contour>
    <contour>
      <point x="131" y="414"/>
      <point x="35" y="298"/>
      <point x="35" y="187" type="curve" smooth="yes"/>
      <point x="35" y="70"/>
      <point x="122" y="-14"/>
      <point x="234" y="-14" type="curve" smooth="yes"/>
      <point x="384" y="-14"/>
      <point x="460" y="96"/>
      <point x="460" y="213" type="curve" smooth="yes"/>
      <point x="460" y="321"/>
      <point x="370" y="414"/>
      <point x="254" y="414" type="curve" smooth="yes"/>
    </contour>
    <contour>
      <point x="322" y="383"/>
      <point x="378" y="284"/>
      <point x="378" y="189" type="curve" smooth="yes"/>
      <point x="378" y="150"/>
      <point x="374" y="102"/>
      <point x="358" y="71" type="curve" smooth="yes"/>
      <point x="338" y="32"/>
      <point x="300" y="16"/>
      <point x="255" y="16" type="curve" smooth="yes"/>
      <point x="175" y="16"/>
      <point x="117" y="111"/>
      <point x="117" y="210" type="curve" smooth="yes"/>
      <point x="117" y="258"/>
      <point x="122" y="309"/>
      <point x="149" y="343" type="curve" smooth="yes"/>
      <point x="173" y="374"/>
      <point x="201" y="383"/>
      <point x="237" y="383" type="curve" smooth="yes"/>
    </contour>
  </outline>
</glyph>
<glyph name="uni0237" format="1">
  <advance width="212"/>
  <unicode hex="0237"/>
  <note>
	uni0237
  </note>
  <outline>
    <component base="j.dotless"/>
    <contour>
      <point x="101" y="440" type="move" name="top"/>
    </contour>
  </outline>
</glyph>
<glyph name="uni0238" format="1">
  <advance width="792"/>
  <unicode hex="0238"/>
  <note>
	uni0238
  </note>
  <outline>
    <contour>
      <point x="286" y="-14"/>
      <point x="331" y="26"/>
      <point x="351" y="57" type="curve"/>
      <point x="351" y="51" type="line" smooth="yes"/>
      <point x="351" y="34"/>
      <point x="345" y="11"/>
      <point x="345" y="9" type="curve" smooth="yes"/>
      <point x="345" y="3"/>
      <point x="354" y="-2"/>
      <point x="362" y="-2" type="curve" smooth="yes"/>
      <point x="367" y="-2"/>
      <point x="385" y="13"/>
      <point x="397" y="13" type="curve" smooth="yes"/>
      <point x="411" y="13"/>
      <point x="472" y="-14"/>
      <point x="534" y="-14" type="curve" smooth="yes"/>
      <point x="685" y="-14"/>
      <point x="757" y="100"/>
      <point x="757" y="217" type="curve" smooth="yes"/>
      <point x="757" y="325"/>
      <point x="681" y="414"/>
      <point x="577" y="414" type="curve" smooth="yes"/>
      <point x="543" y="414"/>
      <point x="481" y="397"/>
      <point x="431" y="355" type="curve"/>
      <point x="422" y="356"/>
      <point x="422" y="367"/>
      <point x="422" y="388" type="curve" smooth="yes"/>
      <point x="422" y="562" type="line" smooth="yes"/>
      <point x="422" y="652"/>
      <point x="429" y="686"/>
      <point x="429" y="698" type="curve"/>
      <point x="428" y="702"/>
      <point x="426" y="704"/>
      <point x="422" y="704" type="curve" smooth="yes"/>
      <point x="418" y="704"/>
      <point x="413" y="703"/>
      <point x="407" y="700" type="curve" smooth="yes"/>
      <point x="388" y="693"/>
      <point x="354" y="677"/>
      <point x="300" y="664" type="curve" smooth="yes"/>
      <point x="295" y="663"/>
      <point x="293" y="657"/>
      <point x="293" y="652" type="curve" smooth="yes"/>
      <point x="293" y="646"/>
      <point x="296" y="640"/>
      <point x="301" y="639" type="curve" smooth="yes"/>
      <point x="335" y="632"/>
      <point x="352" y="620"/>
      <point x="352" y="566" type="curve" smooth="yes"/>
      <point x="352" y="408" type="line" smooth="yes"/>
      <point x="352" y="390"/>
      <point x="351" y="384"/>
      <point x="348" y="384" type="curve" smooth="yes"/>
      <point x="346" y="384"/>
      <point x="342" y="388"/>
      <point x="338" y="393" type="curve" smooth="yes"/>
      <point x="332" y="400"/>
      <point x="288" y="414"/>
      <point x="260" y="414" type="curve" smooth="yes"/>
      <point x="120" y="414"/>
      <point x="35" y="306"/>
      <point x="35" y="190" type="curve" smooth="yes"/>
      <point x="35" y="89"/>
      <point x="106" y="-14"/>
      <point x="220" y="-14" type="curve" smooth="yes"/>
    </contour>
    <contour>
      <point x="213" y="31"/>
      <point x="109" y="62"/>
      <point x="109" y="213" type="curve" smooth="yes"/>
      <point x="109" y="347"/>
      <point x="190" y="379"/>
      <point x="229" y="379" type="curve" smooth="yes"/>
      <point x="307" y="379"/>
      <point x="352" y="311"/>
      <point x="352" y="255" type="curve" smooth="yes"/>
      <point x="352" y="122" type="line" smooth="yes"/>
      <point x="352" y="74"/>
      <point x="313" y="31"/>
      <point x="257" y="31" type="curve" smooth="yes"/>
    </contour>
    <contour>
      <point x="489" y="17"/>
      <point x="422" y="62"/>
      <point x="422" y="132" type="curve" smooth="yes"/>
      <point x="422" y="253" type="line" smooth="yes"/>
      <point x="422" y="306"/>
      <point x="429" y="323"/>
      <point x="443" y="338" type="curve" smooth="yes"/>
      <point x="465" y="362"/>
      <point x="514" y="373"/>
      <point x="542" y="373" type="curve" smooth="yes"/>
      <point x="637" y="373"/>
      <point x="682" y="272"/>
      <point x="682" y="195" type="curve" smooth="yes"/>
      <point x="682" y="94"/>
      <point x="635" y="17"/>
      <point x="559" y="17" type="curve" smooth="yes"/>
    </contour>
  </outline>
</glyph>
<glyph name="uni023B" format="1">
  <advance width="640"/>
  <unicode hex="023B"/>
  <note>
	uni023B
  </note>
  <outline>
    <contour>
      <point x="149" y="-92"/>
      <point x="166" y="-90"/>
      <point x="175" y="-74" type="curve"/>
      <point x="617" y="700" type="line"/>
      <point x="617" y="701"/>
      <point x="618" y="703"/>
      <point x="618" y="704" type="curve" smooth="yes"/>
      <point x="618" y="711"/>
      <point x="611" y="717"/>
      <point x="604" y="717" type="curve" smooth="yes"/>
      <point x="585" y="717"/>
      <point x="567" y="717"/>
      <point x="558" y="700" type="curve"/>
      <point x="116" y="-74" type="line"/>
      <point x="112" y="-80"/>
      <point x="115" y="-77"/>
      <point x="115" y="-77" type="curve"/>
      <point x="115" y="-84"/>
      <point x="119" y="-92"/>
      <point x="130" y="-92" type="curve" smooth="yes"/>
    </contour>
    <component base="C"/>
  </outline>
</glyph>
<glyph name="uni023C" format="1">
  <advance width="447"/>
  <unicode hex="023C"/>
  <note>
	uni023C
  </note>
  <outline>
    <contour>
      <point x="147" y="119" type="line"/>
      <point x="129" y="150"/>
      <point x="119" y="188"/>
      <point x="119" y="226" type="curve" smooth="yes"/>
      <point x="119" y="299"/>
      <point x="156" y="376"/>
      <point x="229" y="376" type="curve" smooth="yes"/>
      <point x="256" y="376"/>
      <point x="271" y="373"/>
      <point x="285" y="364" type="curve"/>
    </contour>
    <contour>
      <point x="358" y="319"/>
      <point x="386" y="336"/>
      <point x="386" y="353" type="curve" smooth="yes"/>
      <point x="386" y="357"/>
      <point x="384" y="361"/>
      <point x="381" y="365" type="curve" smooth="yes"/>
      <point x="374" y="374"/>
      <point x="365" y="382"/>
      <point x="356" y="388" type="curve"/>
      <point x="376" y="424" type="line"/>
      <point x="380" y="432"/>
      <point x="387" y="446"/>
      <point x="387" y="451" type="curve" smooth="yes"/>
      <point x="387" y="458"/>
      <point x="383" y="464"/>
      <point x="376" y="464" type="curve" smooth="yes"/>
      <point x="354" y="464"/>
      <point x="338" y="457"/>
      <point x="327" y="438" type="curve" smooth="yes"/>
      <point x="310" y="408" type="line"/>
      <point x="294" y="412"/>
      <point x="277" y="413"/>
      <point x="261" y="413" type="curve" smooth="yes"/>
      <point x="138" y="413"/>
      <point x="50" y="303"/>
      <point x="50" y="180" type="curve" smooth="yes"/>
      <point x="50" y="126"/>
      <point x="69" y="75"/>
      <point x="102" y="39" type="curve"/>
      <point x="57" y="-41" type="line" smooth="yes"/>
      <point x="54" y="-46"/>
      <point x="52" y="-53"/>
      <point x="52" y="-54" type="curve" smooth="yes"/>
      <point x="52" y="-61"/>
      <point x="56" y="-65"/>
      <point x="67" y="-65" type="curve" smooth="yes"/>
      <point x="86" y="-65"/>
      <point x="103" y="-63"/>
      <point x="112" y="-47" type="curve" smooth="yes"/>
      <point x="142" y="7" type="line"/>
      <point x="165" y="-6"/>
      <point x="192" y="-14"/>
      <point x="221" y="-14" type="curve" smooth="yes"/>
      <point x="307" y="-14"/>
      <point x="387" y="42"/>
      <point x="387" y="79" type="curve" smooth="yes"/>
      <point x="387" y="86"/>
      <point x="381" y="93"/>
      <point x="375" y="93" type="curve" smooth="yes"/>
      <point x="372" y="93"/>
      <point x="369" y="91"/>
      <point x="366" y="88" type="curve"/>
      <point x="340" y="54"/>
      <point x="320" y="38"/>
      <point x="278" y="38" type="curve" smooth="yes"/>
      <point x="240" y="38"/>
      <point x="207" y="52"/>
      <point x="181" y="76" type="curve"/>
      <point x="323" y="329" type="line"/>
      <point x="328" y="324"/>
      <point x="339" y="319"/>
      <point x="348" y="319" type="curve" smooth="yes"/>
    </contour>
  </outline>
</glyph>
<glyph name="uni0246" format="1">
  <advance width="565"/>
  <unicode hex="0246"/>
  <note>
	uni0246
  </note>
  <outline>
    <contour>
      <point x="79" y="-92"/>
      <point x="96" y="-90"/>
      <point x="105" y="-74" type="curve"/>
      <point x="547" y="700" type="line"/>
      <point x="547" y="701"/>
      <point x="548" y="703"/>
      <point x="548" y="704" type="curve" smooth="yes"/>
      <point x="548" y="711"/>
      <point x="541" y="717"/>
      <point x="534" y="717" type="curve" smooth="yes"/>
      <point x="515" y="717"/>
      <point x="497" y="717"/>
      <point x="488" y="700" type="curve"/>
      <point x="46" y="-74" type="line"/>
      <point x="42" y="-80"/>
      <point x="45" y="-77"/>
      <point x="45" y="-77" type="curve"/>
      <point x="45" y="-84"/>
      <point x="49" y="-92"/>
      <point x="60" y="-92" type="curve" smooth="yes"/>
    </contour>
    <component base="E" xOffset="12"/>
  </outline>
</glyph>
<glyph name="uni0248" format="1">
  <advance width="319"/>
  <unicode hex="0248"/>
  <note>
	uni0248
  </note>
  <outline>
    <contour>
      <point x="281" y="296" type="line"/>
      <point x="296" y="296"/>
      <point x="305" y="305"/>
      <point x="312" y="318" type="curve"/>
      <point x="312" y="319"/>
      <point x="313" y="320"/>
      <point x="313" y="321" type="curve" smooth="yes"/>
      <point x="313" y="327"/>
      <point x="305" y="332"/>
      <point x="299" y="332" type="curve"/>
      <point x="39" y="332" type="line"/>
      <point x="27" y="332"/>
      <point x="15" y="323"/>
      <point x="15" y="314" type="curve" smooth="yes"/>
      <point x="15" y="308"/>
      <point x="20" y="296"/>
      <point x="29" y="296" type="curve"/>
    </contour>
    <component base="J" xOffset="13"/>
  </outline>
</glyph>
<glyph name="uni024A" format="1">
  <advance width="695"/>
  <unicode hex="024A"/>
  <note>
	uni024A
  </note>
  <outline>
    <contour>
      <point x="726" y="-276"/>
      <point x="816" y="-238"/>
      <point x="816" y="-152" type="curve" smooth="yes"/>
      <point x="816" y="-139"/>
      <point x="816" y="-126"/>
      <point x="808" y="-126" type="curve" smooth="yes"/>
      <point x="787" y="-126"/>
      <point x="732" y="-162"/>
      <point x="732" y="-180" type="curve" smooth="yes"/>
      <point x="732" y="-220"/>
      <point x="705" y="-245"/>
      <point x="671" y="-245" type="curve" smooth="yes"/>
      <point x="622" y="-245"/>
      <point x="605" y="-213"/>
      <point x="605" y="-47" type="curve" smooth="yes"/>
      <point x="605" y="638" type="line" smooth="yes"/>
      <point x="605" y="655"/>
      <point x="605" y="671"/>
      <point x="597" y="671" type="curve" smooth="yes"/>
      <point x="583" y="671"/>
      <point x="554" y="628"/>
      <point x="536" y="634" type="curve" smooth="yes"/>
      <point x="518" y="640"/>
      <point x="410" y="663"/>
      <point x="378" y="663" type="curve" smooth="yes"/>
      <point x="184" y="663"/>
      <point x="45" y="496"/>
      <point x="45" y="302" type="curve" smooth="yes"/>
      <point x="45" y="120"/>
      <point x="173" y="-15"/>
      <point x="343" y="-15" type="curve" smooth="yes"/>
      <point x="410" y="-15"/>
      <point x="468" y="-2"/>
      <point x="496" y="12" type="curve" smooth="yes"/>
      <point x="512" y="20"/>
      <point x="525" y="25"/>
      <point x="525" y="-3" type="curve" smooth="yes"/>
      <point x="525" y="-109" type="line" smooth="yes"/>
      <point x="525" y="-226"/>
      <point x="584" y="-276"/>
      <point x="643" y="-276" type="curve" smooth="yes"/>
    </contour>
    <contour>
      <point x="214" y="16"/>
      <point x="145" y="177"/>
      <point x="145" y="326" type="curve" smooth="yes"/>
      <point x="145" y="473"/>
      <point x="216" y="632"/>
      <point x="362" y="632" type="curve" smooth="yes"/>
      <point x="453" y="632"/>
      <point x="525" y="580"/>
      <point x="525" y="524" type="curve" smooth="yes"/>
      <point x="525" y="116" type="line" smooth="yes"/>
      <point x="525" y="65"/>
      <point x="423" y="16"/>
      <point x="370" y="16" type="curve" smooth="yes"/>
    </contour>
  </outline>
</glyph>
<glyph name="uni024B" format="1">
  <advance width="525"/>
  <unicode hex="024B"/>
  <note>
	uni024B
  </note>
  <outline>
    <contour>
      <point x="574" y="-288"/>
      <point x="637" y="-258"/>
      <point x="637" y="-195" type="curve" smooth="yes"/>
      <point x="637" y="-182"/>
      <point x="636" y="-169"/>
      <point x="628" y="-169" type="curve" smooth="yes"/>
      <point x="607" y="-169"/>
      <point x="565" y="-201"/>
      <point x="565" y="-219" type="curve" smooth="yes"/>
      <point x="565" y="-238"/>
      <point x="551" y="-260"/>
      <point x="515" y="-260" type="curve" smooth="yes"/>
      <point x="471" y="-260"/>
      <point x="447" y="-210"/>
      <point x="447" y="-46" type="curve" smooth="yes"/>
      <point x="447" y="295" type="line" smooth="yes"/>
      <point x="447" y="331"/>
      <point x="452" y="379"/>
      <point x="459" y="411" type="curve"/>
      <point x="459" y="416"/>
      <point x="449" y="421"/>
      <point x="443" y="421" type="curve" smooth="yes"/>
      <point x="440" y="421"/>
      <point x="437" y="418"/>
      <point x="436" y="417" type="curve"/>
      <point x="429" y="402"/>
      <point x="424" y="392"/>
      <point x="410" y="392" type="curve" smooth="yes"/>
      <point x="405" y="392"/>
      <point x="350" y="414"/>
      <point x="282" y="414" type="curve" smooth="yes"/>
      <point x="135" y="414"/>
      <point x="35" y="319"/>
      <point x="35" y="178" type="curve" smooth="yes"/>
      <point x="35" y="54"/>
      <point x="131" y="-14"/>
      <point x="235" y="-14" type="curve" smooth="yes"/>
      <point x="298" y="-14"/>
      <point x="345" y="5"/>
      <point x="362" y="20" type="curve"/>
      <point x="365" y="23"/>
      <point x="368" y="25"/>
      <point x="371" y="25" type="curve" smooth="yes"/>
      <point x="375" y="25"/>
      <point x="377" y="18"/>
      <point x="377" y="-5" type="curve" smooth="yes"/>
      <point x="377" y="-103" type="line" smooth="yes"/>
      <point x="377" y="-211"/>
      <point x="417" y="-288"/>
      <point x="495" y="-288" type="curve" smooth="yes"/>
    </contour>
    <contour>
      <point x="212" y="24"/>
      <point x="117" y="72"/>
      <point x="117" y="205" type="curve" smooth="yes"/>
      <point x="117" y="320"/>
      <point x="185" y="382"/>
      <point x="257" y="382" type="curve" smooth="yes"/>
      <point x="323" y="382"/>
      <point x="375" y="335"/>
      <point x="377" y="275" type="curve" smooth="yes"/>
      <point x="378" y="250"/>
      <point x="378" y="207"/>
      <point x="378" y="171" type="curve" smooth="yes"/>
      <point x="378" y="124"/>
      <point x="378" y="61"/>
      <point x="358" y="47" type="curve"/>
      <point x="333" y="28"/>
      <point x="306" y="24"/>
      <point x="272" y="24" type="curve" smooth="yes"/>
    </contour>
  </outline>
</glyph>
<glyph name="uni024C" format="1">
  <advance width="723"/>
  <unicode hex="024C"/>
  <note>
	uni024C
  </note>
  <outline>
    <contour>
      <point x="696" y="-21"/>
      <point x="752" y="-15"/>
      <point x="752" y="14" type="curve" smooth="yes"/>
      <point x="752" y="22"/>
      <point x="747" y="25"/>
      <point x="737" y="25" type="curve" smooth="yes"/>
      <point x="690" y="25"/>
      <point x="657" y="27"/>
      <point x="622" y="58" type="curve" smooth="yes"/>
      <point x="528" y="143"/>
      <point x="481" y="218"/>
      <point x="419" y="312" type="curve" smooth="yes"/>
      <point x="415" y="318"/>
      <point x="414" y="323"/>
      <point x="419" y="325" type="curve"/>
      <point x="474" y="353"/>
      <point x="537" y="403"/>
      <point x="537" y="493" type="curve" smooth="yes"/>
      <point x="537" y="602"/>
      <point x="458" y="657"/>
      <point x="312" y="657" type="curve" smooth="yes"/>
      <point x="254" y="657"/>
      <point x="235" y="652"/>
      <point x="197" y="652" type="curve" smooth="yes"/>
      <point x="156" y="652"/>
      <point x="153" y="653"/>
      <point x="99" y="653" type="curve" smooth="yes"/>
      <point x="82" y="653"/>
      <point x="70" y="650"/>
      <point x="70" y="642" type="curve" smooth="yes"/>
      <point x="70" y="633"/>
      <point x="80" y="626"/>
      <point x="103" y="622" type="curve" smooth="yes"/>
      <point x="153" y="613"/>
      <point x="164" y="582"/>
      <point x="164" y="522" type="curve"/>
      <point x="164" y="100" type="line"/>
      <point x="164" y="51"/>
      <point x="141" y="33"/>
      <point x="91" y="24" type="curve" smooth="yes"/>
      <point x="68" y="20"/>
      <point x="58" y="15"/>
      <point x="58" y="6" type="curve" smooth="yes"/>
      <point x="58" y="-2"/>
      <point x="70" y="-5"/>
      <point x="87" y="-5" type="curve" smooth="yes"/>
      <point x="141" y="-5"/>
      <point x="166" y="2"/>
      <point x="217" y="2" type="curve" smooth="yes"/>
      <point x="255" y="2"/>
      <point x="261" y="-5"/>
      <point x="315" y="-5" type="curve" smooth="yes"/>
      <point x="332" y="-5"/>
      <point x="344" y="-2"/>
      <point x="344" y="6" type="curve" smooth="yes"/>
      <point x="344" y="15"/>
      <point x="334" y="20"/>
      <point x="311" y="24" type="curve" smooth="yes"/>
      <point x="261" y="33"/>
      <point x="244" y="67"/>
      <point x="244" y="110" type="curve" smooth="yes"/>
      <point x="244" y="274" type="line" smooth="yes"/>
      <point x="244" y="286"/>
      <point x="248" y="292"/>
      <point x="259" y="291" type="curve" smooth="yes"/>
      <point x="277" y="289"/>
      <point x="303" y="286"/>
      <point x="322" y="280" type="curve" smooth="yes"/>
      <point x="344" y="273"/>
      <point x="376" y="254"/>
      <point x="387" y="236" type="curve" smooth="yes"/>
      <point x="456" y="124"/>
      <point x="484" y="93"/>
      <point x="533" y="33" type="curve" smooth="yes"/>
      <point x="568" y="-10"/>
      <point x="614" y="-21"/>
      <point x="671" y="-21" type="curve" smooth="yes"/>
    </contour>
    <contour>
      <point x="249" y="292" type="line"/>
      <point x="262" y="292"/>
      <point x="270" y="308"/>
      <point x="272" y="318" type="curve" smooth="yes"/>
      <point x="273" y="321"/>
      <point x="273" y="322"/>
      <point x="273" y="324" type="curve" smooth="yes"/>
      <point x="273" y="330"/>
      <point x="266" y="336"/>
      <point x="259" y="336" type="curve"/>
      <point x="120" y="336" type="line" smooth="yes"/>
      <point x="104" y="336"/>
      <point x="96" y="313"/>
      <point x="96" y="304" type="curve" smooth="yes"/>
      <point x="96" y="298"/>
      <point x="103" y="292"/>
      <point x="110" y="292" type="curve" smooth="yes"/>
    </contour>
    <contour>
      <point x="264" y="336"/>
      <point x="244" y="339"/>
      <point x="244" y="372" type="curve" smooth="yes"/>
      <point x="244" y="452"/>
      <point x="245" y="500"/>
      <point x="248" y="573" type="curve" smooth="yes"/>
      <point x="249" y="603"/>
      <point x="257" y="627"/>
      <point x="312" y="627" type="curve" smooth="yes"/>
      <point x="425" y="627"/>
      <point x="447" y="558"/>
      <point x="447" y="477" type="curve" smooth="yes"/>
      <point x="447" y="400"/>
      <point x="389" y="336"/>
      <point x="297" y="336" type="curve" smooth="yes"/>
    </contour>
  </outline>
</glyph>
<glyph name="uni0252" format="1">
  <advance width="507"/>
  <unicode hex="0252"/>
  <note>
	uni0252
  </note>
  <outline>
    <contour>
      <point x="205" y="17"/>
      <point x="143" y="72"/>
      <point x="143" y="125" type="curve" smooth="yes"/>
      <point x="143" y="268" type="line" smooth="yes"/>
      <point x="143" y="308"/>
      <point x="156" y="329"/>
      <point x="168" y="339" type="curve" smooth="yes"/>
      <point x="191" y="357"/>
      <point x="219" y="369"/>
      <point x="250" y="369" type="curve" smooth="yes"/>
      <point x="313" y="369"/>
      <point x="398" y="333"/>
      <point x="398" y="192" type="curve" smooth="yes"/>
      <point x="398" y="66"/>
      <point x="342" y="17"/>
      <point x="269" y="17" type="curve" smooth="yes"/>
    </contour>
    <contour>
      <point x="73" y="104" type="line" smooth="yes"/>
      <point x="73" y="52"/>
      <point x="66" y="11"/>
      <point x="66" y="9" type="curve" smooth="yes"/>
      <point x="66" y="3"/>
      <point x="75" y="-2"/>
      <point x="83" y="-2" type="curve" smooth="yes"/>
      <point x="88" y="-2"/>
      <point x="99" y="15"/>
      <point x="111" y="15" type="curve" smooth="yes"/>
      <point x="125" y="15"/>
      <point x="203" y="-14"/>
      <point x="239" y="-14" type="curve" smooth="yes"/>
      <point x="373" y="-14"/>
      <point x="478" y="58"/>
      <point x="478" y="225" type="curve" smooth="yes"/>
      <point x="478" y="338"/>
      <point x="395" y="414"/>
      <point x="306" y="414" type="curve" smooth="yes"/>
      <point x="231" y="414"/>
      <point x="149" y="353"/>
      <point x="144" y="348" type="curve"/>
      <point x="144" y="348"/>
      <point x="145" y="350"/>
      <point x="145" y="356" type="curve" smooth="yes"/>
      <point x="146" y="388"/>
      <point x="150" y="413"/>
      <point x="150" y="420" type="curve"/>
      <point x="149" y="423"/>
      <point x="147" y="427"/>
      <point x="144" y="427" type="curve" smooth="yes"/>
      <point x="143" y="427"/>
      <point x="143" y="426"/>
      <point x="142" y="426" type="curve" smooth="yes"/>
      <point x="113" y="412"/>
      <point x="78" y="398"/>
      <point x="26" y="385" type="curve" smooth="yes"/>
      <point x="22" y="384"/>
      <point x="19" y="379"/>
      <point x="19" y="373" type="curve" smooth="yes"/>
      <point x="19" y="367"/>
      <point x="22" y="361"/>
      <point x="27" y="360" type="curve" smooth="yes"/>
      <point x="51" y="356"/>
      <point x="73" y="315"/>
      <point x="73" y="286" type="curve" smooth="yes"/>
    </contour>
  </outline>
</glyph>
<glyph name="uni0254" format="1">
  <advance width="424"/>
  <unicode hex="0254"/>
  <note>
	uni0254
  </note>
  <outline>
    <contour>
      <point x="252" y="383"/>
      <point x="307" y="284"/>
      <point x="307" y="189" type="curve" smooth="yes"/>
      <point x="307" y="150"/>
      <point x="303" y="102"/>
      <point x="287" y="71" type="curve" smooth="yes"/>
      <point x="267" y="32"/>
      <point x="229" y="16"/>
      <point x="184" y="17" type="curve" smooth="yes"/>
      <point x="134" y="17"/>
      <point x="115" y="42"/>
      <point x="82" y="78" type="curve"/>
      <point x="77" y="83"/>
      <point x="69" y="91"/>
      <point x="59" y="91" type="curve" smooth="yes"/>
      <point x="40" y="91"/>
      <point x="20" y="67"/>
      <point x="20" y="53" type="curve" smooth="yes"/>
      <point x="20" y="49"/>
      <point x="21" y="46"/>
      <point x="24" y="42" type="curve"/>
      <point x="54" y="5"/>
      <point x="119" y="-14"/>
      <point x="162" y="-14" type="curve" smooth="yes"/>
      <point x="313" y="-14"/>
      <point x="389" y="96"/>
      <point x="389" y="213" type="curve" smooth="yes"/>
      <point x="389" y="321"/>
      <point x="298" y="413"/>
      <point x="183" y="413" type="curve" smooth="yes"/>
      <point x="116" y="413"/>
      <point x="64" y="382"/>
      <point x="53" y="372" type="curve" smooth="yes"/>
      <point x="40" y="361"/>
      <point x="35" y="290"/>
      <point x="37" y="290" type="curve" smooth="yes"/>
      <point x="47" y="290"/>
      <point x="65" y="299"/>
      <point x="68" y="309" type="curve" smooth="yes"/>
      <point x="74" y="331"/>
      <point x="105" y="383"/>
      <point x="166" y="383" type="curve" smooth="yes"/>
    </contour>
  </outline>
</glyph>
<glyph name="uni0258" format="1">
  <advance width="406"/>
  <unicode hex="0258"/>
  <note>
	uni0258
  </note>
  <outline>
    <contour>
      <point x="324" y="-14"/>
      <point x="371" y="117"/>
      <point x="371" y="220" type="curve" smooth="yes"/>
      <point x="371" y="322"/>
      <point x="302" y="414"/>
      <point x="192" y="414" type="curve" smooth="yes"/>
      <point x="98" y="414"/>
      <point x="34" y="359"/>
      <point x="34" y="318" type="curve" smooth="yes"/>
      <point x="34" y="285"/>
      <point x="36" y="262"/>
      <point x="57" y="256" type="curve" smooth="yes"/>
      <point x="69" y="253"/>
      <point x="83" y="251"/>
      <point x="110" y="252" type="curve" smooth="yes"/>
      <point x="275" y="257" type="line" smooth="yes"/>
      <point x="291" y="257"/>
      <point x="302" y="234"/>
      <point x="302" y="172" type="curve" smooth="yes"/>
      <point x="302" y="75"/>
      <point x="270" y="17"/>
      <point x="183" y="17" type="curve" smooth="yes"/>
      <point x="109" y="17"/>
      <point x="85" y="82"/>
      <point x="70" y="83" type="curve" smooth="yes"/>
      <point x="59" y="84"/>
      <point x="53" y="78"/>
      <point x="47" y="74" type="curve" smooth="yes"/>
      <point x="40" y="69"/>
      <point x="29" y="52"/>
      <point x="30" y="44" type="curve" smooth="yes"/>
      <point x="35" y="19"/>
      <point x="90" y="-14"/>
      <point x="169" y="-14" type="curve" smooth="yes"/>
    </contour>
    <contour>
      <point x="152" y="288"/>
      <point x="128" y="289"/>
      <point x="107" y="293" type="curve"/>
      <point x="100" y="294"/>
      <point x="98" y="308"/>
      <point x="98" y="319" type="curve" smooth="yes"/>
      <point x="98" y="363"/>
      <point x="125" y="383"/>
      <point x="179" y="383" type="curve" smooth="yes"/>
      <point x="235" y="383"/>
      <point x="265" y="340"/>
      <point x="277" y="318" type="curve"/>
      <point x="280" y="313"/>
      <point x="281" y="308"/>
      <point x="281" y="303" type="curve" smooth="yes"/>
      <point x="281" y="295"/>
      <point x="276" y="288"/>
      <point x="262" y="288" type="curve" smooth="yes"/>
      <point x="180" y="288" type="line" smooth="yes"/>
    </contour>
  </outline>
</glyph>
<glyph name="uni0259" format="1">
  <advance width="407"/>
  <unicode hex="0259"/>
  <note>
	uni0259
  </note>
  <outline>
    <contour>
      <point x="286" y="-14"/>
      <point x="368" y="102"/>
      <point x="368" y="220" type="curve" smooth="yes"/>
      <point x="368" y="323"/>
      <point x="296" y="414"/>
      <point x="195" y="414" type="curve" smooth="yes"/>
      <point x="99" y="414"/>
      <point x="33" y="348"/>
      <point x="33" y="323" type="curve" smooth="yes"/>
      <point x="33" y="314"/>
      <point x="38" y="307"/>
      <point x="45" y="307" type="curve" smooth="yes"/>
      <point x="48" y="307"/>
      <point x="51" y="309"/>
      <point x="54" y="312" type="curve"/>
      <point x="80" y="346"/>
      <point x="125" y="362"/>
      <point x="167" y="362" type="curve" smooth="yes"/>
      <point x="242" y="362"/>
      <point x="291" y="296"/>
      <point x="291" y="216" type="curve" smooth="yes"/>
      <point x="291" y="182"/>
      <point x="289" y="179"/>
      <point x="273" y="179" type="curve" smooth="yes"/>
      <point x="118" y="179" type="line" smooth="yes"/>
      <point x="69" y="179"/>
      <point x="21" y="171"/>
      <point x="21" y="101" type="curve" smooth="yes"/>
      <point x="21" y="52"/>
      <point x="74" y="-14"/>
      <point x="176" y="-14" type="curve" smooth="yes"/>
    </contour>
    <contour>
      <point x="139" y="17"/>
      <point x="102" y="59"/>
      <point x="102" y="91" type="curve" smooth="yes"/>
      <point x="102" y="98"/>
      <point x="103" y="141"/>
      <point x="114" y="143" type="curve" smooth="yes"/>
      <point x="135" y="147"/>
      <point x="158" y="148"/>
      <point x="187" y="148" type="curve" smooth="yes"/>
      <point x="277" y="148" type="line" smooth="yes"/>
      <point x="289" y="148"/>
      <point x="286" y="135"/>
      <point x="284" y="120" type="curve" smooth="yes"/>
      <point x="277" y="71"/>
      <point x="238" y="17"/>
      <point x="187" y="17" type="curve" smooth="yes"/>
    </contour>
  </outline>
</glyph>
<glyph name="uni025A" format="1">
  <advance width="526"/>
  <unicode hex="025A"/>
  <note>
	uni025A
  </note>
  <outline>
    <contour>
      <point x="295" y="-14"/>
      <point x="377" y="102"/>
      <point x="377" y="220" type="curve" smooth="yes"/>
      <point x="377" y="248"/>
      <point x="372" y="274"/>
      <point x="362" y="299" type="curve"/>
      <point x="423" y="340" type="line"/>
      <point x="423" y="340"/>
      <point x="414" y="315"/>
      <point x="414" y="298" type="curve" smooth="yes"/>
      <point x="414" y="270"/>
      <point x="437" y="240"/>
      <point x="458" y="240" type="curve" smooth="yes"/>
      <point x="501" y="240"/>
      <point x="546" y="284"/>
      <point x="546" y="294" type="curve" smooth="yes"/>
      <point x="546" y="304"/>
      <point x="543" y="312"/>
      <point x="533" y="312" type="curve" smooth="yes"/>
      <point x="526" y="312"/>
      <point x="502" y="289"/>
      <point x="483" y="289" type="curve" smooth="yes"/>
      <point x="470" y="289"/>
      <point x="453" y="296"/>
      <point x="453" y="324" type="curve" smooth="yes"/>
      <point x="453" y="366"/>
      <point x="483" y="390"/>
      <point x="483" y="396" type="curve" smooth="yes"/>
      <point x="483" y="405"/>
      <point x="472" y="410"/>
      <point x="463" y="410" type="curve" smooth="yes"/>
      <point x="454" y="410"/>
      <point x="425" y="389"/>
      <point x="414" y="381" type="curve"/>
      <point x="344" y="334" type="line"/>
      <point x="314" y="382"/>
      <point x="264" y="414"/>
      <point x="204" y="414" type="curve" smooth="yes"/>
      <point x="132" y="414"/>
      <point x="77" y="377"/>
      <point x="54" y="348" type="curve" smooth="yes"/>
      <point x="46" y="338"/>
      <point x="42" y="329"/>
      <point x="42" y="323" type="curve" smooth="yes"/>
      <point x="42" y="314"/>
      <point x="47" y="307"/>
      <point x="54" y="307" type="curve" smooth="yes"/>
      <point x="57" y="307"/>
      <point x="60" y="309"/>
      <point x="63" y="312" type="curve"/>
      <point x="89" y="346"/>
      <point x="134" y="362"/>
      <point x="176" y="362" type="curve" smooth="yes"/>
      <point x="224" y="362"/>
      <point x="260" y="332"/>
      <point x="280" y="291" type="curve"/>
      <point x="74" y="153" type="line" smooth="yes"/>
      <point x="52" y="138"/>
      <point x="30" y="121"/>
      <point x="30" y="101" type="curve" smooth="yes"/>
      <point x="30" y="52"/>
      <point x="83" y="-14"/>
      <point x="185" y="-14" type="curve" smooth="yes"/>
    </contour>
    <contour>
      <point x="148" y="17"/>
      <point x="111" y="59"/>
      <point x="111" y="91" type="curve" smooth="yes"/>
      <point x="111" y="117"/>
      <point x="115" y="130"/>
      <point x="125" y="137" type="curve" smooth="yes"/>
      <point x="294" y="252" type="line"/>
      <point x="298" y="235"/>
      <point x="300" y="217"/>
      <point x="300" y="199" type="curve" smooth="yes"/>
      <point x="300" y="117"/>
      <point x="282" y="17"/>
      <point x="196" y="17" type="curve" smooth="yes"/>
    </contour>
  </outline>
</glyph>
<glyph name="uni0264" format="1">
  <advance width="440"/>
  <unicode hex="0264"/>
  <note>
	uni0264
  </note>
  <outline>
    <contour>
      <point x="293" y="-14"/>
      <point x="322" y="22"/>
      <point x="322" y="80" type="curve" smooth="yes"/>
      <point x="322" y="103"/>
      <point x="282" y="168"/>
      <point x="254" y="212" type="curve" smooth="yes"/>
      <point x="252" y="215"/>
      <point x="252" y="216"/>
      <point x="254" y="219" type="curve" smooth="yes"/>
      <point x="316" y="315" type="line" smooth="yes"/>
      <point x="332" y="341"/>
      <point x="353" y="360"/>
      <point x="364" y="360" type="curve" smooth="yes"/>
      <point x="439" y="360"/>
      <point x="394" y="283"/>
      <point x="410" y="283" type="curve" smooth="yes"/>
      <point x="431" y="283"/>
      <point x="446" y="311"/>
      <point x="446" y="331" type="curve" smooth="yes"/>
      <point x="446" y="396"/>
      <point x="416" y="417"/>
      <point x="364" y="417" type="curve" smooth="yes"/>
      <point x="346" y="417"/>
      <point x="322" y="391"/>
      <point x="302" y="363" type="curve" smooth="yes"/>
      <point x="275" y="324"/>
      <point x="243" y="272"/>
      <point x="235" y="259" type="curve" smooth="yes"/>
      <point x="234" y="257"/>
      <point x="232" y="256"/>
      <point x="231" y="259" type="curve" smooth="yes"/>
      <point x="225" y="272"/>
      <point x="198" y="324"/>
      <point x="162" y="377" type="curve" smooth="yes"/>
      <point x="145" y="402"/>
      <point x="112" y="416"/>
      <point x="94" y="416" type="curve" smooth="yes"/>
      <point x="42" y="416"/>
      <point x="2" y="373"/>
      <point x="2" y="328" type="curve" smooth="yes"/>
      <point x="2" y="308"/>
      <point x="6" y="280"/>
      <point x="27" y="280" type="curve" smooth="yes"/>
      <point x="43" y="280"/>
      <point x="22" y="350"/>
      <point x="75" y="350" type="curve" smooth="yes"/>
      <point x="86" y="350"/>
      <point x="104" y="336"/>
      <point x="118" y="315" type="curve" smooth="yes"/>
      <point x="191" y="198" type="line" smooth="yes"/>
      <point x="193" y="195"/>
      <point x="193" y="192"/>
      <point x="191" y="189" type="curve" smooth="yes"/>
      <point x="176" y="169"/>
      <point x="116" y="84"/>
      <point x="116" y="58" type="curve" smooth="yes"/>
      <point x="116" y="11"/>
      <point x="163" y="-14"/>
      <point x="210" y="-14" type="curve" smooth="yes"/>
    </contour>
    <contour>
      <point x="184" y="16"/>
      <point x="167" y="38"/>
      <point x="167" y="70" type="curve" smooth="yes"/>
      <point x="167" y="83"/>
      <point x="213" y="153"/>
      <point x="213" y="153" type="curve" smooth="yes"/>
      <point x="213" y="153"/>
      <point x="256" y="77"/>
      <point x="256" y="63" type="curve" smooth="yes"/>
      <point x="256" y="39"/>
      <point x="248" y="16"/>
      <point x="216" y="16" type="curve" smooth="yes"/>
    </contour>
  </outline>
</glyph>
<glyph name="uni0272" format="1">
  <advance width="514"/>
  <unicode hex="0272"/>
  <note>
	uni0272
  </note>
  <outline>
    <contour>
      <point x="32" y="-278"/>
      <point x="91" y="-215"/>
      <point x="114" y="-152" type="curve" smooth="yes"/>
      <point x="143" y="-72"/>
      <point x="143" y="28"/>
      <point x="143" y="88" type="curve" smooth="yes"/>
      <point x="143" y="267" type="line"/>
      <point x="143" y="308"/>
      <point x="158" y="330"/>
      <point x="170" y="339" type="curve" smooth="yes"/>
      <point x="195" y="359"/>
      <point x="228" y="365"/>
      <point x="262" y="365" type="curve"/>
      <point x="315" y="365"/>
      <point x="352" y="330"/>
      <point x="352" y="272" type="curve" smooth="yes"/>
      <point x="352" y="62" type="line" smooth="yes"/>
      <point x="352" y="35"/>
      <point x="329" y="30"/>
      <point x="309" y="24" type="curve"/>
      <point x="298" y="20"/>
      <point x="286" y="16"/>
      <point x="286" y="6" type="curve" smooth="yes"/>
      <point x="286" y="-2"/>
      <point x="299" y="-3"/>
      <point x="306" y="-3" type="curve" smooth="yes"/>
      <point x="347" y="-3"/>
      <point x="356" y="2"/>
      <point x="388" y="2" type="curve" smooth="yes"/>
      <point x="421" y="2"/>
      <point x="430" y="-3"/>
      <point x="471" y="-3" type="curve" smooth="yes"/>
      <point x="479" y="-3"/>
      <point x="491" y="-2"/>
      <point x="491" y="6" type="curve" smooth="yes"/>
      <point x="491" y="16"/>
      <point x="479" y="20"/>
      <point x="468" y="24" type="curve"/>
      <point x="448" y="30"/>
      <point x="425" y="35"/>
      <point x="425" y="62" type="curve" smooth="yes"/>
      <point x="425" y="295" type="line" smooth="yes"/>
      <point x="425" y="373"/>
      <point x="374" y="414"/>
      <point x="309" y="414" type="curve" smooth="yes"/>
      <point x="246" y="414"/>
      <point x="173" y="372"/>
      <point x="144" y="348" type="curve"/>
      <point x="143" y="349"/>
      <point x="143" y="352"/>
      <point x="143" y="356" type="curve" smooth="yes"/>
      <point x="143" y="373"/>
      <point x="150" y="411"/>
      <point x="150" y="421" type="curve"/>
      <point x="149" y="424"/>
      <point x="146" y="430"/>
      <point x="143" y="430" type="curve" smooth="yes"/>
      <point x="142" y="430"/>
      <point x="142" y="430"/>
      <point x="141" y="429" type="curve"/>
      <point x="118" y="412"/>
      <point x="83" y="386"/>
      <point x="31" y="374" type="curve" smooth="yes"/>
      <point x="26" y="373"/>
      <point x="24" y="367"/>
      <point x="24" y="362" type="curve" smooth="yes"/>
      <point x="24" y="356"/>
      <point x="27" y="350"/>
      <point x="32" y="349" type="curve" smooth="yes"/>
      <point x="66" y="342"/>
      <point x="73" y="313"/>
      <point x="73" y="277" type="curve" smooth="yes"/>
      <point x="73" y="66" type="line" smooth="yes"/>
      <point x="73" y="-1"/>
      <point x="71" y="-136"/>
      <point x="42" y="-197" type="curve" smooth="yes"/>
      <point x="23" y="-237"/>
      <point x="0" y="-254"/>
      <point x="-24" y="-260" type="curve"/>
      <point x="-26" y="-261"/>
      <point x="-35" y="-269"/>
      <point x="-35" y="-277" type="curve" smooth="yes"/>
      <point x="-35" y="-284"/>
      <point x="-26" y="-287"/>
      <point x="-19" y="-287" type="curve" smooth="yes"/>
    </contour>
  </outline>
</glyph>
<glyph name="uni0275" format="1">
  <advance width="495"/>
  <unicode hex="0275"/>
  <note>
	uni0275
  </note>
  <outline>
    <contour>
      <point x="378" y="191" type="line"/>
      <point x="378" y="189" type="line" smooth="yes"/>
      <point x="378" y="150"/>
      <point x="374" y="102"/>
      <point x="358" y="71" type="curve" smooth="yes"/>
      <point x="338" y="32"/>
      <point x="300" y="16"/>
      <point x="255" y="16" type="curve" smooth="yes"/>
      <point x="180" y="16"/>
      <point x="125" y="99"/>
      <point x="118" y="191" type="curve"/>
    </contour>
    <contour>
      <point x="118" y="228" type="line"/>
      <point x="118" y="270"/>
      <point x="125" y="313"/>
      <point x="149" y="343" type="curve" smooth="yes"/>
      <point x="173" y="374"/>
      <point x="201" y="383"/>
      <point x="237" y="383" type="curve" smooth="yes"/>
      <point x="310" y="383"/>
      <point x="362" y="309"/>
      <point x="375" y="228" type="curve"/>
    </contour>
    <contour>
      <point x="131" y="414"/>
      <point x="35" y="298"/>
      <point x="35" y="187" type="curve" smooth="yes"/>
      <point x="35" y="70"/>
      <point x="122" y="-14"/>
      <point x="234" y="-14" type="curve" smooth="yes"/>
      <point x="384" y="-14"/>
      <point x="460" y="96"/>
      <point x="460" y="213" type="curve" smooth="yes"/>
      <point x="460" y="321"/>
      <point x="370" y="414"/>
      <point x="254" y="414" type="curve" smooth="yes"/>
    </contour>
  </outline>
</glyph>
<glyph name="uni0276" format="1">
  <advance width="686"/>
  <unicode hex="0276"/>
  <note>
	uni0276
  </note>
  <outline>
    <contour>
      <point x="345" y="-1"/>
      <point x="384" y="0"/>
      <point x="401" y="0" type="curve" smooth="yes"/>
      <point x="469" y="0"/>
      <point x="547" y="-2"/>
      <point x="640" y="-2" type="curve" smooth="yes"/>
      <point x="647" y="-2"/>
      <point x="648" y="4"/>
      <point x="649" y="10" type="curve"/>
      <point x="655" y="32"/>
      <point x="663" y="69"/>
      <point x="666" y="96" type="curve"/>
      <point x="666" y="108"/>
      <point x="646" y="105"/>
      <point x="642" y="97" type="curve"/>
      <point x="637" y="86"/>
      <point x="622" y="61"/>
      <point x="610" y="51" type="curve" smooth="yes"/>
      <point x="601" y="44"/>
      <point x="565" y="39"/>
      <point x="562" y="39" type="curve" smooth="yes"/>
      <point x="480" y="39" type="line" smooth="yes"/>
      <point x="450" y="39"/>
      <point x="436" y="62"/>
      <point x="435" y="90" type="curve"/>
      <point x="435" y="200" type="line" smooth="yes"/>
      <point x="435" y="219"/>
      <point x="438" y="220"/>
      <point x="457" y="220" type="curve" smooth="yes"/>
      <point x="532" y="220" type="line" smooth="yes"/>
      <point x="544" y="220"/>
      <point x="558" y="210"/>
      <point x="564" y="189" type="curve"/>
      <point x="566" y="185"/>
      <point x="572" y="170"/>
      <point x="582" y="170" type="curve" smooth="yes"/>
      <point x="588" y="170"/>
      <point x="589" y="176"/>
      <point x="588" y="182" type="curve"/>
      <point x="587" y="201"/>
      <point x="586" y="219"/>
      <point x="586" y="237" type="curve" smooth="yes"/>
      <point x="586" y="252"/>
      <point x="587" y="267"/>
      <point x="588" y="283" type="curve"/>
      <point x="589" y="289"/>
      <point x="583" y="294"/>
      <point x="579" y="294" type="curve" smooth="yes"/>
      <point x="576" y="294"/>
      <point x="567" y="284"/>
      <point x="565" y="281" type="curve"/>
      <point x="559" y="264"/>
      <point x="544" y="253"/>
      <point x="523" y="253" type="curve" smooth="yes"/>
      <point x="442" y="253" type="line" smooth="yes"/>
      <point x="436" y="253"/>
      <point x="435" y="260"/>
      <point x="435" y="268" type="curve" smooth="yes"/>
      <point x="435" y="392" type="line" smooth="yes"/>
      <point x="435" y="404"/>
      <point x="452" y="414"/>
      <point x="460" y="414" type="curve" smooth="yes"/>
      <point x="560" y="414" type="line" smooth="yes"/>
      <point x="595" y="414"/>
      <point x="612" y="385"/>
      <point x="622" y="354" type="curve"/>
      <point x="624" y="349"/>
      <point x="625" y="347"/>
      <point x="630" y="347" type="curve" smooth="yes"/>
      <point x="634" y="347"/>
      <point x="641" y="349"/>
      <point x="641" y="353" type="curve" smooth="yes"/>
      <point x="641" y="377"/>
      <point x="635" y="419"/>
      <point x="630" y="445" type="curve" smooth="yes"/>
      <point x="629" y="450"/>
      <point x="622" y="451"/>
      <point x="618" y="451" type="curve" smooth="yes"/>
      <point x="607" y="451" type="line" smooth="yes"/>
      <point x="570" y="451"/>
      <point x="473" y="448"/>
      <point x="392" y="448" type="curve" smooth="yes"/>
      <point x="362" y="448"/>
      <point x="358" y="448"/>
      <point x="328" y="450" type="curve" smooth="yes"/>
      <point x="314" y="451"/>
      <point x="289" y="456"/>
      <point x="272" y="456" type="curve" smooth="yes"/>
      <point x="144" y="456"/>
      <point x="35" y="340"/>
      <point x="35" y="217" type="curve" smooth="yes"/>
      <point x="35" y="88"/>
      <point x="139" y="-15"/>
      <point x="272" y="-15" type="curve" smooth="yes"/>
      <point x="303" y="-15"/>
      <point x="316" y="-12"/>
      <point x="340" y="-3" type="curve" smooth="yes"/>
    </contour>
    <contour>
      <point x="360" y="388"/>
      <point x="365" y="372"/>
      <point x="365" y="357" type="curve" smooth="yes"/>
      <point x="365" y="79" type="line" smooth="yes"/>
      <point x="365" y="62"/>
      <point x="361" y="49"/>
      <point x="351" y="41" type="curve"/>
      <point x="330" y="26"/>
      <point x="322" y="22"/>
      <point x="288" y="22" type="curve" smooth="yes"/>
      <point x="176" y="22"/>
      <point x="120" y="115"/>
      <point x="120" y="232" type="curve" smooth="yes"/>
      <point x="120" y="327"/>
      <point x="154" y="424"/>
      <point x="266" y="424" type="curve" smooth="yes"/>
      <point x="309" y="424"/>
      <point x="323" y="421"/>
      <point x="349" y="398" type="curve" smooth="yes"/>
    </contour>
  </outline>
</glyph>
